<?xml version="1.0" encoding="UTF-8" standalone="no"?><!DOCTYPE svg PUBLIC "-//W3C//DTD SVG 1.1//EN" "http://www.w3.org/Graphics/SVG/1.1/DTD/svg11.dtd"><svg width="100%" height="100%" viewBox="0 0 250 250" version="1.1" xmlns="http://www.w3.org/2000/svg" xmlns:xlink="http://www.w3.org/1999/xlink" xml:space="preserve"  style="fill-rule:evenodd;clip-rule:evenodd;stroke-linejoin:round;stroke-miterlimit:1.41421;"><rect id="Artboard1" x="0" y="0" width="250" height="250" style="fill:none;"/><clipPath id="_clip1"><rect x="0" y="0" width="250" height="250"/></clipPath><g clip-path="url(#_clip1)"><rect x="-0.404" y="0" width="250" height="250" style="fill:#a9a9a9;"/><g><path d="M103.498,146.854c-46.649,20.449 -60.643,31.351 -66.174,36.247c-8.524,7.542 -13.24,35.66 -18.267,59.532l211.078,0c-5.027,-23.872 -9.743,-51.99 -18.266,-59.532c-5.529,-4.896 -19.011,-15.518 -65.661,-35.97l-42.71,-0.277Z" style="fill:#ffdecc;"/><path d="M103.496,146.854c-46.648,20.449 -60.641,31.351 -66.173,36.247c-8.524,7.542 -13.238,35.66 -18.266,59.532l211.079,0c-5.028,-23.872 -9.744,-51.99 -18.268,-59.532c-5.529,-4.896 -19.009,-15.518 -65.661,-35.97l-42.711,-0.277Z" style="fill:#333;"/><path d="M101.948,106.085l0,51.71c12.457,14.729 32.84,15.258 45.299,0l0,-17.091l0,-34.619c0,-27.92 -45.299,-27.92 -45.299,0" style="fill:#e2e2e2;"/><path d="M124.716,169.041c0,0 -31.61,7.544 -31.61,9.457c0,1.914 12.028,64.135 12.028,64.135l42.915,0l4.918,-63.861l-28.251,-9.731Z" style="fill:#e2e2e2;"/><path d="M101.948,147.533l0,10.262l9.84,84.838l-16.92,0l-18.612,-37.786l17.767,-11.845l-21.712,-10.15l19.965,-30.983l9.672,-4.336Z" style="fill:#1a1a1a;"/><path d="M147.247,147.586l0,10.21l-9.935,84.837l16.919,0l18.611,-37.786l-17.765,-11.845l21.711,-10.15l-17.745,-30.028l-11.796,-5.238Z" style="fill:#1b1b1b;"/><path d="M114.857,179.531l5.486,8.499l8.508,0l5.487,-8.499l-9.622,-10.49l-9.859,10.49Z" style="fill:#008eb5;"/><path d="M120.343,188.03l-7.81,54.603l24.129,0l-7.811,-54.603l-8.508,0Z" style="fill:#008eb5;"/><path d="M101.948,140.705l-1.98,7.704l5.542,40.11l19.206,-19.478l-22.768,-28.336Z" style="fill:#fff;"/><path d="M147.247,140.705l1.563,7.576l-5.208,40.639l-18.885,-19.879l22.53,-28.336Z" style="fill:#fff;"/><path d="M101.948,140.705l22.768,28.336l22.531,-28.336l0,-0.674l-22.531,28.209l-22.768,-28.209l0,0.674Z" style="fill:#e2e2e2;fill-rule:nonzero;"/><path d="M124.968,22.437c-67.066,0 -41.361,92.185 -36.98,99.248c4.832,7.788 26.145,24.955 36.98,24.955c10.835,0 32.15,-17.167 36.98,-24.955c4.382,-7.063 30.087,-99.248 -36.98,-99.248" style="fill:#e2e2e2;"/><path d="M125.372,20.192l0.402,0.003l0.4,0.005l0.398,0.008l0.396,0.01l0.394,0.011l0.392,0.014l0.39,0.016l0.388,0.019l0.385,0.02l0.384,0.022l0.383,0.025l0.379,0.027l0.378,0.029l0.376,0.03l0.374,0.034l0.373,0.034l0.369,0.037l0.369,0.04l0.366,0.04l0.364,0.044l0.362,0.045l0.36,0.047l0.359,0.05l0.356,0.051l0.355,0.053l0.352,0.056l0.351,0.057l0.35,0.059l0.347,0.062l0.344,0.063l0.343,0.066l0.341,0.067l0.34,0.069l0.337,0.071l0.336,0.073l0.334,0.075l0.331,0.077l0.33,0.079l0.328,0.081l0.326,0.083l0.324,0.084l0.322,0.087l0.321,0.088l0.319,0.091l0.317,0.092l0.314,0.094l0.313,0.096l0.312,0.098l0.309,0.099l0.308,0.102l0.306,0.103l0.304,0.105l0.301,0.107l0.301,0.109l0.298,0.111l0.296,0.112l0.295,0.114l0.293,0.117l0.291,0.117l0.29,0.119l0.287,0.122l0.286,0.123l0.283,0.125l0.283,0.126l0.279,0.128l0.279,0.13l0.277,0.132l0.274,0.134l0.273,0.135l0.272,0.136l0.269,0.139l0.267,0.14l0.266,0.141l0.264,0.144l0.263,0.145l0.26,0.146l0.259,0.149l0.257,0.15l0.255,0.152l0.253,0.152l0.252,0.155l0.25,0.156l0.247,0.158l0.247,0.16l0.245,0.161l0.243,0.162l0.24,0.164l0.24,0.166l0.237,0.167l0.236,0.168l0.234,0.17l0.232,0.172l0.231,0.173l0.229,0.174l0.226,0.177l0.226,0.177l0.223,0.178l0.222,0.181l0.221,0.182l0.218,0.182l0.217,0.185l0.215,0.185l0.214,0.188l0.211,0.188l0.21,0.19l0.208,0.191l0.206,0.193l0.206,0.193l0.202,0.196l0.202,0.196l0.199,0.198l0.199,0.199l0.196,0.201l0.195,0.201l0.193,0.203l0.192,0.203l0.19,0.206l0.188,0.206l0.186,0.207l0.185,0.209l0.183,0.211l0.182,0.211l0.18,0.212l0.178,0.214l0.177,0.214l0.176,0.216l0.172,0.217l0.173,0.218l0.17,0.219l0.169,0.221l0.167,0.221l0.166,0.222l0.163,0.224l0.163,0.224l0.161,0.225l0.159,0.227l0.158,0.227l0.156,0.229l0.155,0.229l0.153,0.231l0.151,0.231l0.151,0.233l0.148,0.233l0.147,0.234l0.146,0.236l0.144,0.236l0.143,0.237l0.141,0.238l0.139,0.239l0.138,0.24l0.137,0.241l0.135,0.242l0.134,0.242l0.133,0.244l0.13,0.243l0.129,0.246l0.128,0.246l0.127,0.246l0.125,0.248l0.124,0.248l0.122,0.249l0.121,0.25l0.119,0.251l0.118,0.251l0.118,0.252l0.114,0.253l0.115,0.253l0.112,0.255l0.111,0.255l0.11,0.256l0.109,0.257l0.107,0.256l0.106,0.259l0.105,0.258l0.103,0.259l0.102,0.26l0.1,0.261l0.1,0.261l0.098,0.262l0.097,0.262l0.19,0.527l0.092,0.264l0.092,0.265l0.09,0.265l0.089,0.266l0.088,0.267l0.087,0.267l0.085,0.268l0.084,0.268l0.084,0.269l0.081,0.269l0.081,0.27l0.079,0.271l0.078,0.27l0.077,0.272l0.076,0.271l0.074,0.273l0.074,0.273l0.072,0.272l0.071,0.274l0.07,0.275l0.069,0.274l0.068,0.276l0.066,0.275l0.066,0.276l0.064,0.276l0.064,0.277l0.061,0.277l0.061,0.277l0.06,0.278l0.059,0.278l0.058,0.279l0.056,0.279l0.056,0.28l0.054,0.279l0.054,0.28l0.052,0.28l0.052,0.281l0.05,0.281l0.048,0.28l0.049,0.283l0.047,0.281l0.046,0.282l0.09,0.565l0.043,0.283l0.042,0.283l0.041,0.284l0.04,0.283l0.077,0.568l0.037,0.284l0.037,0.285l0.035,0.285l0.034,0.284l0.034,0.285l0.032,0.286l0.032,0.285l0.06,0.571l0.029,0.286l0.027,0.286l0.027,0.286l0.027,0.286l0.024,0.286l0.025,0.287l0.023,0.286l0.022,0.287l0.022,0.286l0.021,0.287l0.02,0.287l0.019,0.287l0.036,0.573l0.016,0.288l0.015,0.287l0.03,0.573l0.013,0.287l0.012,0.288l0.012,0.287l0.01,0.287l0.01,0.287l0.01,0.287l0.015,0.574l0.007,0.287l0.006,0.287l0.006,0.286l0.004,0.287l0.004,0.286l0.003,0.286l0.003,0.287l0.001,0.286l0.001,0.286l0,0.287l-0.001,0.285l-0.001,0.286l-0.002,0.285l-0.003,0.286l-0.003,0.285l-0.004,0.285l-0.005,0.285l-0.006,0.285l-0.006,0.285l-0.007,0.284l-0.007,0.284l-0.008,0.284l-0.009,0.283l-0.01,0.284l-0.01,0.283l-0.011,0.283l-0.011,0.283l-0.012,0.282l-0.013,0.283l-0.013,0.282l-0.014,0.281l-0.015,0.282l-0.014,0.281l-0.016,0.28l-0.016,0.281l-0.017,0.28l-0.018,0.28l-0.017,0.28l-0.019,0.279l-0.019,0.28l-0.04,0.555l-0.043,0.554l-0.044,0.554l-0.047,0.552l-0.047,0.55l-0.051,0.548l-0.053,0.547l-0.054,0.544l-0.057,0.543l-0.058,0.541l-0.06,0.539l-0.062,0.537l-0.063,0.534l-0.066,0.532l-0.067,0.53l-0.069,0.528l-0.07,0.525l-0.072,0.522l-0.073,0.521l-0.074,0.517l-0.076,0.515l-0.077,0.512l-0.08,0.509l-0.079,0.507l-0.082,0.503l-0.082,0.502l-0.084,0.497l-0.085,0.494l-0.085,0.491l-0.087,0.489l-0.088,0.485l-0.089,0.481l-0.09,0.479l-0.09,0.474l-0.092,0.471l-0.093,0.468l-0.092,0.463l-0.094,0.461l-0.094,0.456l-0.096,0.453l-0.096,0.449l-0.095,0.445l-0.097,0.44l-0.097,0.436l-0.098,0.433l-0.098,0.429l-0.098,0.424l-0.099,0.419l-0.099,0.416l-0.099,0.411l-0.1,0.406l-0.099,0.402l-0.1,0.398l-0.099,0.393l-0.1,0.387l-0.1,0.384l-0.099,0.378l-0.1,0.373l-0.099,0.368l-0.1,0.364l-0.098,0.358l-0.1,0.353l-0.098,0.348l-0.098,0.342l-0.098,0.338l-0.098,0.332l-0.097,0.327l-0.096,0.321l-0.096,0.315l-0.096,0.31l-0.095,0.305l-0.094,0.298l-0.093,0.293l-0.094,0.287l-0.092,0.281l-0.092,0.276l-0.09,0.269l-0.09,0.263l-0.089,0.258l-0.089,0.251l-0.087,0.246l-0.086,0.239l-0.086,0.233l-0.085,0.227l-0.083,0.221l-0.082,0.215l-0.082,0.208l-0.08,0.202l-0.08,0.197l-0.079,0.189l-0.077,0.185l-0.077,0.177l-0.076,0.172l-0.076,0.166l-0.074,0.161l-0.074,0.155l-0.074,0.15l-0.074,0.145l-0.075,0.141l-0.075,0.137l-0.074,0.129l-0.043,0.071l-0.038,0.062l-0.067,0.109l-0.068,0.106l-0.069,0.107l-0.071,0.107l-0.071,0.108l-0.074,0.108l-0.074,0.108l-0.075,0.109l-0.077,0.11l-0.078,0.109l-0.08,0.11l-0.081,0.111l-0.081,0.111l-0.084,0.111l-0.084,0.112l-0.085,0.112l-0.087,0.113l-0.088,0.114l-0.09,0.113l-0.091,0.115l-0.091,0.114l-0.093,0.115l-0.094,0.116l-0.097,0.118l-0.193,0.232l-0.199,0.235l-0.204,0.237l-0.208,0.239l-0.212,0.24l-0.217,0.242l-0.222,0.245l-0.226,0.245l-0.23,0.247l-0.234,0.248l-0.239,0.251l-0.242,0.251l-0.247,0.252l-0.25,0.255l-0.255,0.255l-0.258,0.256l-0.261,0.258l-0.267,0.258l-0.269,0.26l-0.273,0.26l-0.276,0.261l-0.28,0.262l-0.283,0.263l-0.286,0.263l-0.29,0.265l-0.292,0.264l-0.295,0.265l-0.299,0.265l-0.302,0.266l-0.304,0.265l-0.307,0.266l-0.31,0.267l-0.313,0.266l-0.314,0.266l-0.318,0.266l-0.32,0.265l-0.322,0.267l-0.325,0.265l-0.327,0.264l-0.328,0.265l-0.331,0.263l-0.333,0.264l-0.335,0.262l-0.337,0.262l-0.338,0.261l-0.341,0.26l-0.341,0.259l-0.343,0.258l-0.345,0.257l-0.346,0.256l-0.347,0.255l-0.35,0.253l-0.349,0.251l-0.352,0.251l-0.351,0.248l-0.353,0.247l-0.354,0.246l-0.355,0.243l-0.356,0.242l-0.357,0.24l-0.357,0.237l-0.357,0.236l-0.357,0.234l-0.359,0.231l-0.359,0.229l-0.359,0.227l-0.359,0.224l-0.36,0.222l-0.359,0.219l-0.359,0.217l-0.36,0.214l-0.358,0.21l-0.181,0.105l-0.179,0.104l-0.18,0.103l-0.18,0.102l-0.179,0.102l-0.179,0.1l-0.179,0.1l-0.18,0.099l-0.179,0.099l-0.179,0.097l-0.178,0.097l-0.179,0.096l-0.178,0.095l-0.179,0.094l-0.178,0.094l-0.178,0.092l-0.178,0.092l-0.177,0.091l-0.178,0.089l-0.178,0.09l-0.176,0.088l-0.177,0.087l-0.177,0.086l-0.177,0.086l-0.176,0.084l-0.176,0.084l-0.176,0.083l-0.176,0.081l-0.175,0.081l-0.175,0.079l-0.175,0.079l-0.174,0.077l-0.175,0.077l-0.174,0.075l-0.173,0.074l-0.174,0.074l-0.173,0.072l-0.173,0.072l-0.173,0.07l-0.172,0.069l-0.172,0.068l-0.172,0.067l-0.171,0.066l-0.171,0.064l-0.171,0.064l-0.17,0.062l-0.17,0.061l-0.17,0.06l-0.169,0.059l-0.169,0.058l-0.169,0.056l-0.169,0.056l-0.167,0.054l-0.167,0.052l-0.168,0.052l-0.166,0.05l-0.167,0.048l-0.166,0.048l-0.166,0.047l-0.165,0.045l-0.165,0.043l-0.165,0.043l-0.164,0.041l-0.164,0.04l-0.163,0.037l-0.163,0.037l-0.163,0.036l-0.162,0.034l-0.162,0.032l-0.162,0.031l-0.161,0.029l-0.162,0.029l-0.159,0.026l-0.161,0.026l-0.159,0.023l-0.16,0.021l-0.159,0.02l-0.159,0.019l-0.158,0.017l-0.158,0.015l-0.157,0.014l-0.157,0.012l-0.157,0.01l-0.156,0.008l-0.157,0.006l-0.156,0.005l-0.155,0.003l-0.155,0.001l-0.155,-0.001l-0.155,-0.003l-0.155,-0.005l-0.157,-0.006l-0.156,-0.008l-0.157,-0.01l-0.157,-0.012l-0.158,-0.014l-0.158,-0.015l-0.158,-0.017l-0.159,-0.019l-0.159,-0.02l-0.158,-0.021l-0.161,-0.023l-0.159,-0.026l-0.161,-0.026l-0.161,-0.029l-0.161,-0.029l-0.162,-0.031l-0.162,-0.032l-0.162,-0.034l-0.163,-0.036l-0.163,-0.037l-0.164,-0.037l-0.163,-0.04l-0.164,-0.041l-0.165,-0.043l-0.165,-0.043l-0.165,-0.045l-0.166,-0.047l-0.167,-0.048l-0.166,-0.048l-0.166,-0.05l-0.168,-0.052l-0.168,-0.052l-0.167,-0.054l-0.169,-0.056l-0.169,-0.056l-0.169,-0.058l-0.168,-0.059l-0.17,-0.06l-0.17,-0.061l-0.171,-0.062l-0.17,-0.064l-0.171,-0.064l-0.172,-0.066l-0.172,-0.067l-0.172,-0.068l-0.172,-0.069l-0.172,-0.07l-0.173,-0.072l-0.174,-0.072l-0.173,-0.074l-0.174,-0.074l-0.174,-0.075l-0.174,-0.077l-0.174,-0.077l-0.175,-0.079l-0.175,-0.079l-0.175,-0.081l-0.176,-0.081l-0.176,-0.083l-0.177,-0.084l-0.175,-0.084l-0.177,-0.086l-0.177,-0.086l-0.177,-0.087l-0.177,-0.088l-0.178,-0.09l-0.177,-0.089l-0.177,-0.091l-0.179,-0.092l-0.178,-0.092l-0.178,-0.094l-0.178,-0.094l-0.178,-0.095l-0.179,-0.096l-0.179,-0.097l-0.179,-0.097l-0.179,-0.099l-0.179,-0.099l-0.179,-0.1l-0.179,-0.1l-0.18,-0.102l-0.18,-0.102l-0.179,-0.103l-0.179,-0.104l-0.181,-0.105l-0.358,-0.21l-0.36,-0.214l-0.36,-0.217l-0.359,-0.219l-0.359,-0.222l-0.36,-0.224l-0.359,-0.227l-0.358,-0.229l-0.359,-0.231l-0.358,-0.234l-0.357,-0.236l-0.357,-0.237l-0.356,-0.24l-0.356,-0.242l-0.355,-0.243l-0.354,-0.245l-0.353,-0.248l-0.352,-0.248l-0.351,-0.251l-0.35,-0.251l-0.349,-0.253l-0.347,-0.255l-0.346,-0.256l-0.345,-0.257l-0.343,-0.258l-0.343,-0.259l-0.34,-0.26l-0.337,-0.26l-0.337,-0.263l-0.335,-0.262l-0.333,-0.264l-0.331,-0.263l-0.328,-0.265l-0.327,-0.264l-0.325,-0.265l-0.322,-0.267l-0.32,-0.265l-0.317,-0.266l-0.316,-0.266l-0.312,-0.266l-0.31,-0.267l-0.307,-0.266l-0.305,-0.265l-0.301,-0.266l-0.298,-0.265l-0.297,-0.265l-0.292,-0.264l-0.29,-0.265l-0.286,-0.263l-0.283,-0.263l-0.28,-0.262l-0.276,-0.261l-0.273,-0.26l-0.269,-0.26l-0.265,-0.258l-0.262,-0.258l-0.259,-0.256l-0.254,-0.255l-0.251,-0.255l-0.246,-0.252l-0.243,-0.251l-0.238,-0.251l-0.234,-0.248l-0.231,-0.247l-0.226,-0.246l-0.221,-0.244l-0.217,-0.242l-0.213,-0.24l-0.208,-0.239l-0.203,-0.237l-0.199,-0.235l-0.193,-0.232l-0.097,-0.118l-0.094,-0.116l-0.093,-0.115l-0.093,-0.115l-0.09,-0.114l-0.089,-0.113l-0.088,-0.114l-0.087,-0.112l-0.086,-0.113l-0.084,-0.112l-0.083,-0.111l-0.082,-0.111l-0.081,-0.111l-0.079,-0.11l-0.078,-0.109l-0.077,-0.11l-0.076,-0.109l-0.074,-0.108l-0.073,-0.108l-0.072,-0.108l-0.07,-0.108l-0.069,-0.106l-0.068,-0.106l-0.067,-0.109l-0.039,-0.063l-0.042,-0.07l-0.074,-0.129l-0.075,-0.137l-0.075,-0.141l-0.074,-0.145l-0.074,-0.15l-0.074,-0.155l-0.075,-0.161l-0.075,-0.165l-0.076,-0.173l-0.077,-0.177l-0.077,-0.185l-0.079,-0.189l-0.08,-0.197l-0.08,-0.202l-0.082,-0.208l-0.083,-0.215l-0.083,-0.221l-0.085,-0.227l-0.085,-0.233l-0.087,-0.239l-0.087,-0.246l-0.088,-0.251l-0.089,-0.258l-0.09,-0.263l-0.091,-0.269l-0.091,-0.276l-0.093,-0.28l-0.092,-0.288l-0.094,-0.293l-0.095,-0.298l-0.094,-0.305l-0.096,-0.31l-0.096,-0.315l-0.097,-0.321l-0.097,-0.327l-0.097,-0.332l-0.098,-0.338l-0.099,-0.342l-0.098,-0.348l-0.099,-0.353l-0.099,-0.358l-0.099,-0.364l-0.1,-0.368l-0.099,-0.373l-0.1,-0.378l-0.099,-0.384l-0.1,-0.387l-0.1,-0.393l-0.099,-0.398l-0.1,-0.402l-0.099,-0.406l-0.1,-0.411l-0.099,-0.416l-0.098,-0.419l-0.099,-0.424l-0.098,-0.429l-0.097,-0.433l-0.097,-0.436l-0.097,-0.44l-0.096,-0.445l-0.096,-0.449l-0.095,-0.453l-0.094,-0.456l-0.094,-0.461l-0.093,-0.464l-0.092,-0.467l-0.092,-0.471l-0.09,-0.474l-0.091,-0.479l-0.088,-0.481l-0.088,-0.485l-0.087,-0.489l-0.086,-0.491l-0.085,-0.494l-0.083,-0.497l-0.083,-0.502l-0.081,-0.503l-0.08,-0.507l-0.079,-0.509l-0.077,-0.512l-0.077,-0.515l-0.074,-0.517l-0.073,-0.521l-0.072,-0.522l-0.07,-0.525l-0.068,-0.527l-0.067,-0.531l-0.066,-0.532l-0.063,-0.534l-0.062,-0.537l-0.06,-0.539l-0.059,-0.541l-0.056,-0.543l-0.055,-0.544l-0.052,-0.547l-0.05,-0.548l-0.049,-0.55l-0.047,-0.552l-0.044,-0.554l-0.042,-0.554l-0.04,-0.555l-0.019,-0.28l-0.019,-0.279l-0.018,-0.28l-0.018,-0.28l-0.016,-0.28l-0.017,-0.28l-0.015,-0.281l-0.015,-0.281l-0.015,-0.282l-0.013,-0.281l-0.014,-0.282l-0.013,-0.283l-0.011,-0.282l-0.012,-0.283l-0.011,-0.283l-0.01,-0.283l-0.009,-0.284l-0.009,-0.283l-0.009,-0.284l-0.006,-0.284l-0.007,-0.284l-0.007,-0.285l-0.005,-0.285l-0.005,-0.285l-0.004,-0.285l-0.003,-0.285l-0.003,-0.286l-0.002,-0.285l-0.002,-0.286l0,-0.285l0,-0.287l0,-0.286l0.002,-0.286l0.002,-0.287l0.003,-0.286l0.004,-0.286l0.005,-0.287l0.005,-0.286l0.006,-0.287l0.007,-0.287l0.008,-0.287l0.009,-0.287l0.008,-0.287l0.01,-0.287l0.011,-0.287l0.011,-0.287l0.013,-0.288l0.013,-0.287l0.015,-0.286l0.014,-0.287l0.016,-0.287l0.016,-0.288l0.018,-0.287l0.018,-0.286l0.019,-0.287l0.02,-0.287l0.02,-0.287l0.022,-0.286l0.022,-0.287l0.024,-0.286l0.024,-0.287l0.025,-0.286l0.026,-0.286l0.027,-0.286l0.028,-0.286l0.028,-0.286l0.03,-0.286l0.031,-0.285l0.031,-0.285l0.033,-0.286l0.033,-0.285l0.034,-0.284l0.036,-0.285l0.036,-0.285l0.037,-0.284l0.039,-0.284l0.039,-0.284l0.04,-0.283l0.041,-0.283l0.042,-0.284l0.043,-0.283l0.045,-0.282l0.044,-0.283l0.047,-0.282l0.047,-0.281l0.048,-0.282l0.049,-0.281l0.051,-0.282l0.051,-0.28l0.052,-0.28l0.053,-0.28l0.055,-0.279l0.055,-0.28l0.057,-0.279l0.058,-0.279l0.058,-0.278l0.06,-0.278l0.061,-0.277l0.062,-0.277l0.063,-0.277l0.065,-0.276l0.065,-0.276l0.067,-0.275l0.068,-0.276l0.068,-0.274l0.07,-0.274l0.071,-0.275l0.073,-0.272l0.073,-0.273l0.075,-0.273l0.075,-0.271l0.078,-0.272l0.077,-0.27l0.08,-0.271l0.08,-0.27l0.082,-0.269l0.083,-0.269l0.084,-0.268l0.086,-0.268l0.086,-0.267l0.088,-0.267l0.09,-0.266l0.09,-0.265l0.091,-0.265l0.094,-0.264l0.094,-0.264l0.095,-0.263l0.097,-0.262l0.098,-0.262l0.099,-0.261l0.101,-0.261l0.101,-0.26l0.104,-0.259l0.105,-0.258l0.105,-0.259l0.107,-0.256l0.109,-0.257l0.11,-0.256l0.111,-0.255l0.113,-0.254l0.114,-0.254l0.115,-0.253l0.117,-0.252l0.118,-0.251l0.12,-0.251l0.121,-0.25l0.122,-0.249l0.124,-0.248l0.125,-0.248l0.126,-0.246l0.128,-0.246l0.13,-0.246l0.13,-0.243l0.133,-0.244l0.133,-0.242l0.136,-0.242l0.136,-0.241l0.138,-0.24l0.14,-0.239l0.141,-0.238l0.143,-0.237l0.144,-0.236l0.146,-0.236l0.146,-0.234l0.149,-0.233l0.15,-0.233l0.151,-0.231l0.154,-0.231l0.155,-0.229l0.156,-0.229l0.158,-0.227l0.159,-0.227l0.161,-0.225l0.162,-0.224l0.164,-0.224l0.166,-0.222l0.167,-0.221l0.169,-0.221l0.17,-0.219l0.172,-0.218l0.174,-0.217l0.175,-0.216l0.176,-0.214l0.179,-0.214l0.18,-0.212l0.181,-0.211l0.184,-0.211l0.185,-0.208l0.186,-0.208l0.188,-0.206l0.19,-0.206l0.192,-0.203l0.192,-0.203l0.195,-0.201l0.197,-0.201l0.198,-0.199l0.2,-0.198l0.201,-0.196l0.203,-0.196l0.205,-0.193l0.207,-0.193l0.208,-0.191l0.21,-0.19l0.211,-0.188l0.214,-0.188l0.215,-0.185l0.216,-0.185l0.219,-0.182l0.22,-0.182l0.222,-0.181l0.224,-0.178l0.225,-0.177l0.227,-0.177l0.229,-0.174l0.23,-0.173l0.232,-0.172l0.235,-0.17l0.235,-0.168l0.238,-0.167l0.239,-0.166l0.241,-0.164l0.243,-0.162l0.244,-0.161l0.247,-0.16l0.248,-0.158l0.249,-0.156l0.253,-0.155l0.253,-0.152l0.255,-0.152l0.257,-0.15l0.259,-0.149l0.26,-0.146l0.262,-0.145l0.264,-0.144l0.266,-0.141l0.268,-0.14l0.269,-0.139l0.271,-0.136l0.273,-0.135l0.275,-0.134l0.277,-0.132l0.278,-0.13l0.28,-0.128l0.282,-0.126l0.284,-0.125l0.285,-0.123l0.288,-0.122l0.289,-0.119l0.292,-0.117l0.293,-0.117l0.294,-0.114l0.296,-0.112l0.299,-0.111l0.3,-0.109l0.302,-0.107l0.304,-0.105l0.306,-0.103l0.308,-0.102l0.309,-0.099l0.311,-0.098l0.313,-0.096l0.315,-0.094l0.317,-0.092l0.318,-0.091l0.321,-0.088l0.323,-0.087l0.323,-0.084l0.327,-0.083l0.328,-0.081l0.329,-0.079l0.333,-0.077l0.333,-0.075l0.335,-0.073l0.338,-0.071l0.339,-0.069l0.341,-0.067l0.343,-0.066l0.345,-0.063l0.347,-0.062l0.349,-0.059l0.351,-0.057l0.353,-0.056l0.354,-0.053l0.357,-0.051l0.358,-0.05l0.36,-0.047l0.363,-0.045l0.364,-0.044l0.366,-0.04l0.369,-0.04l0.37,-0.037l0.371,-0.034l0.374,-0.034l0.377,-0.03l0.377,-0.029l0.381,-0.027l0.381,-0.025l0.384,-0.022l0.386,-0.02l0.388,-0.019l0.39,-0.016l0.392,-0.014l0.394,-0.011l0.395,-0.01l0.398,-0.008l0.4,-0.005l0.402,-0.003l0.398,-0.001l0.006,2.246l0.006,-2.246l0.398,0.001Zm-0.783,4.494l-0.378,0.003l-0.376,0.004l-0.373,0.007l-0.371,0.01l-0.368,0.011l-0.367,0.013l-0.365,0.015l-0.362,0.017l-0.361,0.019l-0.357,0.021l-0.356,0.023l-0.354,0.025l-0.351,0.027l-0.35,0.028l-0.348,0.031l-0.344,0.032l-0.343,0.034l-0.341,0.037l-0.339,0.038l-0.337,0.04l-0.335,0.042l-0.332,0.043l-0.331,0.046l-0.328,0.047l-0.327,0.049l-0.324,0.051l-0.322,0.053l-0.321,0.054l-0.318,0.056l-0.316,0.058l-0.314,0.06l-0.312,0.062l-0.311,0.063l-0.307,0.065l-0.307,0.067l-0.303,0.068l-0.303,0.07l-0.3,0.072l-0.298,0.074l-0.296,0.075l-0.295,0.077l-0.292,0.078l-0.29,0.08l-0.288,0.082l-0.287,0.083l-0.285,0.086l-0.282,0.086l-0.281,0.088l-0.279,0.09l-0.277,0.091l-0.275,0.093l-0.273,0.095l-0.271,0.096l-0.269,0.098l-0.268,0.098l-0.266,0.101l-0.264,0.103l-0.262,0.103l-0.26,0.106l-0.258,0.106l-0.257,0.109l-0.254,0.11l-0.254,0.111l-0.251,0.112l-0.25,0.114l-0.247,0.116l-0.246,0.117l-0.244,0.119l-0.243,0.12l-0.24,0.121l-0.239,0.123l-0.238,0.124l-0.235,0.126l-0.234,0.127l-0.232,0.128l-0.23,0.13l-0.229,0.131l-0.227,0.132l-0.226,0.135l-0.224,0.134l-0.222,0.137l-0.22,0.138l-0.219,0.14l-0.218,0.14l-0.215,0.142l-0.214,0.143l-0.212,0.144l-0.211,0.146l-0.209,0.147l-0.208,0.149l-0.206,0.15l-0.204,0.151l-0.203,0.152l-0.201,0.153l-0.2,0.155l-0.199,0.156l-0.197,0.157l-0.195,0.159l-0.193,0.16l-0.192,0.161l-0.191,0.162l-0.189,0.163l-0.188,0.165l-0.186,0.166l-0.185,0.168l-0.183,0.168l-0.182,0.169l-0.181,0.171l-0.178,0.172l-0.178,0.173l-0.176,0.174l-0.175,0.176l-0.173,0.176l-0.171,0.178l-0.171,0.179l-0.169,0.18l-0.168,0.181l-0.166,0.182l-0.165,0.184l-0.163,0.185l-0.162,0.185l-0.16,0.187l-0.16,0.187l-0.157,0.189l-0.158,0.191l-0.155,0.191l-0.153,0.192l-0.153,0.194l-0.151,0.194l-0.15,0.196l-0.148,0.196l-0.148,0.198l-0.145,0.199l-0.145,0.2l-0.143,0.2l-0.142,0.202l-0.141,0.203l-0.14,0.203l-0.138,0.206l-0.136,0.205l-0.136,0.207l-0.134,0.208l-0.133,0.209l-0.131,0.21l-0.131,0.211l-0.129,0.212l-0.128,0.212l-0.127,0.214l-0.125,0.215l-0.125,0.216l-0.122,0.217l-0.122,0.217l-0.12,0.218l-0.12,0.219l-0.118,0.221l-0.117,0.221l-0.116,0.222l-0.114,0.224l-0.113,0.224l-0.112,0.225l-0.111,0.225l-0.11,0.227l-0.108,0.227l-0.108,0.228l-0.105,0.229l-0.105,0.231l-0.104,0.231l-0.103,0.231l-0.101,0.233l-0.1,0.233l-0.099,0.234l-0.098,0.235l-0.097,0.235l-0.095,0.237l-0.095,0.237l-0.094,0.238l-0.091,0.239l-0.091,0.239l-0.09,0.241l-0.089,0.241l-0.088,0.242l-0.086,0.242l-0.086,0.243l-0.085,0.244l-0.083,0.245l-0.082,0.245l-0.082,0.246l-0.079,0.247l-0.079,0.247l-0.078,0.248l-0.077,0.249l-0.075,0.249l-0.075,0.25l-0.073,0.25l-0.073,0.252l-0.072,0.251l-0.07,0.253l-0.069,0.253l-0.069,0.254l-0.067,0.253l-0.066,0.255l-0.065,0.256l-0.064,0.256l-0.063,0.256l-0.063,0.257l-0.061,0.258l-0.06,0.257l-0.058,0.259l-0.059,0.26l-0.057,0.259l-0.055,0.26l-0.056,0.26l-0.054,0.262l-0.053,0.261l-0.052,0.262l-0.051,0.262l-0.05,0.263l-0.049,0.264l-0.049,0.264l-0.047,0.263l-0.046,0.265l-0.046,0.265l-0.044,0.265l-0.043,0.267l-0.043,0.266l-0.042,0.266l-0.04,0.267l-0.04,0.267l-0.039,0.268l-0.038,0.268l-0.037,0.268l-0.036,0.269l-0.035,0.269l-0.035,0.269l-0.033,0.27l-0.032,0.27l-0.032,0.27l-0.031,0.27l-0.03,0.271l-0.029,0.271l-0.028,0.271l-0.027,0.271l-0.027,0.272l-0.025,0.272l-0.025,0.272l-0.024,0.272l-0.023,0.273l-0.022,0.273l-0.022,0.272l-0.02,0.274l-0.02,0.273l-0.018,0.273l-0.019,0.273l-0.017,0.274l-0.017,0.274l-0.015,0.274l-0.016,0.274l-0.014,0.274l-0.013,0.274l-0.013,0.275l-0.011,0.274l-0.011,0.274l-0.011,0.275l-0.009,0.275l-0.009,0.274l-0.008,0.275l-0.007,0.275l-0.007,0.275l-0.005,0.274l-0.006,0.276l-0.004,0.274l-0.003,0.275l-0.004,0.275l-0.002,0.274l-0.001,0.275l-0.001,0.274l0,0.276l0.001,0.549l0.005,0.549l0.003,0.274l0.005,0.274l0.009,0.548l0.006,0.274l0.007,0.274l0.007,0.273l0.008,0.274l0.008,0.273l0.009,0.273l0.01,0.272l0.01,0.273l0.011,0.273l0.012,0.273l0.012,0.272l0.013,0.271l0.013,0.272l0.014,0.272l0.015,0.271l0.031,0.542l0.016,0.27l0.017,0.271l0.018,0.269l0.017,0.27l0.019,0.268l0.038,0.539l0.041,0.537l0.044,0.535l0.044,0.534l0.047,0.532l0.049,0.531l0.051,0.529l0.053,0.528l0.054,0.526l0.057,0.523l0.058,0.522l0.06,0.521l0.062,0.518l0.063,0.516l0.065,0.513l0.067,0.512l0.068,0.51l0.069,0.507l0.071,0.505l0.072,0.502l0.074,0.499l0.075,0.498l0.077,0.494l0.078,0.492l0.079,0.489l0.079,0.487l0.082,0.483l0.083,0.48l0.083,0.477l0.084,0.474l0.086,0.471l0.086,0.468l0.087,0.464l0.088,0.461l0.089,0.458l0.089,0.454l0.091,0.451l0.091,0.446l0.092,0.443l0.092,0.44l0.093,0.435l0.093,0.432l0.094,0.428l0.094,0.423l0.094,0.42l0.096,0.415l0.095,0.411l0.096,0.407l0.096,0.402l0.096,0.399l0.096,0.393l0.096,0.389l0.097,0.384l0.096,0.38l0.096,0.375l0.096,0.37l0.096,0.365l0.097,0.36l0.095,0.356l0.096,0.35l0.096,0.345l0.095,0.34l0.094,0.334l0.094,0.329l0.095,0.323l0.093,0.318l0.092,0.313l0.093,0.306l0.092,0.301l0.091,0.295l0.09,0.29l0.089,0.283l0.089,0.277l0.088,0.271l0.087,0.265l0.086,0.259l0.085,0.252l0.084,0.246l0.083,0.24l0.081,0.232l0.081,0.226l0.078,0.22l0.078,0.212l0.077,0.205l0.075,0.198l0.073,0.19l0.072,0.184l0.07,0.176l0.069,0.169l0.066,0.16l0.064,0.153l0.063,0.144l0.06,0.136l0.058,0.127l0.055,0.118l0.052,0.109l0.049,0.099l0.045,0.089l0.042,0.079l0.037,0.067l0.034,0.06l0.011,0.018l0.013,0.022l0.047,0.075l0.05,0.079l0.105,0.16l0.055,0.083l0.056,0.084l0.059,0.085l0.059,0.086l0.061,0.087l0.063,0.088l0.065,0.09l0.066,0.091l0.068,0.091l0.069,0.092l0.07,0.093l0.072,0.095l0.074,0.096l0.075,0.096l0.076,0.097l0.078,0.099l0.079,0.099l0.081,0.099l0.082,0.101l0.082,0.101l0.173,0.207l0.176,0.208l0.181,0.212l0.188,0.215l0.192,0.216l0.196,0.22l0.202,0.223l0.207,0.224l0.211,0.227l0.216,0.229l0.221,0.231l0.225,0.233l0.229,0.235l0.234,0.237l0.238,0.239l0.242,0.24l0.245,0.242l0.25,0.243l0.254,0.245l0.257,0.245l0.261,0.247l0.265,0.248l0.269,0.249l0.271,0.25l0.275,0.25l0.278,0.252l0.281,0.252l0.284,0.252l0.288,0.253l0.29,0.254l0.293,0.253l0.296,0.255l0.298,0.253l0.301,0.255l0.304,0.254l0.305,0.254l0.309,0.255l0.31,0.253l0.313,0.254l0.314,0.253l0.317,0.252l0.319,0.252l0.321,0.252l0.322,0.25l0.324,0.25l0.325,0.249l0.327,0.248l0.329,0.246l0.33,0.246l0.331,0.245l0.332,0.243l0.333,0.242l0.334,0.24l0.335,0.24l0.337,0.236l0.337,0.236l0.336,0.234l0.339,0.232l0.339,0.231l0.338,0.228l0.339,0.226l0.34,0.223l0.34,0.222l0.34,0.219l0.34,0.218l0.339,0.214l0.339,0.212l0.34,0.209l0.339,0.207l0.339,0.204l0.337,0.201l0.339,0.199l0.167,0.097l0.168,0.097l0.168,0.096l0.168,0.096l0.168,0.095l0.167,0.094l0.167,0.093l0.167,0.093l0.166,0.091l0.166,0.091l0.166,0.089l0.332,0.178l0.165,0.087l0.164,0.086l0.164,0.086l0.164,0.084l0.164,0.084l0.163,0.082l0.163,0.082l0.162,0.081l0.162,0.079l0.162,0.079l0.161,0.078l0.161,0.077l0.16,0.076l0.16,0.075l0.317,0.147l0.158,0.072l0.158,0.07l0.156,0.07l0.157,0.068l0.155,0.068l0.156,0.067l0.154,0.065l0.155,0.065l0.153,0.063l0.153,0.062l0.152,0.061l0.151,0.06l0.151,0.059l0.15,0.057l0.149,0.057l0.148,0.055l0.148,0.054l0.147,0.053l0.146,0.051l0.146,0.051l0.144,0.05l0.144,0.047l0.142,0.047l0.143,0.046l0.141,0.045l0.14,0.043l0.139,0.041l0.139,0.041l0.137,0.04l0.136,0.037l0.136,0.037l0.135,0.036l0.132,0.035l0.133,0.033l0.131,0.031l0.13,0.03l0.13,0.03l0.128,0.028l0.126,0.026l0.126,0.025l0.125,0.024l0.123,0.023l0.122,0.021l0.121,0.02l0.12,0.019l0.118,0.017l0.117,0.016l0.116,0.014l0.115,0.014l0.112,0.012l0.112,0.011l0.11,0.01l0.109,0.007l0.107,0.007l0.107,0.006l0.104,0.004l0.102,0.003l0.103,0.003l0.099,0.001l0.1,-0.001l0.102,-0.003l0.103,-0.003l0.104,-0.004l0.106,-0.006l0.108,-0.007l0.108,-0.007l0.111,-0.01l0.111,-0.011l0.114,-0.012l0.114,-0.014l0.116,-0.014l0.117,-0.016l0.118,-0.017l0.119,-0.019l0.121,-0.02l0.122,-0.021l0.124,-0.023l0.124,-0.024l0.126,-0.025l0.127,-0.026l0.128,-0.028l0.129,-0.03l0.13,-0.03l0.132,-0.031l0.132,-0.033l0.133,-0.035l0.135,-0.036l0.135,-0.037l0.137,-0.037l0.136,-0.04l0.139,-0.041l0.14,-0.041l0.139,-0.043l0.142,-0.045l0.142,-0.046l0.143,-0.047l0.143,-0.047l0.144,-0.05l0.146,-0.051l0.147,-0.051l0.146,-0.053l0.148,-0.054l0.148,-0.055l0.15,-0.057l0.15,-0.057l0.15,-0.059l0.152,-0.06l0.152,-0.061l0.152,-0.062l0.154,-0.063l0.154,-0.065l0.154,-0.065l0.156,-0.067l0.156,-0.068l0.156,-0.068l0.157,-0.07l0.157,-0.07l0.158,-0.072l0.159,-0.073l0.159,-0.074l0.16,-0.075l0.16,-0.076l0.16,-0.077l0.162,-0.078l0.161,-0.079l0.162,-0.079l0.163,-0.081l0.162,-0.082l0.164,-0.082l0.163,-0.084l0.164,-0.084l0.165,-0.086l0.164,-0.086l0.165,-0.087l0.166,-0.089l0.165,-0.089l0.166,-0.089l0.167,-0.091l0.166,-0.091l0.167,-0.093l0.167,-0.093l0.167,-0.094l0.168,-0.095l0.167,-0.096l0.168,-0.096l0.168,-0.097l0.168,-0.097l0.338,-0.199l0.338,-0.201l0.339,-0.204l0.339,-0.207l0.339,-0.209l0.339,-0.212l0.34,-0.214l0.34,-0.218l0.34,-0.219l0.34,-0.222l0.339,-0.223l0.339,-0.226l0.339,-0.228l0.339,-0.231l0.338,-0.232l0.337,-0.234l0.337,-0.235l0.336,-0.237l0.336,-0.24l0.334,-0.24l0.333,-0.242l0.332,-0.243l0.332,-0.245l0.329,-0.246l0.328,-0.246l0.327,-0.249l0.326,-0.248l0.324,-0.25l0.322,-0.25l0.321,-0.252l0.318,-0.252l0.317,-0.252l0.315,-0.253l0.312,-0.254l0.311,-0.253l0.308,-0.255l0.306,-0.254l0.303,-0.254l0.301,-0.255l0.299,-0.253l0.296,-0.255l0.293,-0.253l0.29,-0.254l0.287,-0.253l0.285,-0.252l0.281,-0.252l0.278,-0.252l0.275,-0.25l0.272,-0.25l0.267,-0.249l0.265,-0.248l0.261,-0.247l0.258,-0.245l0.253,-0.245l0.25,-0.243l0.246,-0.242l0.242,-0.24l0.238,-0.239l0.233,-0.237l0.23,-0.235l0.225,-0.233l0.22,-0.231l0.216,-0.229l0.211,-0.227l0.207,-0.225l0.202,-0.222l0.197,-0.22l0.192,-0.216l0.187,-0.215l0.181,-0.212l0.177,-0.208l0.173,-0.207l0.081,-0.101l0.083,-0.101l0.08,-0.099l0.08,-0.1l0.077,-0.098l0.077,-0.097l0.075,-0.096l0.074,-0.096l0.071,-0.094l0.071,-0.094l0.069,-0.092l0.068,-0.091l0.065,-0.091l0.065,-0.09l0.063,-0.088l0.061,-0.087l0.06,-0.086l0.058,-0.085l0.056,-0.084l0.056,-0.083l0.053,-0.081l0.051,-0.079l0.05,-0.079l0.047,-0.075l0.014,-0.023l0.011,-0.017l0.034,-0.06l0.037,-0.067l0.042,-0.079l0.045,-0.089l0.049,-0.099l0.052,-0.109l0.055,-0.118l0.058,-0.127l0.06,-0.136l0.062,-0.144l0.064,-0.153l0.067,-0.16l0.068,-0.169l0.07,-0.176l0.072,-0.183l0.073,-0.191l0.076,-0.198l0.076,-0.205l0.078,-0.212l0.079,-0.22l0.081,-0.226l0.081,-0.233l0.083,-0.239l0.084,-0.246l0.085,-0.252l0.085,-0.259l0.088,-0.265l0.087,-0.271l0.089,-0.277l0.09,-0.283l0.09,-0.29l0.091,-0.295l0.092,-0.301l0.092,-0.306l0.093,-0.313l0.093,-0.318l0.094,-0.323l0.094,-0.329l0.095,-0.335l0.095,-0.339l0.095,-0.345l0.096,-0.35l0.096,-0.356l0.096,-0.36l0.096,-0.365l0.096,-0.37l0.096,-0.375l0.097,-0.38l0.096,-0.384l0.097,-0.389l0.096,-0.393l0.096,-0.399l0.096,-0.402l0.096,-0.407l0.095,-0.411l0.095,-0.415l0.095,-0.42l0.094,-0.423l0.093,-0.428l0.094,-0.432l0.093,-0.435l0.092,-0.44l0.091,-0.443l0.091,-0.446l0.091,-0.451l0.09,-0.454l0.089,-0.458l0.088,-0.461l0.087,-0.464l0.086,-0.468l0.086,-0.471l0.084,-0.474l0.083,-0.477l0.082,-0.48l0.082,-0.483l0.08,-0.487l0.079,-0.489l0.078,-0.492l0.076,-0.494l0.075,-0.498l0.074,-0.499l0.073,-0.502l0.071,-0.505l0.069,-0.507l0.069,-0.51l0.066,-0.512l0.065,-0.513l0.063,-0.516l0.062,-0.518l0.06,-0.521l0.058,-0.522l0.057,-0.523l0.054,-0.526l0.053,-0.528l0.051,-0.529l0.048,-0.531l0.047,-0.532l0.046,-0.534l0.042,-0.535l0.041,-0.537l0.039,-0.539l0.018,-0.268l0.018,-0.27l0.018,-0.269l0.017,-0.271l0.016,-0.27l0.015,-0.271l0.016,-0.271l0.014,-0.271l0.014,-0.272l0.013,-0.272l0.013,-0.271l0.013,-0.272l0.011,-0.273l0.011,-0.273l0.01,-0.273l0.01,-0.273l0.009,-0.272l0.009,-0.273l0.008,-0.274l0.006,-0.273l0.007,-0.274l0.007,-0.274l0.005,-0.274l0.005,-0.274l0.003,-0.274l0.004,-0.275l0.002,-0.274l0.002,-0.274l0.001,-0.275l0.001,-0.274l0,-0.276l-0.001,-0.274l-0.002,-0.275l-0.002,-0.274l-0.003,-0.275l-0.003,-0.275l-0.005,-0.274l-0.005,-0.276l-0.005,-0.274l-0.007,-0.275l-0.007,-0.275l-0.008,-0.275l-0.009,-0.274l-0.01,-0.275l-0.01,-0.275l-0.011,-0.274l-0.012,-0.274l-0.013,-0.275l-0.013,-0.274l-0.014,-0.274l-0.015,-0.274l-0.016,-0.274l-0.016,-0.274l-0.018,-0.274l-0.018,-0.273l-0.019,-0.273l-0.02,-0.273l-0.02,-0.274l-0.021,-0.272l-0.023,-0.273l-0.023,-0.273l-0.024,-0.272l-0.024,-0.272l-0.026,-0.272l-0.026,-0.272l-0.028,-0.271l-0.028,-0.271l-0.029,-0.271l-0.03,-0.271l-0.031,-0.27l-0.031,-0.27l-0.033,-0.27l-0.033,-0.27l-0.035,-0.269l-0.034,-0.269l-0.037,-0.269l-0.037,-0.268l-0.037,-0.268l-0.04,-0.267l-0.039,-0.268l-0.041,-0.267l-0.042,-0.266l-0.042,-0.266l-0.043,-0.267l-0.045,-0.265l-0.045,-0.264l-0.047,-0.266l-0.047,-0.264l-0.048,-0.263l-0.05,-0.264l-0.05,-0.263l-0.051,-0.262l-0.051,-0.262l-0.054,-0.261l-0.053,-0.262l-0.056,-0.26l-0.056,-0.26l-0.057,-0.26l-0.058,-0.259l-0.059,-0.259l-0.06,-0.257l-0.061,-0.258l-0.062,-0.257l-0.064,-0.256l-0.064,-0.256l-0.064,-0.256l-0.067,-0.255l-0.067,-0.253l-0.068,-0.254l-0.07,-0.253l-0.07,-0.252l-0.072,-0.252l-0.072,-0.252l-0.073,-0.25l-0.075,-0.25l-0.076,-0.249l-0.076,-0.249l-0.078,-0.248l-0.079,-0.247l-0.08,-0.247l-0.082,-0.246l-0.081,-0.245l-0.084,-0.245l-0.084,-0.244l-0.086,-0.243l-0.086,-0.242l-0.088,-0.242l-0.089,-0.241l-0.089,-0.241l-0.092,-0.239l-0.092,-0.239l-0.093,-0.238l-0.095,-0.237l-0.096,-0.237l-0.096,-0.235l-0.098,-0.235l-0.1,-0.234l-0.1,-0.233l-0.101,-0.233l-0.102,-0.231l-0.104,-0.232l-0.105,-0.23l-0.106,-0.229l-0.107,-0.228l-0.109,-0.227l-0.109,-0.227l-0.111,-0.225l-0.112,-0.225l-0.114,-0.225l-0.114,-0.223l-0.115,-0.222l-0.118,-0.221l-0.118,-0.22l-0.119,-0.22l-0.12,-0.218l-0.122,-0.217l-0.123,-0.217l-0.124,-0.216l-0.126,-0.215l-0.126,-0.214l-0.128,-0.212l-0.13,-0.212l-0.13,-0.211l-0.132,-0.21l-0.132,-0.209l-0.135,-0.208l-0.135,-0.207l-0.137,-0.205l-0.138,-0.206l-0.139,-0.203l-0.142,-0.203l-0.141,-0.202l-0.143,-0.2l-0.145,-0.2l-0.146,-0.199l-0.147,-0.198l-0.148,-0.196l-0.151,-0.196l-0.151,-0.194l-0.152,-0.194l-0.154,-0.192l-0.155,-0.191l-0.156,-0.191l-0.158,-0.189l-0.16,-0.188l-0.16,-0.186l-0.162,-0.185l-0.164,-0.185l-0.165,-0.184l-0.166,-0.182l-0.168,-0.181l-0.169,-0.181l-0.17,-0.178l-0.171,-0.178l-0.174,-0.176l-0.174,-0.175l-0.177,-0.175l-0.177,-0.173l-0.179,-0.172l-0.18,-0.171l-0.182,-0.169l-0.183,-0.168l-0.185,-0.168l-0.186,-0.166l-0.188,-0.165l-0.189,-0.163l-0.191,-0.162l-0.192,-0.161l-0.194,-0.16l-0.195,-0.159l-0.197,-0.157l-0.198,-0.156l-0.2,-0.155l-0.202,-0.153l-0.202,-0.152l-0.205,-0.151l-0.206,-0.15l-0.207,-0.149l-0.21,-0.147l-0.21,-0.146l-0.212,-0.144l-0.215,-0.143l-0.215,-0.142l-0.217,-0.14l-0.219,-0.14l-0.221,-0.138l-0.222,-0.137l-0.224,-0.134l-0.225,-0.135l-0.227,-0.132l-0.228,-0.131l-0.231,-0.13l-0.232,-0.128l-0.234,-0.127l-0.236,-0.126l-0.237,-0.124l-0.239,-0.123l-0.241,-0.121l-0.242,-0.12l-0.244,-0.119l-0.246,-0.117l-0.248,-0.116l-0.249,-0.114l-0.251,-0.112l-0.253,-0.111l-0.256,-0.11l-0.256,-0.109l-0.259,-0.106l-0.26,-0.106l-0.262,-0.103l-0.263,-0.103l-0.266,-0.101l-0.268,-0.098l-0.269,-0.098l-0.272,-0.096l-0.273,-0.095l-0.275,-0.093l-0.277,-0.091l-0.279,-0.09l-0.281,-0.088l-0.282,-0.086l-0.284,-0.086l-0.287,-0.083l-0.289,-0.082l-0.289,-0.08l-0.293,-0.078l-0.294,-0.077l-0.296,-0.075l-0.299,-0.074l-0.3,-0.072l-0.302,-0.07l-0.304,-0.068l-0.306,-0.067l-0.308,-0.065l-0.31,-0.063l-0.312,-0.062l-0.315,-0.06l-0.316,-0.058l-0.318,-0.056l-0.32,-0.054l-0.323,-0.053l-0.323,-0.051l-0.327,-0.049l-0.328,-0.047l-0.331,-0.046l-0.332,-0.043l-0.335,-0.042l-0.337,-0.04l-0.339,-0.038l-0.341,-0.037l-0.343,-0.034l-0.345,-0.032l-0.348,-0.031l-0.349,-0.028l-0.352,-0.027l-0.354,-0.025l-0.355,-0.023l-0.358,-0.021l-0.36,-0.019l-0.362,-0.017l-0.365,-0.015l-0.367,-0.013l-0.369,-0.011l-0.371,-0.01l-0.373,-0.007l-0.375,-0.004l-0.378,-0.003l-0.38,-0.002l-0.379,0.002Z" style="fill:#fff;"/><rect x="119.725" y="187.636" width="9.826" height="0.953" style="fill:#e6f9fe;"/></g></g></svg>