<?xml version="1.0" encoding="UTF-8" standalone="no"?><!DOCTYPE svg PUBLIC "-//W3C//DTD SVG 1.1//EN" "http://www.w3.org/Graphics/SVG/1.1/DTD/svg11.dtd"><svg width="100%" height="100%" viewBox="0 0 335 356" version="1.1" xmlns="http://www.w3.org/2000/svg" xmlns:xlink="http://www.w3.org/1999/xlink" xml:space="preserve" xmlns:serif="http://www.serif.com/" style="fill-rule:evenodd;clip-rule:evenodd;stroke-linejoin:round;stroke-miterlimit:1.41421;"><rect x="0" y="0" width="334.975" height="346.45" style="fill:#929292;"/><g><clipPath id="_clip1"><rect x="27.849" y="41.41" width="277.846" height="283.008"/></clipPath><g clip-path="url(#_clip1)"><path d="M141.06,211.184c-58.428,25.707 -75.956,39.408 -82.887,45.564c-10.679,9.479 -16.581,44.824 -22.88,74.828l264.388,0c-6.299,-30.004 -12.206,-65.349 -22.88,-74.828c-6.924,-6.156 -23.809,-19.505 -82.243,-45.212l-53.498,-0.352Z" style="fill:#b3bcb1;"/><path d="M141.06,211.184c-58.428,25.707 -75.956,39.408 -82.887,45.564c-10.679,9.479 -16.581,44.824 -22.88,74.828l264.388,0c-6.293,-30.004 -12.206,-65.349 -22.88,-74.828c-6.924,-6.156 -23.809,-19.505 -82.243,-45.212l-53.498,-0.352Z" style="fill:#b8b8b8;"/><path d="M195.808,205.696l2.474,1.09l1.354,0.599l1.339,0.594l1.324,0.59l1.31,0.586l1.294,0.581l1.28,0.577l1.266,0.572l1.251,0.568l1.237,0.564l1.223,0.56l1.208,0.555l1.194,0.55l1.181,0.547l1.166,0.542l1.153,0.538l1.139,0.534l1.126,0.529l1.111,0.525l1.099,0.522l1.085,0.517l1.072,0.512l1.059,0.509l1.046,0.504l1.032,0.501l1.02,0.496l1.008,0.492l0.994,0.488l0.982,0.484l0.969,0.48l0.957,0.476l0.945,0.472l0.932,0.469l0.92,0.464l0.908,0.46l0.896,0.456l0.885,0.452l0.872,0.448l0.861,0.445l0.85,0.441l0.837,0.436l0.827,0.433l0.815,0.429l0.804,0.425l0.792,0.422l0.782,0.418l0.77,0.413l0.76,0.411l0.749,0.406l0.739,0.403l0.727,0.399l0.717,0.395l0.707,0.392l0.697,0.388l0.686,0.384l0.676,0.381l0.666,0.377l0.657,0.374l0.646,0.37l0.636,0.366l0.627,0.363l0.617,0.36l0.608,0.356l0.598,0.352l0.589,0.349l0.58,0.345l0.57,0.342l0.562,0.339l0.553,0.335l0.544,0.332l0.535,0.329l0.526,0.325l0.517,0.321l0.51,0.319l0.501,0.315l0.492,0.312l0.484,0.309l0.476,0.305l0.468,0.302l0.46,0.299l0.452,0.295l0.444,0.293l0.437,0.289l0.429,0.286l0.421,0.283l0.414,0.279l0.406,0.277l0.4,0.273l0.392,0.271l0.385,0.267l0.378,0.264l0.371,0.261l0.364,0.258l0.358,0.255l0.35,0.252l0.345,0.249l0.337,0.246l0.332,0.243l0.324,0.24l0.319,0.237l0.313,0.234l0.306,0.231l0.3,0.229l0.295,0.225l0.288,0.222l0.283,0.219l0.277,0.217l0.272,0.213l0.266,0.211l0.26,0.208l0.255,0.204l0.25,0.202l0.244,0.199l0.239,0.196l0.235,0.193l0.229,0.19l0.224,0.187l0.219,0.184l0.215,0.182l0.213,0.181l0.401,0.345l0.387,0.335l0.369,0.324l0.359,0.318l0.168,0.151l0.177,0.163l0.174,0.163l0.171,0.166l0.171,0.169l0.168,0.169l0.166,0.172l0.165,0.173l0.163,0.176l0.16,0.176l0.16,0.18l0.158,0.18l0.156,0.183l0.155,0.184l0.153,0.185l0.152,0.188l0.15,0.189l0.148,0.19l0.148,0.193l0.147,0.194l0.144,0.196l0.144,0.197l0.142,0.198l0.142,0.201l0.14,0.202l0.138,0.203l0.138,0.205l0.137,0.207l0.135,0.208l0.134,0.208l0.134,0.212l0.133,0.213l0.131,0.214l0.131,0.215l0.129,0.217l0.129,0.219l0.128,0.22l0.127,0.222l0.126,0.223l0.125,0.224l0.125,0.226l0.123,0.227l0.123,0.23l0.122,0.23l0.122,0.232l0.12,0.233l0.12,0.235l0.119,0.236l0.119,0.238l0.117,0.238l0.117,0.241l0.117,0.242l0.116,0.243l0.115,0.245l0.115,0.246l0.113,0.247l0.114,0.25l0.112,0.249l0.113,0.252l0.111,0.253l0.111,0.254l0.111,0.256l0.11,0.258l0.109,0.258l0.109,0.26l0.108,0.261l0.108,0.262l0.107,0.264l0.107,0.265l0.106,0.267l0.106,0.268l0.106,0.269l0.104,0.27l0.105,0.272l0.104,0.273l0.103,0.274l0.103,0.276l0.103,0.277l0.102,0.278l0.102,0.279l0.101,0.28l0.103,0.286l0.199,0.564l0.199,0.572l0.198,0.577l0.196,0.581l0.194,0.587l0.194,0.591l0.191,0.595l0.191,0.6l0.188,0.604l0.188,0.609l0.187,0.613l0.185,0.617l0.184,0.622l0.182,0.625l0.182,0.629l0.18,0.633l0.179,0.637l0.179,0.641l0.177,0.645l0.176,0.648l0.175,0.652l0.174,0.655l0.173,0.658l0.172,0.662l0.171,0.665l0.17,0.668l0.169,0.672l0.169,0.674l0.167,0.677l0.167,0.68l0.166,0.683l0.165,0.685l0.164,0.688l0.164,0.691l0.163,0.693l0.162,0.695l0.161,0.697l0.161,0.7l0.16,0.702l0.159,0.704l0.159,0.706l0.158,0.707l0.158,0.709l0.157,0.711l0.156,0.713l0.156,0.714l0.155,0.716l0.155,0.716l0.155,0.72l0.306,1.438l0.306,1.443l0.303,1.447l0.302,1.449l0.301,1.451l0.299,1.453l0.298,1.453l0.297,1.452l0.297,1.452l0.589,2.896l0.588,2.886l0.293,1.436l0.293,1.43l0.293,1.425l0.293,1.418l0.292,1.41l1.767,8.452l-278.784,0l1.768,-8.453l0.293,-1.41l0.293,-1.418l0.293,-1.424l0.293,-1.431l0.293,-1.435l0.588,-2.886l0.59,-2.896l0.296,-1.452l0.297,-1.452l0.298,-1.453l0.3,-1.452l0.3,-1.451l0.302,-1.45l0.304,-1.446l0.305,-1.444l0.307,-1.438l0.154,-0.719l0.155,-0.717l0.155,-0.716l0.156,-0.714l0.156,-0.712l0.157,-0.711l0.157,-0.709l0.159,-0.708l0.158,-0.706l0.16,-0.703l0.16,-0.702l0.16,-0.7l0.162,-0.697l0.162,-0.696l0.162,-0.693l0.164,-0.69l0.164,-0.688l0.165,-0.686l0.166,-0.682l0.167,-0.68l0.167,-0.678l0.168,-0.674l0.17,-0.671l0.17,-0.668l0.171,-0.665l0.172,-0.662l0.173,-0.659l0.174,-0.655l0.175,-0.651l0.176,-0.649l0.177,-0.644l0.178,-0.641l0.179,-0.637l0.18,-0.633l0.182,-0.63l0.182,-0.625l0.184,-0.621l0.185,-0.618l0.187,-0.612l0.187,-0.609l0.189,-0.604l0.19,-0.601l0.192,-0.595l0.193,-0.591l0.195,-0.586l0.196,-0.582l0.197,-0.577l0.198,-0.569l0.101,-0.287l0.101,-0.283l0.101,-0.282l0.101,-0.281l0.102,-0.279l0.102,-0.278l0.103,-0.277l0.103,-0.275l0.103,-0.275l0.104,-0.273l0.105,-0.271l0.105,-0.271l0.105,-0.269l0.106,-0.268l0.106,-0.266l0.107,-0.266l0.107,-0.263l0.108,-0.263l0.108,-0.261l0.109,-0.26l0.11,-0.258l0.109,-0.257l0.111,-0.256l0.111,-0.255l0.112,-0.253l0.112,-0.252l0.112,-0.249l0.114,-0.249l0.114,-0.248l0.114,-0.246l0.115,-0.245l0.116,-0.243l0.117,-0.242l0.117,-0.241l0.118,-0.239l0.118,-0.237l0.119,-0.237l0.12,-0.234l0.121,-0.233l0.121,-0.232l0.122,-0.231l0.123,-0.229l0.124,-0.227l0.124,-0.226l0.125,-0.225l0.127,-0.223l0.126,-0.221l0.128,-0.22l0.129,-0.219l0.13,-0.217l0.131,-0.216l0.131,-0.214l0.133,-0.213l0.133,-0.211l0.134,-0.209l0.136,-0.208l0.137,-0.207l0.137,-0.205l0.139,-0.203l0.141,-0.202l0.141,-0.2l0.142,-0.199l0.144,-0.197l0.145,-0.196l0.146,-0.194l0.148,-0.192l0.148,-0.19l0.151,-0.19l0.152,-0.188l0.153,-0.185l0.155,-0.184l0.156,-0.182l0.158,-0.181l0.16,-0.18l0.16,-0.176l0.163,-0.175l0.165,-0.174l0.167,-0.172l0.167,-0.17l0.171,-0.168l0.172,-0.166l0.174,-0.164l0.176,-0.162l0.169,-0.152l0.362,-0.32l0.373,-0.326l0.387,-0.335l0.206,-0.176l0.207,-0.177l0.212,-0.18l0.217,-0.182l0.222,-0.186l0.228,-0.189l0.232,-0.192l0.237,-0.195l0.243,-0.197l0.248,-0.201l0.253,-0.204l0.259,-0.206l0.264,-0.21l0.27,-0.213l0.276,-0.216l0.281,-0.218l0.287,-0.222l0.293,-0.224l0.299,-0.228l0.306,-0.231l0.311,-0.233l0.318,-0.237l0.323,-0.239l0.33,-0.243l0.337,-0.246l0.343,-0.249l0.35,-0.252l0.356,-0.255l0.363,-0.258l0.371,-0.261l0.376,-0.264l0.385,-0.268l0.391,-0.27l0.398,-0.274l0.405,-0.276l0.414,-0.281l0.42,-0.283l0.428,-0.286l0.436,-0.29l0.443,-0.292l0.451,-0.296l0.458,-0.299l0.467,-0.303l0.475,-0.306l0.483,-0.309l0.491,-0.312l0.5,-0.316l0.508,-0.319l0.516,-0.322l0.525,-0.326l0.533,-0.329l0.542,-0.332l0.552,-0.336l0.559,-0.339l0.569,-0.343l0.578,-0.346l0.587,-0.349l0.597,-0.353l0.605,-0.357l0.615,-0.359l0.625,-0.364l0.634,-0.367l0.644,-0.37l0.653,-0.374l0.664,-0.378l0.673,-0.381l0.684,-0.385l0.693,-0.388l0.704,-0.392l0.714,-0.396l0.724,-0.399l0.735,-0.403l0.745,-0.406l0.756,-0.411l0.767,-0.414l0.777,-0.417l0.789,-0.422l0.799,-0.425l0.811,-0.429l0.821,-0.432l0.833,-0.437l0.844,-0.44l0.856,-0.444l0.867,-0.448l0.879,-0.452l0.89,-0.455l0.902,-0.46l0.914,-0.463l0.926,-0.468l0.938,-0.471l0.95,-0.475l0.962,-0.479l0.975,-0.483l0.987,-0.487l0.999,-0.491l1.012,-0.494l1.025,-0.499l1.038,-0.503l1.05,-0.507l1.063,-0.511l1.076,-0.515l1.089,-0.519l1.102,-0.524l1.116,-0.527l1.129,-0.532l1.142,-0.535l1.156,-0.54l1.17,-0.544l1.183,-0.548l1.197,-0.552l1.21,-0.556l1.225,-0.561l1.239,-0.565l1.253,-0.569l1.267,-0.573l1.282,-0.578l1.296,-0.582l1.31,-0.586l1.325,-0.591l1.339,-0.594l1.355,-0.6l2.511,-1.106l55.961,0.368Zm-53.747,11.439l-1.34,0.593l-1.325,0.588l-1.31,0.584l-1.295,0.579l-1.281,0.575l-1.266,0.571l-1.252,0.567l-1.238,0.562l-1.223,0.557l-1.209,0.554l-1.195,0.549l-1.181,0.545l-1.167,0.54l-1.153,0.537l-1.14,0.532l-1.125,0.528l-1.113,0.523l-1.098,0.52l-1.086,0.515l-1.072,0.511l-1.058,0.506l-1.046,0.503l-1.033,0.499l-1.019,0.494l-1.007,0.49l-0.994,0.486l-0.981,0.482l-0.968,0.478l-0.956,0.474l-0.944,0.469l-0.931,0.466l-0.919,0.461l-0.906,0.458l-0.895,0.453l-0.883,0.45l-0.87,0.445l-0.859,0.442l-0.847,0.437l-0.835,0.434l-0.823,0.429l-0.813,0.426l-0.8,0.422l-0.79,0.417l-0.778,0.414l-0.767,0.41l-0.755,0.406l-0.745,0.402l-0.734,0.399l-0.723,0.394l-0.713,0.391l-0.701,0.386l-0.691,0.383l-0.681,0.379l-0.671,0.376l-0.659,0.371l-0.65,0.368l-0.64,0.364l-0.629,0.36l-0.62,0.357l-0.609,0.353l-0.6,0.348l-0.591,0.346l-0.58,0.342l-0.571,0.337l-0.562,0.335l-0.552,0.33l-0.543,0.327l-0.534,0.324l-0.524,0.319l-0.516,0.317l-0.507,0.312l-0.497,0.309l-0.489,0.305l-0.481,0.302l-0.472,0.298l-0.463,0.295l-0.455,0.291l-0.447,0.288l-0.438,0.284l-0.431,0.28l-0.422,0.278l-0.414,0.273l-0.407,0.27l-0.398,0.267l-0.391,0.264l-0.383,0.259l-0.376,0.257l-0.369,0.253l-0.361,0.25l-0.354,0.246l-0.346,0.243l-0.34,0.24l-0.333,0.236l-0.325,0.233l-0.319,0.23l-0.313,0.226l-0.305,0.223l-0.299,0.22l-0.293,0.217l-0.287,0.214l-0.28,0.21l-0.274,0.207l-0.268,0.204l-0.262,0.201l-0.256,0.198l-0.251,0.194l-0.244,0.192l-0.24,0.188l-0.234,0.186l-0.228,0.182l-0.223,0.18l-0.218,0.176l-0.213,0.174l-0.208,0.17l-0.204,0.168l-0.198,0.165l-0.194,0.163l-0.19,0.159l-0.184,0.157l-0.181,0.153l-0.173,0.149l-0.345,0.298l-0.325,0.285l-0.304,0.268l-0.08,0.073l-0.073,0.066l-0.074,0.071l-0.076,0.072l-0.075,0.075l-0.078,0.079l-0.078,0.08l-0.079,0.083l-0.081,0.087l-0.081,0.09l-0.081,0.091l-0.083,0.094l-0.083,0.097l-0.084,0.101l-0.086,0.103l-0.085,0.105l-0.085,0.108l-0.087,0.111l-0.088,0.114l-0.087,0.116l-0.088,0.119l-0.089,0.122l-0.089,0.124l-0.09,0.127l-0.09,0.129l-0.09,0.133l-0.091,0.135l-0.09,0.137l-0.092,0.14l-0.091,0.143l-0.092,0.145l-0.092,0.148l-0.093,0.15l-0.092,0.152l-0.093,0.156l-0.093,0.157l-0.092,0.16l-0.094,0.163l-0.093,0.165l-0.093,0.167l-0.094,0.17l-0.093,0.172l-0.094,0.174l-0.093,0.177l-0.094,0.179l-0.094,0.181l-0.094,0.184l-0.093,0.185l-0.094,0.189l-0.094,0.19l-0.093,0.192l-0.094,0.195l-0.094,0.197l-0.094,0.199l-0.093,0.201l-0.093,0.202l-0.094,0.206l-0.093,0.207l-0.094,0.21l-0.093,0.211l-0.093,0.214l-0.093,0.215l-0.093,0.217l-0.093,0.22l-0.093,0.221l-0.092,0.223l-0.093,0.226l-0.092,0.227l-0.092,0.229l-0.092,0.231l-0.092,0.232l-0.092,0.235l-0.092,0.237l-0.092,0.238l-0.091,0.24l-0.091,0.242l-0.091,0.243l-0.091,0.246l-0.091,0.247l-0.091,0.249l-0.09,0.25l-0.091,0.253l-0.09,0.253l-0.089,0.253l-0.181,0.519l-0.178,0.523l-0.179,0.529l-0.177,0.535l-0.177,0.541l-0.176,0.547l-0.176,0.554l-0.174,0.559l-0.174,0.564l-0.174,0.57l-0.172,0.576l-0.172,0.581l-0.171,0.586l-0.171,0.592l-0.17,0.596l-0.169,0.602l-0.168,0.606l-0.168,0.611l-0.167,0.615l-0.167,0.62l-0.165,0.625l-0.166,0.629l-0.164,0.633l-0.164,0.637l-0.163,0.641l-0.163,0.645l-0.162,0.649l-0.161,0.652l-0.161,0.656l-0.16,0.66l-0.16,0.663l-0.159,0.667l-0.159,0.669l-0.158,0.673l-0.157,0.676l-0.157,0.679l-0.157,0.681l-0.156,0.685l-0.155,0.687l-0.155,0.689l-0.155,0.692l-0.154,0.695l-0.154,0.696l-0.153,0.699l-0.153,0.701l-0.152,0.703l-0.153,0.705l-0.151,0.705l-0.303,1.42l-0.301,1.425l-0.3,1.43l-0.299,1.434l-0.298,1.438l-0.297,1.442l-0.297,1.444l-0.295,1.446l-0.295,1.447l-0.59,2.895l-0.589,2.889l-0.294,1.441l-0.019,0.095l250.024,0l-0.019,-0.095l-0.295,-1.442l-0.588,-2.889l-0.589,-2.894l-0.295,-1.447l-0.296,-1.446l-0.296,-1.444l-0.297,-1.441l-0.298,-1.439l-0.299,-1.434l-0.3,-1.43l-0.302,-1.425l-0.303,-1.419l-0.151,-0.706l-0.152,-0.705l-0.153,-0.703l-0.153,-0.7l-0.153,-0.699l-0.154,-0.697l-0.154,-0.694l-0.155,-0.692l-0.155,-0.69l-0.155,-0.687l-0.156,-0.684l-0.157,-0.682l-0.157,-0.678l-0.158,-0.677l-0.158,-0.672l-0.158,-0.67l-0.16,-0.666l-0.159,-0.663l-0.161,-0.66l-0.16,-0.656l-0.162,-0.653l-0.162,-0.649l-0.163,-0.645l-0.163,-0.641l-0.164,-0.637l-0.164,-0.633l-0.166,-0.629l-0.165,-0.624l-0.167,-0.62l-0.167,-0.616l-0.168,-0.611l-0.169,-0.606l-0.169,-0.601l-0.17,-0.597l-0.17,-0.591l-0.172,-0.586l-0.172,-0.582l-0.172,-0.575l-0.174,-0.57l-0.174,-0.565l-0.174,-0.559l-0.176,-0.553l-0.176,-0.548l-0.177,-0.541l-0.178,-0.535l-0.178,-0.529l-0.179,-0.522l-0.179,-0.516l-0.182,-0.514l-0.089,-0.248l-0.091,-0.251l-0.09,-0.249l-0.091,-0.247l-0.091,-0.245l-0.091,-0.244l-0.092,-0.242l-0.091,-0.24l-0.092,-0.238l-0.091,-0.237l-0.092,-0.235l-0.092,-0.232l-0.092,-0.231l-0.093,-0.229l-0.092,-0.227l-0.093,-0.226l-0.092,-0.222l-0.093,-0.222l-0.093,-0.22l-0.093,-0.217l-0.093,-0.215l-0.093,-0.214l-0.093,-0.211l-0.093,-0.21l-0.094,-0.207l-0.093,-0.205l-0.094,-0.204l-0.093,-0.201l-0.094,-0.198l-0.094,-0.198l-0.093,-0.194l-0.094,-0.192l-0.094,-0.191l-0.094,-0.188l-0.093,-0.185l-0.094,-0.184l-0.094,-0.181l-0.094,-0.179l-0.093,-0.177l-0.094,-0.174l-0.093,-0.172l-0.094,-0.17l-0.093,-0.168l-0.093,-0.164l-0.093,-0.163l-0.093,-0.16l-0.093,-0.158l-0.093,-0.155l-0.092,-0.152l-0.093,-0.151l-0.092,-0.148l-0.091,-0.144l-0.092,-0.143l-0.092,-0.141l-0.09,-0.137l-0.091,-0.135l-0.091,-0.132l-0.089,-0.13l-0.089,-0.126l-0.09,-0.125l-0.088,-0.122l-0.089,-0.119l-0.087,-0.116l-0.087,-0.113l-0.087,-0.112l-0.086,-0.108l-0.085,-0.105l-0.086,-0.104l-0.083,-0.099l-0.084,-0.097l-0.083,-0.095l-0.081,-0.091l-0.081,-0.09l-0.08,-0.086l-0.079,-0.084l-0.079,-0.08l-0.077,-0.079l-0.076,-0.075l-0.075,-0.072l-0.075,-0.071l-0.072,-0.066l-0.081,-0.073l-0.305,-0.27l-0.326,-0.286l-0.34,-0.295l-0.359,-0.308l-0.18,-0.153l-0.187,-0.158l-0.192,-0.162l-0.197,-0.164l-0.2,-0.166l-0.205,-0.169l-0.211,-0.172l-0.215,-0.175l-0.219,-0.178l-0.225,-0.18l-0.23,-0.184l-0.236,-0.186l-0.24,-0.189l-0.246,-0.192l-0.252,-0.196l-0.258,-0.198l-0.263,-0.202l-0.269,-0.204l-0.275,-0.207l-0.281,-0.211l-0.287,-0.213l-0.294,-0.217l-0.3,-0.22l-0.306,-0.223l-0.313,-0.227l-0.32,-0.229l-0.326,-0.233l-0.333,-0.237l-0.34,-0.239l-0.348,-0.243l-0.354,-0.246l-0.362,-0.249l-0.369,-0.253l-0.376,-0.256l-0.384,-0.259l-0.392,-0.263l-0.399,-0.266l-0.407,-0.27l-0.415,-0.273l-0.423,-0.277l-0.431,-0.28l-0.439,-0.283l-0.448,-0.287l-0.456,-0.291l-0.464,-0.294l-0.473,-0.297l-0.481,-0.301l-0.491,-0.305l-0.499,-0.308l-0.507,-0.312l-0.518,-0.316l-0.526,-0.319l-0.534,-0.323l-0.545,-0.326l-0.554,-0.33l-0.563,-0.334l-0.573,-0.337l-0.583,-0.341l-0.592,-0.345l-0.602,-0.349l-0.612,-0.352l-0.622,-0.356l-0.631,-0.36l-0.642,-0.363l-0.653,-0.368l-0.663,-0.371l-0.673,-0.375l-0.684,-0.379l-0.694,-0.383l-0.705,-0.386l-0.716,-0.391l-0.727,-0.394l-0.737,-0.398l-0.749,-0.403l-0.76,-0.406l-0.771,-0.41l-0.783,-0.414l-0.794,-0.418l-0.805,-0.422l-0.817,-0.426l-0.829,-0.43l-0.841,-0.434l-0.852,-0.438l-0.865,-0.442l-0.876,-0.446l-0.889,-0.45l-0.901,-0.454l-0.913,-0.459l-0.925,-0.462l-0.939,-0.467l-0.95,-0.471l-0.963,-0.475l-0.977,-0.479l-0.989,-0.483l-1.002,-0.488l-1.015,-0.492l-1.028,-0.495l-1.041,-0.501l-1.055,-0.504l-1.068,-0.509l-1.081,-0.513l-1.095,-0.517l-1.109,-0.522l-1.123,-0.526l-1.136,-0.53l-1.151,-0.535l-1.164,-0.539l-1.178,-0.543l-1.193,-0.548l-1.207,-0.553l-1.221,-0.556l-1.236,-0.561l-1.25,-0.566l-1.265,-0.57l-1.28,-0.574l-1.295,-0.579l-1.309,-0.584l-1.325,-0.588l-1.34,-0.592l-0.249,-0.11l-51.034,-0.336l-0.213,0.094Z" style="fill:#fff;"/><path d="M139.119,159.94l0,64.998c15.604,18.513 41.133,19.182 56.737,0l0,-21.48l0,-43.518c0,-35.092 -56.737,-35.092 -56.737,0" style="fill:#b8b8b8;"/><path d="M168.151,49.145c-87.285,0 -53.831,119.976 -48.128,129.168c6.287,10.137 34.027,32.479 48.128,32.479c14.101,0 41.841,-22.342 48.129,-32.479c5.702,-9.192 39.156,-129.168 -48.129,-129.168" style="fill:#e2e2e2;"/><g><path d="M167.359,47.561c-87.285,0 -53.831,119.976 -48.128,129.168c6.287,10.137 34.027,32.479 48.128,32.479c14.101,0 41.842,-22.342 48.129,-32.479c5.702,-9.192 39.156,-129.168 -48.129,-129.168" style="fill:#b8b8b8;"/><path d="M167.359,47.561l0.008,-2.924l0.518,0.001l0.523,0.005l0.521,0.007l0.518,0.01l0.515,0.012l0.513,0.016l0.51,0.018l0.507,0.021l0.505,0.024l0.502,0.026l0.5,0.029l0.497,0.032l0.494,0.035l0.492,0.037l0.49,0.041l0.486,0.043l0.485,0.045l0.481,0.048l0.479,0.051l0.477,0.054l0.474,0.056l0.471,0.059l0.469,0.061l0.467,0.065l0.464,0.066l0.461,0.07l0.459,0.072l0.457,0.075l0.454,0.077l0.451,0.08l0.449,0.082l0.447,0.085l0.444,0.088l0.441,0.09l0.439,0.092l0.437,0.095l0.434,0.098l0.432,0.1l0.429,0.103l0.427,0.105l0.425,0.108l0.422,0.11l0.419,0.113l0.418,0.115l0.414,0.117l0.412,0.12l0.41,0.123l0.408,0.125l0.405,0.127l0.403,0.13l0.4,0.132l0.398,0.134l0.395,0.137l0.393,0.139l0.391,0.142l0.388,0.144l0.386,0.146l0.384,0.149l0.381,0.151l0.379,0.153l0.376,0.156l0.374,0.157l0.372,0.16l0.37,0.163l0.367,0.165l0.364,0.166l0.363,0.17l0.36,0.171l0.357,0.173l0.355,0.176l0.353,0.178l0.351,0.18l0.348,0.183l0.346,0.184l0.344,0.187l0.341,0.189l0.339,0.19l0.337,0.193l0.334,0.196l0.332,0.197l0.33,0.199l0.328,0.201l0.325,0.204l0.322,0.205l0.321,0.208l0.318,0.209l0.316,0.212l0.314,0.213l0.311,0.216l0.309,0.217l0.307,0.219l0.305,0.222l0.302,0.223l0.3,0.225l0.298,0.227l0.296,0.229l0.293,0.231l0.291,0.233l0.289,0.234l0.286,0.236l0.285,0.239l0.282,0.24l0.279,0.241l0.278,0.244l0.276,0.245l0.273,0.247l0.271,0.249l0.268,0.251l0.267,0.252l0.264,0.254l0.263,0.256l0.26,0.257l0.257,0.259l0.256,0.261l0.254,0.262l0.251,0.264l0.249,0.265l0.247,0.268l0.245,0.268l0.243,0.27l0.24,0.272l0.239,0.274l0.236,0.274l0.235,0.277l0.232,0.278l0.23,0.279l0.228,0.281l0.226,0.282l0.223,0.284l0.222,0.285l0.22,0.287l0.217,0.288l0.216,0.289l0.213,0.291l0.212,0.292l0.209,0.293l0.207,0.295l0.206,0.296l0.203,0.298l0.201,0.298l0.2,0.3l0.197,0.302l0.195,0.302l0.194,0.304l0.191,0.305l0.189,0.306l0.188,0.308l0.186,0.309l0.183,0.309l0.182,0.311l0.18,0.312l0.178,0.314l0.176,0.314l0.174,0.316l0.172,0.317l0.17,0.317l0.168,0.319l0.167,0.32l0.165,0.321l0.163,0.323l0.16,0.323l0.16,0.324l0.157,0.325l0.156,0.326l0.153,0.327l0.152,0.329l0.15,0.329l0.149,0.33l0.146,0.331l0.145,0.332l0.143,0.333l0.141,0.334l0.14,0.334l0.138,0.336l0.136,0.336l0.134,0.338l0.133,0.338l0.131,0.339l0.129,0.34l0.128,0.341l0.125,0.341l0.125,0.343l0.122,0.343l0.121,0.344l0.119,0.344l0.118,0.346l0.116,0.346l0.115,0.347l0.112,0.348l0.111,0.348l0.11,0.349l0.108,0.35l0.106,0.351l0.105,0.351l0.104,0.352l0.101,0.352l0.1,0.353l0.099,0.354l0.097,0.355l0.096,0.355l0.094,0.355l0.092,0.357l0.091,0.356l0.09,0.358l0.088,0.358l0.087,0.358l0.085,0.359l0.083,0.36l0.083,0.36l0.08,0.361l0.08,0.361l0.078,0.361l0.076,0.362l0.075,0.363l0.074,0.363l0.072,0.363l0.071,0.364l0.07,0.365l0.068,0.365l0.067,0.365l0.065,0.365l0.064,0.366l0.063,0.367l0.061,0.367l0.06,0.367l0.059,0.367l0.057,0.368l0.056,0.368l0.055,0.368l0.054,0.369l0.052,0.369l0.051,0.37l0.05,0.369l0.048,0.37l0.047,0.371l0.046,0.37l0.045,0.371l0.043,0.371l0.042,0.371l0.041,0.371l0.04,0.372l0.039,0.372l0.037,0.372l0.036,0.372l0.035,0.372l0.034,0.372l0.033,0.373l0.032,0.373l0.03,0.373l0.029,0.373l0.028,0.373l0.027,0.373l0.026,0.373l0.025,0.373l0.024,0.374l0.022,0.373l0.022,0.374l0.02,0.373l0.019,0.374l0.019,0.373l0.017,0.374l0.016,0.374l0.015,0.373l0.014,0.374l0.013,0.373l0.012,0.374l0.011,0.373l0.01,0.374l0.008,0.373l0.008,0.373l0.007,0.373l0.006,0.373l0.005,0.373l0.004,0.373l0.003,0.373l0.002,0.372l0.001,0.373l0,0.372l0,0.372l-0.002,0.372l-0.003,0.372l-0.003,0.371l-0.005,0.371l-0.005,0.371l-0.006,0.371l-0.008,0.371l-0.008,0.37l-0.008,0.37l-0.01,0.37l-0.011,0.37l-0.011,0.369l-0.013,0.369l-0.013,0.368l-0.014,0.369l-0.015,0.368l-0.015,0.367l-0.017,0.368l-0.017,0.366l-0.018,0.367l-0.019,0.366l-0.019,0.366l-0.021,0.365l-0.021,0.365l-0.022,0.365l-0.023,0.364l-0.023,0.364l-0.024,0.363l-0.025,0.364l-0.052,0.723l-0.055,0.722l-0.058,0.721l-0.06,0.718l-0.063,0.716l-0.066,0.713l-0.069,0.712l-0.071,0.709l-0.073,0.706l-0.076,0.704l-0.078,0.701l-0.081,0.698l-0.082,0.696l-0.085,0.693l-0.088,0.689l-0.089,0.687l-0.091,0.683l-0.093,0.681l-0.096,0.677l-0.097,0.673l-0.099,0.67l-0.101,0.667l-0.102,0.663l-0.104,0.659l-0.106,0.655l-0.107,0.652l-0.109,0.647l-0.111,0.644l-0.111,0.64l-0.113,0.635l-0.115,0.631l-0.115,0.626l-0.117,0.623l-0.118,0.618l-0.119,0.613l-0.12,0.608l-0.121,0.604l-0.122,0.599l-0.123,0.594l-0.124,0.589l-0.125,0.584l-0.125,0.579l-0.126,0.574l-0.126,0.568l-0.127,0.563l-0.128,0.557l-0.128,0.552l-0.128,0.547l-0.129,0.54l-0.129,0.535l-0.129,0.529l-0.13,0.523l-0.129,0.517l-0.13,0.512l-0.13,0.504l-0.13,0.499l-0.129,0.492l-0.13,0.486l-0.129,0.48l-0.13,0.472l-0.129,0.467l-0.128,0.459l-0.128,0.453l-0.128,0.446l-0.128,0.439l-0.126,0.432l-0.127,0.425l-0.125,0.418l-0.125,0.411l-0.125,0.403l-0.123,0.396l-0.123,0.389l-0.122,0.381l-0.121,0.374l-0.12,0.366l-0.119,0.358l-0.118,0.351l-0.117,0.343l-0.116,0.335l-0.115,0.327l-0.114,0.319l-0.112,0.312l-0.112,0.303l-0.11,0.295l-0.108,0.288l-0.108,0.279l-0.106,0.271l-0.105,0.264l-0.104,0.255l-0.102,0.247l-0.101,0.239l-0.1,0.232l-0.099,0.224l-0.098,0.216l-0.097,0.209l-0.097,0.202l-0.096,0.195l-0.096,0.189l-0.097,0.183l-0.098,0.179l-0.096,0.167l-0.055,0.092l-0.05,0.082l-0.088,0.141l-0.088,0.138l-0.09,0.14l-0.092,0.14l-0.094,0.14l-0.094,0.14l-0.097,0.141l-0.098,0.142l-0.1,0.142l-0.102,0.142l-0.103,0.144l-0.105,0.144l-0.107,0.144l-0.108,0.145l-0.11,0.146l-0.111,0.146l-0.114,0.147l-0.114,0.147l-0.116,0.148l-0.119,0.149l-0.119,0.149l-0.121,0.15l-0.122,0.151l-0.125,0.151l-0.125,0.151l-0.129,0.155l-0.257,0.304l-0.265,0.308l-0.271,0.311l-0.277,0.313l-0.283,0.316l-0.288,0.317l-0.294,0.32l-0.299,0.321l-0.305,0.324l-0.311,0.325l-0.315,0.327l-0.321,0.329l-0.326,0.331l-0.331,0.332l-0.336,0.333l-0.341,0.335l-0.346,0.337l-0.351,0.338l-0.355,0.339l-0.359,0.34l-0.364,0.341l-0.368,0.341l-0.373,0.343l-0.377,0.344l-0.381,0.344l-0.384,0.345l-0.389,0.345l-0.393,0.346l-0.396,0.346l-0.399,0.346l-0.404,0.346l-0.406,0.347l-0.41,0.346l-0.414,0.346l-0.416,0.346l-0.419,0.346l-0.423,0.345l-0.425,0.345l-0.428,0.344l-0.431,0.343l-0.433,0.343l-0.436,0.341l-0.438,0.341l-0.44,0.34l-0.443,0.338l-0.444,0.337l-0.447,0.336l-0.449,0.335l-0.45,0.332l-0.453,0.332l-0.454,0.329l-0.455,0.328l-0.457,0.325l-0.458,0.324l-0.46,0.321l-0.46,0.32l-0.462,0.317l-0.463,0.314l-0.464,0.312l-0.464,0.31l-0.465,0.307l-0.466,0.304l-0.467,0.301l-0.467,0.298l-0.467,0.295l-0.468,0.292l-0.467,0.289l-0.468,0.285l-0.468,0.282l-0.466,0.277l-0.236,0.139l-0.234,0.137l-0.233,0.136l-0.234,0.135l-0.234,0.134l-0.233,0.133l-0.234,0.132l-0.233,0.131l-0.233,0.13l-0.234,0.129l-0.233,0.128l-0.232,0.127l-0.233,0.126l-0.232,0.125l-0.233,0.124l-0.232,0.122l-0.232,0.122l-0.232,0.12l-0.231,0.12l-0.231,0.118l-0.232,0.117l-0.23,0.116l-0.231,0.114l-0.23,0.114l-0.23,0.112l-0.23,0.111l-0.229,0.11l-0.23,0.109l-0.228,0.107l-0.229,0.106l-0.228,0.105l-0.228,0.104l-0.228,0.102l-0.227,0.101l-0.227,0.1l-0.226,0.098l-0.226,0.097l-0.226,0.095l-0.226,0.095l-0.225,0.092l-0.224,0.092l-0.224,0.09l-0.224,0.088l-0.224,0.087l-0.223,0.086l-0.222,0.084l-0.222,0.083l-0.222,0.081l-0.221,0.08l-0.221,0.078l-0.221,0.076l-0.219,0.075l-0.22,0.074l-0.219,0.072l-0.218,0.07l-0.218,0.068l-0.218,0.068l-0.217,0.065l-0.217,0.063l-0.216,0.063l-0.216,0.06l-0.215,0.058l-0.215,0.057l-0.214,0.055l-0.214,0.054l-0.213,0.051l-0.213,0.05l-0.212,0.048l-0.211,0.046l-0.212,0.044l-0.211,0.042l-0.21,0.041l-0.21,0.038l-0.21,0.037l-0.209,0.034l-0.208,0.032l-0.207,0.031l-0.208,0.028l-0.207,0.027l-0.207,0.024l-0.205,0.022l-0.206,0.02l-0.205,0.017l-0.204,0.016l-0.205,0.013l-0.203,0.01l-0.203,0.009l-0.203,0.006l-0.202,0.004l-0.202,0.001l-0.202,-0.001l-0.201,-0.004l-0.203,-0.006l-0.203,-0.009l-0.204,-0.01l-0.204,-0.013l-0.204,-0.016l-0.206,-0.017l-0.205,-0.02l-0.206,-0.022l-0.206,-0.024l-0.207,-0.027l-0.208,-0.028l-0.208,-0.031l-0.208,-0.032l-0.209,-0.034l-0.209,-0.037l-0.21,-0.038l-0.21,-0.041l-0.211,-0.042l-0.212,-0.044l-0.211,-0.046l-0.212,-0.048l-0.213,-0.05l-0.213,-0.051l-0.214,-0.054l-0.215,-0.055l-0.215,-0.057l-0.214,-0.058l-0.216,-0.06l-0.217,-0.063l-0.216,-0.063l-0.217,-0.065l-0.218,-0.068l-0.218,-0.068l-0.218,-0.07l-0.22,-0.072l-0.219,-0.074l-0.22,-0.075l-0.22,-0.076l-0.221,-0.078l-0.221,-0.08l-0.222,-0.081l-0.222,-0.083l-0.223,-0.084l-0.223,-0.086l-0.223,-0.087l-0.224,-0.088l-0.224,-0.09l-0.225,-0.092l-0.225,-0.092l-0.225,-0.095l-0.226,-0.095l-0.226,-0.097l-0.226,-0.098l-0.227,-0.1l-0.228,-0.101l-0.228,-0.102l-0.227,-0.104l-0.228,-0.105l-0.229,-0.106l-0.229,-0.107l-0.229,-0.109l-0.23,-0.11l-0.229,-0.111l-0.23,-0.112l-0.231,-0.114l-0.23,-0.114l-0.231,-0.116l-0.231,-0.117l-0.231,-0.118l-0.232,-0.12l-0.232,-0.12l-0.231,-0.122l-0.232,-0.122l-0.233,-0.124l-0.232,-0.125l-0.233,-0.126l-0.233,-0.127l-0.233,-0.128l-0.233,-0.129l-0.233,-0.13l-0.234,-0.131l-0.233,-0.132l-0.233,-0.133l-0.234,-0.134l-0.234,-0.135l-0.234,-0.136l-0.233,-0.137l-0.236,-0.139l-0.466,-0.277l-0.468,-0.282l-0.468,-0.285l-0.468,-0.289l-0.467,-0.292l-0.468,-0.295l-0.467,-0.298l-0.466,-0.301l-0.466,-0.304l-0.465,-0.307l-0.465,-0.31l-0.463,-0.312l-0.463,-0.314l-0.462,-0.317l-0.461,-0.32l-0.459,-0.321l-0.458,-0.324l-0.457,-0.325l-0.456,-0.328l-0.454,-0.329l-0.452,-0.332l-0.45,-0.332l-0.449,-0.335l-0.447,-0.336l-0.445,-0.337l-0.442,-0.338l-0.44,-0.34l-0.439,-0.341l-0.435,-0.341l-0.434,-0.343l-0.43,-0.343l-0.428,-0.344l-0.425,-0.345l-0.423,-0.345l-0.419,-0.346l-0.417,-0.346l-0.413,-0.346l-0.41,-0.346l-0.407,-0.347l-0.403,-0.346l-0.4,-0.346l-0.396,-0.346l-0.392,-0.346l-0.389,-0.345l-0.385,-0.345l-0.381,-0.344l-0.376,-0.344l-0.373,-0.343l-0.368,-0.341l-0.364,-0.341l-0.36,-0.34l-0.355,-0.339l-0.35,-0.338l-0.346,-0.337l-0.341,-0.335l-0.336,-0.333l-0.331,-0.332l-0.326,-0.331l-0.321,-0.329l-0.316,-0.327l-0.31,-0.325l-0.305,-0.324l-0.3,-0.321l-0.294,-0.32l-0.288,-0.317l-0.282,-0.315l-0.277,-0.314l-0.271,-0.311l-0.265,-0.308l-0.257,-0.304l-0.129,-0.154l-0.126,-0.152l-0.124,-0.151l-0.122,-0.151l-0.121,-0.15l-0.12,-0.149l-0.118,-0.149l-0.116,-0.148l-0.115,-0.147l-0.113,-0.147l-0.111,-0.146l-0.11,-0.146l-0.109,-0.145l-0.106,-0.144l-0.105,-0.144l-0.103,-0.144l-0.102,-0.142l-0.1,-0.142l-0.098,-0.142l-0.097,-0.141l-0.095,-0.141l-0.093,-0.14l-0.092,-0.139l-0.09,-0.139l-0.088,-0.139l-0.088,-0.141l-0.05,-0.082l-0.055,-0.092l-0.096,-0.167l-0.098,-0.179l-0.097,-0.183l-0.096,-0.189l-0.097,-0.195l-0.096,-0.202l-0.097,-0.209l-0.098,-0.216l-0.099,-0.224l-0.1,-0.232l-0.101,-0.239l-0.103,-0.247l-0.104,-0.256l-0.104,-0.263l-0.107,-0.271l-0.107,-0.279l-0.109,-0.288l-0.11,-0.295l-0.111,-0.303l-0.113,-0.312l-0.113,-0.319l-0.115,-0.327l-0.116,-0.335l-0.117,-0.343l-0.118,-0.351l-0.119,-0.358l-0.12,-0.366l-0.121,-0.374l-0.122,-0.381l-0.123,-0.389l-0.124,-0.396l-0.124,-0.403l-0.125,-0.411l-0.126,-0.418l-0.126,-0.425l-0.127,-0.432l-0.127,-0.439l-0.128,-0.446l-0.128,-0.453l-0.129,-0.459l-0.129,-0.466l-0.129,-0.473l-0.129,-0.48l-0.13,-0.486l-0.13,-0.492l-0.129,-0.499l-0.13,-0.504l-0.13,-0.512l-0.13,-0.517l-0.129,-0.523l-0.129,-0.529l-0.129,-0.535l-0.129,-0.54l-0.129,-0.547l-0.128,-0.552l-0.127,-0.557l-0.127,-0.563l-0.127,-0.568l-0.126,-0.574l-0.125,-0.579l-0.124,-0.584l-0.124,-0.589l-0.123,-0.594l-0.122,-0.599l-0.121,-0.604l-0.12,-0.608l-0.119,-0.613l-0.118,-0.618l-0.117,-0.622l-0.116,-0.627l-0.114,-0.631l-0.113,-0.635l-0.112,-0.64l-0.11,-0.644l-0.109,-0.647l-0.107,-0.652l-0.106,-0.655l-0.104,-0.659l-0.103,-0.663l-0.101,-0.667l-0.098,-0.67l-0.098,-0.673l-0.095,-0.677l-0.093,-0.681l-0.092,-0.683l-0.089,-0.687l-0.087,-0.689l-0.085,-0.693l-0.083,-0.696l-0.08,-0.698l-0.078,-0.701l-0.076,-0.704l-0.074,-0.706l-0.071,-0.709l-0.068,-0.712l-0.066,-0.713l-0.063,-0.716l-0.06,-0.718l-0.058,-0.721l-0.055,-0.722l-0.052,-0.723l-0.025,-0.364l-0.024,-0.363l-0.024,-0.364l-0.022,-0.364l-0.022,-0.365l-0.021,-0.365l-0.021,-0.365l-0.02,-0.366l-0.018,-0.366l-0.018,-0.366l-0.018,-0.367l-0.016,-0.368l-0.016,-0.367l-0.015,-0.368l-0.014,-0.369l-0.013,-0.368l-0.012,-0.369l-0.012,-0.37l-0.01,-0.369l-0.01,-0.37l-0.009,-0.37l-0.008,-0.37l-0.007,-0.371l-0.006,-0.371l-0.006,-0.371l-0.004,-0.371l-0.004,-0.371l-0.002,-0.372l-0.002,-0.372l-0.001,-0.372l0,-0.372l0.002,-0.373l0.002,-0.372l0.003,-0.373l0.004,-0.373l0.004,-0.373l0.006,-0.373l0.007,-0.373l0.008,-0.373l0.009,-0.373l0.01,-0.374l0.011,-0.373l0.012,-0.374l0.013,-0.373l0.014,-0.374l0.015,-0.373l0.016,-0.374l0.017,-0.373l0.018,-0.374l0.02,-0.374l0.02,-0.373l0.021,-0.374l0.023,-0.373l0.024,-0.373l0.024,-0.374l0.026,-0.373l0.027,-0.373l0.028,-0.373l0.03,-0.373l0.03,-0.373l0.032,-0.373l0.032,-0.373l0.034,-0.372l0.035,-0.372l0.036,-0.372l0.038,-0.372l0.038,-0.372l0.04,-0.372l0.041,-0.371l0.042,-0.371l0.044,-0.371l0.045,-0.371l0.046,-0.37l0.047,-0.37l0.048,-0.37l0.05,-0.37l0.051,-0.37l0.052,-0.369l0.054,-0.368l0.054,-0.369l0.056,-0.368l0.058,-0.368l0.059,-0.367l0.06,-0.368l0.061,-0.366l0.063,-0.366l0.064,-0.367l0.065,-0.365l0.067,-0.365l0.068,-0.365l0.07,-0.365l0.07,-0.363l0.073,-0.364l0.073,-0.363l0.075,-0.363l0.077,-0.362l0.078,-0.361l0.079,-0.361l0.081,-0.361l0.082,-0.36l0.084,-0.36l0.085,-0.359l0.087,-0.358l0.088,-0.358l0.089,-0.358l0.091,-0.356l0.093,-0.357l0.094,-0.355l0.095,-0.355l0.098,-0.355l0.098,-0.354l0.1,-0.353l0.102,-0.352l0.103,-0.352l0.105,-0.351l0.107,-0.351l0.108,-0.35l0.109,-0.349l0.111,-0.348l0.113,-0.348l0.115,-0.347l0.116,-0.346l0.117,-0.346l0.119,-0.344l0.121,-0.344l0.123,-0.343l0.124,-0.343l0.126,-0.341l0.128,-0.341l0.129,-0.34l0.131,-0.339l0.132,-0.338l0.135,-0.338l0.136,-0.336l0.138,-0.336l0.139,-0.334l0.142,-0.334l0.143,-0.333l0.144,-0.332l0.147,-0.331l0.148,-0.33l0.15,-0.329l0.152,-0.329l0.154,-0.327l0.156,-0.326l0.157,-0.325l0.159,-0.324l0.161,-0.323l0.163,-0.323l0.165,-0.321l0.166,-0.32l0.169,-0.319l0.17,-0.317l0.172,-0.317l0.174,-0.316l0.176,-0.314l0.178,-0.313l0.18,-0.313l0.181,-0.311l0.184,-0.31l0.186,-0.308l0.187,-0.308l0.19,-0.306l0.191,-0.305l0.193,-0.304l0.196,-0.302l0.197,-0.302l0.199,-0.3l0.202,-0.298l0.203,-0.298l0.205,-0.296l0.208,-0.295l0.209,-0.293l0.212,-0.292l0.213,-0.291l0.215,-0.289l0.218,-0.288l0.22,-0.287l0.221,-0.285l0.224,-0.284l0.226,-0.282l0.228,-0.281l0.23,-0.279l0.232,-0.278l0.234,-0.277l0.237,-0.274l0.238,-0.274l0.241,-0.271l0.243,-0.271l0.244,-0.268l0.247,-0.267l0.25,-0.266l0.251,-0.264l0.254,-0.262l0.255,-0.261l0.258,-0.259l0.26,-0.257l0.262,-0.256l0.265,-0.254l0.266,-0.252l0.269,-0.251l0.271,-0.249l0.273,-0.247l0.276,-0.245l0.277,-0.244l0.28,-0.241l0.282,-0.24l0.284,-0.239l0.287,-0.236l0.289,-0.234l0.291,-0.233l0.293,-0.231l0.296,-0.229l0.297,-0.227l0.301,-0.225l0.302,-0.223l0.304,-0.222l0.307,-0.219l0.309,-0.217l0.312,-0.216l0.313,-0.213l0.316,-0.212l0.319,-0.209l0.32,-0.208l0.323,-0.205l0.325,-0.204l0.328,-0.201l0.329,-0.199l0.332,-0.197l0.335,-0.196l0.336,-0.193l0.339,-0.19l0.342,-0.189l0.343,-0.187l0.346,-0.184l0.349,-0.183l0.35,-0.18l0.353,-0.178l0.356,-0.176l0.357,-0.173l0.36,-0.171l0.362,-0.17l0.365,-0.166l0.367,-0.165l0.37,-0.163l0.371,-0.16l0.374,-0.157l0.377,-0.156l0.379,-0.153l0.381,-0.151l0.383,-0.149l0.386,-0.146l0.389,-0.144l0.39,-0.142l0.393,-0.139l0.396,-0.137l0.398,-0.134l0.4,-0.132l0.403,-0.13l0.405,-0.127l0.407,-0.125l0.41,-0.123l0.413,-0.12l0.414,-0.117l0.417,-0.115l0.42,-0.113l0.422,-0.11l0.424,-0.108l0.427,-0.105l0.43,-0.103l0.431,-0.1l0.434,-0.098l0.437,-0.095l0.439,-0.092l0.442,-0.09l0.444,-0.088l0.447,-0.085l0.448,-0.082l0.452,-0.08l0.454,-0.077l0.456,-0.075l0.459,-0.072l0.462,-0.07l0.464,-0.066l0.466,-0.065l0.469,-0.061l0.472,-0.059l0.474,-0.056l0.476,-0.054l0.48,-0.051l0.481,-0.048l0.484,-0.045l0.487,-0.043l0.49,-0.041l0.491,-0.037l0.495,-0.035l0.497,-0.032l0.499,-0.029l0.503,-0.026l0.505,-0.024l0.507,-0.021l0.51,-0.018l0.513,-0.016l0.515,-0.012l0.518,-0.01l0.52,-0.007l0.523,-0.005l0.518,-0.001l0.008,2.924Zm-0.494,2.926l-0.491,0.004l-0.489,0.007l-0.486,0.009l-0.483,0.012l-0.48,0.014l-0.477,0.017l-0.474,0.02l-0.472,0.022l-0.468,0.025l-0.466,0.027l-0.464,0.03l-0.46,0.032l-0.457,0.035l-0.455,0.037l-0.452,0.04l-0.45,0.042l-0.446,0.045l-0.444,0.047l-0.441,0.05l-0.438,0.052l-0.436,0.054l-0.433,0.057l-0.43,0.059l-0.427,0.062l-0.425,0.064l-0.422,0.066l-0.42,0.069l-0.416,0.07l-0.415,0.074l-0.411,0.075l-0.409,0.078l-0.406,0.08l-0.404,0.082l-0.401,0.085l-0.398,0.087l-0.396,0.089l-0.393,0.091l-0.391,0.093l-0.388,0.096l-0.385,0.098l-0.383,0.1l-0.38,0.102l-0.378,0.104l-0.376,0.107l-0.373,0.108l-0.37,0.111l-0.368,0.113l-0.365,0.114l-0.363,0.117l-0.36,0.119l-0.358,0.121l-0.356,0.123l-0.353,0.125l-0.351,0.127l-0.348,0.129l-0.346,0.132l-0.343,0.133l-0.341,0.135l-0.339,0.137l-0.336,0.139l-0.334,0.141l-0.332,0.142l-0.329,0.145l-0.327,0.147l-0.325,0.148l-0.322,0.151l-0.32,0.152l-0.318,0.154l-0.315,0.157l-0.314,0.158l-0.311,0.159l-0.308,0.162l-0.307,0.163l-0.304,0.166l-0.302,0.167l-0.3,0.169l-0.298,0.17l-0.296,0.173l-0.293,0.174l-0.291,0.176l-0.289,0.178l-0.287,0.179l-0.285,0.181l-0.283,0.183l-0.28,0.185l-0.279,0.186l-0.276,0.189l-0.274,0.189l-0.273,0.192l-0.27,0.193l-0.268,0.195l-0.266,0.196l-0.264,0.199l-0.262,0.199l-0.26,0.202l-0.258,0.203l-0.256,0.205l-0.255,0.206l-0.252,0.208l-0.25,0.21l-0.248,0.211l-0.246,0.212l-0.245,0.215l-0.242,0.216l-0.24,0.217l-0.239,0.219l-0.237,0.221l-0.234,0.222l-0.233,0.224l-0.231,0.225l-0.229,0.227l-0.228,0.228l-0.225,0.23l-0.224,0.231l-0.221,0.233l-0.22,0.234l-0.218,0.236l-0.217,0.237l-0.214,0.239l-0.213,0.24l-0.211,0.242l-0.209,0.243l-0.207,0.245l-0.205,0.246l-0.204,0.247l-0.202,0.249l-0.2,0.25l-0.199,0.252l-0.197,0.253l-0.195,0.254l-0.193,0.256l-0.191,0.257l-0.19,0.259l-0.188,0.26l-0.187,0.261l-0.185,0.263l-0.183,0.264l-0.181,0.265l-0.18,0.267l-0.178,0.268l-0.176,0.269l-0.175,0.271l-0.173,0.272l-0.171,0.273l-0.17,0.274l-0.168,0.276l-0.167,0.277l-0.165,0.278l-0.163,0.28l-0.162,0.28l-0.16,0.282l-0.158,0.284l-0.157,0.284l-0.155,0.285l-0.154,0.287l-0.152,0.288l-0.15,0.289l-0.149,0.291l-0.148,0.291l-0.145,0.293l-0.145,0.293l-0.142,0.295l-0.141,0.296l-0.14,0.297l-0.138,0.299l-0.137,0.299l-0.135,0.3l-0.133,0.302l-0.132,0.302l-0.13,0.304l-0.129,0.305l-0.128,0.305l-0.126,0.307l-0.124,0.308l-0.123,0.308l-0.122,0.31l-0.12,0.311l-0.118,0.312l-0.117,0.313l-0.116,0.313l-0.114,0.315l-0.113,0.315l-0.111,0.317l-0.11,0.317l-0.108,0.319l-0.107,0.319l-0.106,0.32l-0.104,0.321l-0.103,0.322l-0.101,0.323l-0.1,0.323l-0.098,0.325l-0.098,0.325l-0.095,0.326l-0.095,0.327l-0.093,0.328l-0.091,0.328l-0.09,0.329l-0.089,0.331l-0.088,0.33l-0.086,0.332l-0.085,0.332l-0.083,0.333l-0.082,0.334l-0.081,0.335l-0.079,0.335l-0.079,0.336l-0.076,0.336l-0.076,0.337l-0.074,0.338l-0.073,0.339l-0.072,0.339l-0.07,0.34l-0.069,0.34l-0.068,0.341l-0.067,0.341l-0.065,0.343l-0.064,0.342l-0.063,0.344l-0.061,0.343l-0.06,0.345l-0.059,0.345l-0.058,0.345l-0.057,0.346l-0.055,0.347l-0.054,0.347l-0.053,0.347l-0.052,0.348l-0.05,0.348l-0.05,0.349l-0.048,0.349l-0.047,0.35l-0.046,0.35l-0.044,0.35l-0.044,0.351l-0.042,0.351l-0.041,0.352l-0.041,0.351l-0.038,0.353l-0.038,0.352l-0.037,0.353l-0.035,0.353l-0.035,0.354l-0.033,0.354l-0.032,0.354l-0.031,0.354l-0.03,0.355l-0.029,0.355l-0.028,0.355l-0.027,0.355l-0.026,0.356l-0.024,0.356l-0.024,0.356l-0.022,0.356l-0.022,0.356l-0.02,0.357l-0.02,0.356l-0.018,0.357l-0.018,0.357l-0.016,0.357l-0.016,0.357l-0.014,0.358l-0.013,0.357l-0.013,0.357l-0.011,0.358l-0.011,0.357l-0.009,0.358l-0.009,0.358l-0.007,0.357l-0.007,0.358l-0.005,0.358l-0.005,0.357l-0.004,0.358l-0.003,0.358l-0.002,0.357l-0.001,0.358l0,0.357l0.001,0.357l0.001,0.358l0.003,0.357l0.003,0.357l0.005,0.357l0.005,0.357l0.006,0.357l0.007,0.356l0.007,0.356l0.009,0.357l0.009,0.356l0.011,0.356l0.011,0.355l0.011,0.356l0.013,0.355l0.014,0.355l0.014,0.355l0.015,0.354l0.016,0.354l0.016,0.354l0.018,0.354l0.018,0.353l0.019,0.353l0.02,0.353l0.02,0.352l0.021,0.352l0.022,0.352l0.023,0.352l0.023,0.35l0.024,0.349l0.051,0.702l0.053,0.698l0.056,0.697l0.058,0.695l0.061,0.692l0.064,0.691l0.066,0.689l0.069,0.686l0.071,0.685l0.073,0.681l0.076,0.68l0.078,0.677l0.08,0.674l0.083,0.672l0.084,0.669l0.087,0.666l0.089,0.663l0.09,0.66l0.093,0.657l0.094,0.653l0.096,0.651l0.098,0.647l0.099,0.643l0.101,0.64l0.103,0.637l0.104,0.633l0.106,0.629l0.107,0.625l0.109,0.621l0.11,0.617l0.111,0.613l0.112,0.608l0.113,0.605l0.115,0.6l0.116,0.595l0.116,0.591l0.118,0.586l0.118,0.582l0.12,0.577l0.12,0.571l0.121,0.567l0.121,0.562l0.122,0.557l0.123,0.551l0.123,0.546l0.124,0.541l0.124,0.535l0.124,0.529l0.125,0.524l0.125,0.518l0.125,0.512l0.126,0.507l0.125,0.5l0.125,0.494l0.126,0.488l0.125,0.481l0.125,0.476l0.125,0.468l0.125,0.463l0.125,0.455l0.124,0.449l0.124,0.442l0.123,0.435l0.123,0.428l0.122,0.422l0.121,0.413l0.121,0.407l0.12,0.399l0.119,0.392l0.119,0.384l0.117,0.377l0.117,0.368l0.115,0.361l0.114,0.353l0.113,0.345l0.112,0.336l0.111,0.329l0.109,0.32l0.108,0.311l0.106,0.303l0.105,0.294l0.103,0.285l0.101,0.277l0.1,0.267l0.097,0.258l0.096,0.248l0.093,0.239l0.092,0.229l0.089,0.219l0.086,0.209l0.084,0.198l0.081,0.188l0.078,0.177l0.075,0.165l0.072,0.154l0.068,0.142l0.063,0.129l0.059,0.116l0.055,0.103l0.048,0.087l0.045,0.079l0.013,0.022l0.018,0.029l0.061,0.098l0.065,0.102l0.067,0.104l0.069,0.105l0.072,0.108l0.074,0.109l0.075,0.11l0.078,0.112l0.08,0.114l0.082,0.115l0.084,0.116l0.086,0.118l0.088,0.119l0.089,0.12l0.092,0.122l0.094,0.123l0.096,0.124l0.097,0.126l0.1,0.127l0.101,0.127l0.103,0.129l0.105,0.13l0.107,0.131l0.109,0.133l0.11,0.133l0.11,0.132l0.232,0.274l0.236,0.275l0.244,0.279l0.249,0.283l0.257,0.286l0.262,0.289l0.269,0.292l0.275,0.296l0.282,0.298l0.287,0.301l0.292,0.303l0.299,0.306l0.304,0.308l0.31,0.311l0.314,0.313l0.32,0.314l0.326,0.316l0.33,0.319l0.335,0.319l0.339,0.322l0.345,0.322l0.349,0.324l0.353,0.325l0.358,0.327l0.362,0.327l0.366,0.328l0.37,0.328l0.374,0.33l0.377,0.33l0.382,0.33l0.385,0.331l0.388,0.33l0.392,0.331l0.395,0.331l0.398,0.331l0.401,0.331l0.404,0.33l0.407,0.33l0.41,0.329l0.412,0.329l0.415,0.328l0.417,0.327l0.419,0.326l0.422,0.325l0.424,0.324l0.425,0.323l0.428,0.321l0.429,0.32l0.431,0.318l0.432,0.316l0.434,0.315l0.435,0.313l0.436,0.311l0.437,0.309l0.439,0.307l0.439,0.304l0.44,0.302l0.44,0.3l0.442,0.297l0.441,0.294l0.442,0.291l0.442,0.289l0.443,0.285l0.442,0.283l0.442,0.279l0.442,0.276l0.441,0.272l0.441,0.269l0.441,0.266l0.441,0.262l0.218,0.129l0.22,0.128l0.219,0.128l0.219,0.126l0.218,0.125l0.219,0.125l0.218,0.123l0.218,0.122l0.217,0.122l0.217,0.12l0.217,0.119l0.216,0.118l0.216,0.117l0.216,0.116l0.215,0.114l0.215,0.114l0.214,0.112l0.214,0.111l0.214,0.11l0.212,0.109l0.213,0.108l0.211,0.106l0.212,0.105l0.211,0.104l0.21,0.103l0.21,0.101l0.209,0.1l0.208,0.099l0.208,0.098l0.207,0.096l0.206,0.095l0.206,0.093l0.205,0.092l0.204,0.091l0.204,0.089l0.203,0.088l0.202,0.087l0.201,0.085l0.2,0.084l0.2,0.082l0.199,0.081l0.198,0.079l0.197,0.078l0.196,0.077l0.195,0.075l0.194,0.073l0.193,0.072l0.193,0.07l0.191,0.069l0.19,0.067l0.189,0.066l0.188,0.064l0.188,0.063l0.185,0.061l0.185,0.059l0.184,0.058l0.182,0.056l0.181,0.055l0.181,0.053l0.178,0.051l0.178,0.05l0.176,0.048l0.175,0.046l0.174,0.045l0.172,0.043l0.171,0.041l0.169,0.039l0.168,0.038l0.167,0.037l0.165,0.034l0.163,0.033l0.163,0.031l0.16,0.029l0.159,0.028l0.157,0.026l0.156,0.024l0.155,0.023l0.151,0.021l0.151,0.019l0.149,0.017l0.147,0.016l0.146,0.014l0.142,0.012l0.143,0.011l0.139,0.009l0.138,0.007l0.136,0.006l0.134,0.004l0.132,0.002l0.13,0.001l0.13,-0.001l0.133,-0.002l0.133,-0.004l0.136,-0.006l0.138,-0.007l0.14,-0.009l0.142,-0.011l0.143,-0.012l0.145,-0.014l0.148,-0.016l0.149,-0.017l0.15,-0.019l0.152,-0.021l0.154,-0.023l0.157,-0.024l0.157,-0.026l0.158,-0.028l0.161,-0.029l0.162,-0.031l0.164,-0.033l0.164,-0.034l0.167,-0.037l0.169,-0.038l0.169,-0.039l0.171,-0.041l0.172,-0.043l0.173,-0.045l0.175,-0.046l0.177,-0.048l0.178,-0.05l0.178,-0.051l0.18,-0.053l0.182,-0.055l0.182,-0.056l0.184,-0.058l0.185,-0.059l0.185,-0.061l0.187,-0.063l0.189,-0.064l0.189,-0.066l0.19,-0.067l0.191,-0.069l0.192,-0.07l0.194,-0.072l0.194,-0.073l0.195,-0.075l0.196,-0.077l0.197,-0.078l0.198,-0.079l0.199,-0.081l0.199,-0.082l0.201,-0.084l0.201,-0.085l0.202,-0.087l0.203,-0.088l0.204,-0.089l0.204,-0.091l0.205,-0.092l0.205,-0.093l0.207,-0.095l0.207,-0.096l0.208,-0.098l0.208,-0.099l0.209,-0.1l0.21,-0.101l0.21,-0.103l0.211,-0.104l0.211,-0.105l0.212,-0.106l0.212,-0.108l0.213,-0.109l0.214,-0.11l0.213,-0.111l0.215,-0.112l0.215,-0.114l0.215,-0.114l0.216,-0.116l0.215,-0.117l0.217,-0.118l0.217,-0.119l0.217,-0.12l0.217,-0.122l0.218,-0.122l0.218,-0.123l0.218,-0.125l0.219,-0.125l0.219,-0.126l0.219,-0.128l0.219,-0.128l0.218,-0.129l0.442,-0.262l0.44,-0.266l0.441,-0.269l0.442,-0.272l0.442,-0.276l0.442,-0.279l0.442,-0.283l0.442,-0.285l0.443,-0.289l0.442,-0.291l0.441,-0.294l0.441,-0.297l0.441,-0.3l0.44,-0.302l0.439,-0.304l0.438,-0.307l0.438,-0.309l0.436,-0.311l0.435,-0.313l0.434,-0.315l0.432,-0.316l0.431,-0.318l0.429,-0.32l0.427,-0.321l0.426,-0.323l0.424,-0.324l0.421,-0.325l0.42,-0.326l0.417,-0.327l0.414,-0.328l0.413,-0.329l0.409,-0.329l0.407,-0.33l0.404,-0.33l0.401,-0.331l0.399,-0.331l0.395,-0.331l0.391,-0.33l0.389,-0.331l0.385,-0.331l0.381,-0.33l0.378,-0.33l0.374,-0.33l0.37,-0.328l0.366,-0.328l0.362,-0.327l0.357,-0.327l0.354,-0.325l0.349,-0.324l0.344,-0.322l0.34,-0.322l0.335,-0.319l0.33,-0.319l0.325,-0.316l0.32,-0.315l0.315,-0.312l0.31,-0.311l0.304,-0.308l0.298,-0.306l0.293,-0.303l0.287,-0.301l0.281,-0.298l0.275,-0.296l0.269,-0.292l0.263,-0.289l0.256,-0.286l0.25,-0.283l0.243,-0.279l0.237,-0.275l0.231,-0.274l0.111,-0.132l0.11,-0.134l0.109,-0.132l0.106,-0.131l0.106,-0.13l0.103,-0.129l0.101,-0.127l0.1,-0.127l0.097,-0.126l0.096,-0.124l0.094,-0.123l0.091,-0.122l0.09,-0.12l0.088,-0.119l0.086,-0.118l0.084,-0.116l0.082,-0.115l0.08,-0.114l0.078,-0.112l0.075,-0.11l0.074,-0.109l0.071,-0.108l0.07,-0.105l0.067,-0.104l0.065,-0.102l0.061,-0.098l0.017,-0.029l0.014,-0.023l0.045,-0.078l0.048,-0.087l0.054,-0.103l0.059,-0.116l0.064,-0.129l0.068,-0.142l0.071,-0.154l0.075,-0.165l0.079,-0.177l0.081,-0.188l0.084,-0.198l0.086,-0.209l0.089,-0.219l0.091,-0.229l0.094,-0.239l0.095,-0.248l0.098,-0.258l0.099,-0.267l0.102,-0.277l0.103,-0.285l0.104,-0.294l0.107,-0.303l0.107,-0.311l0.11,-0.32l0.11,-0.329l0.112,-0.336l0.113,-0.345l0.115,-0.353l0.115,-0.361l0.116,-0.369l0.118,-0.376l0.118,-0.384l0.12,-0.392l0.12,-0.399l0.12,-0.407l0.122,-0.413l0.122,-0.422l0.123,-0.428l0.123,-0.435l0.124,-0.442l0.124,-0.449l0.124,-0.455l0.125,-0.463l0.125,-0.468l0.125,-0.476l0.126,-0.481l0.125,-0.488l0.126,-0.494l0.125,-0.5l0.125,-0.507l0.126,-0.512l0.125,-0.518l0.124,-0.524l0.125,-0.529l0.124,-0.535l0.124,-0.541l0.123,-0.546l0.122,-0.551l0.123,-0.557l0.121,-0.562l0.121,-0.567l0.12,-0.571l0.119,-0.577l0.119,-0.582l0.117,-0.586l0.117,-0.591l0.116,-0.595l0.114,-0.6l0.114,-0.605l0.112,-0.608l0.111,-0.613l0.11,-0.617l0.108,-0.621l0.108,-0.625l0.105,-0.629l0.105,-0.633l0.102,-0.637l0.101,-0.64l0.1,-0.643l0.098,-0.647l0.096,-0.651l0.094,-0.653l0.093,-0.657l0.09,-0.66l0.089,-0.663l0.086,-0.666l0.085,-0.669l0.082,-0.672l0.08,-0.674l0.079,-0.677l0.075,-0.68l0.074,-0.682l0.071,-0.684l0.069,-0.686l0.066,-0.689l0.063,-0.691l0.062,-0.692l0.058,-0.695l0.056,-0.697l0.053,-0.698l0.05,-0.702l0.024,-0.349l0.024,-0.35l0.022,-0.352l0.022,-0.352l0.021,-0.352l0.021,-0.352l0.02,-0.353l0.019,-0.353l0.018,-0.353l0.017,-0.354l0.017,-0.354l0.016,-0.354l0.015,-0.354l0.014,-0.355l0.014,-0.355l0.012,-0.355l0.012,-0.356l0.011,-0.356l0.01,-0.355l0.01,-0.356l0.008,-0.357l0.008,-0.356l0.007,-0.357l0.006,-0.356l0.005,-0.357l0.004,-0.357l0.004,-0.357l0.002,-0.357l0.002,-0.358l0.001,-0.357l0,-0.357l-0.001,-0.358l-0.002,-0.358l-0.003,-0.357l-0.004,-0.358l-0.005,-0.357l-0.006,-0.358l-0.006,-0.358l-0.008,-0.357l-0.008,-0.358l-0.01,-0.358l-0.01,-0.357l-0.012,-0.358l-0.012,-0.357l-0.013,-0.357l-0.015,-0.358l-0.015,-0.357l-0.017,-0.357l-0.017,-0.357l-0.018,-0.357l-0.02,-0.356l-0.02,-0.357l-0.022,-0.356l-0.022,-0.356l-0.024,-0.356l-0.025,-0.356l-0.025,-0.356l-0.027,-0.355l-0.028,-0.355l-0.029,-0.355l-0.03,-0.355l-0.031,-0.354l-0.032,-0.354l-0.034,-0.354l-0.034,-0.353l-0.036,-0.354l-0.036,-0.353l-0.038,-0.352l-0.039,-0.353l-0.04,-0.352l-0.041,-0.351l-0.042,-0.351l-0.044,-0.351l-0.045,-0.35l-0.045,-0.35l-0.047,-0.35l-0.049,-0.349l-0.049,-0.349l-0.05,-0.348l-0.052,-0.348l-0.053,-0.348l-0.054,-0.346l-0.056,-0.347l-0.056,-0.346l-0.058,-0.345l-0.059,-0.345l-0.06,-0.345l-0.062,-0.343l-0.063,-0.344l-0.064,-0.342l-0.065,-0.343l-0.066,-0.341l-0.068,-0.341l-0.069,-0.34l-0.071,-0.34l-0.071,-0.339l-0.073,-0.339l-0.074,-0.338l-0.076,-0.337l-0.077,-0.336l-0.078,-0.336l-0.079,-0.335l-0.081,-0.335l-0.082,-0.334l-0.084,-0.333l-0.085,-0.332l-0.086,-0.332l-0.087,-0.33l-0.089,-0.331l-0.09,-0.329l-0.092,-0.328l-0.093,-0.328l-0.094,-0.327l-0.096,-0.326l-0.097,-0.325l-0.098,-0.325l-0.1,-0.323l-0.102,-0.323l-0.102,-0.322l-0.104,-0.321l-0.106,-0.32l-0.107,-0.319l-0.108,-0.319l-0.11,-0.317l-0.111,-0.317l-0.113,-0.315l-0.114,-0.315l-0.116,-0.314l-0.117,-0.312l-0.119,-0.312l-0.12,-0.311l-0.121,-0.309l-0.123,-0.309l-0.125,-0.308l-0.125,-0.307l-0.128,-0.305l-0.129,-0.305l-0.13,-0.304l-0.132,-0.302l-0.134,-0.302l-0.135,-0.3l-0.136,-0.299l-0.138,-0.299l-0.14,-0.297l-0.141,-0.296l-0.143,-0.295l-0.144,-0.293l-0.146,-0.293l-0.147,-0.291l-0.149,-0.291l-0.151,-0.289l-0.152,-0.288l-0.153,-0.286l-0.156,-0.286l-0.156,-0.285l-0.159,-0.283l-0.16,-0.281l-0.161,-0.281l-0.164,-0.28l-0.165,-0.278l-0.166,-0.277l-0.168,-0.276l-0.17,-0.274l-0.171,-0.273l-0.173,-0.272l-0.175,-0.271l-0.176,-0.269l-0.179,-0.268l-0.179,-0.267l-0.182,-0.265l-0.183,-0.264l-0.184,-0.263l-0.187,-0.261l-0.188,-0.26l-0.19,-0.258l-0.192,-0.258l-0.193,-0.256l-0.195,-0.254l-0.197,-0.253l-0.198,-0.252l-0.2,-0.25l-0.202,-0.249l-0.204,-0.247l-0.206,-0.246l-0.207,-0.245l-0.209,-0.243l-0.211,-0.242l-0.212,-0.24l-0.215,-0.239l-0.216,-0.237l-0.218,-0.236l-0.22,-0.234l-0.222,-0.233l-0.223,-0.231l-0.226,-0.23l-0.227,-0.228l-0.229,-0.227l-0.231,-0.225l-0.233,-0.224l-0.235,-0.222l-0.236,-0.221l-0.239,-0.219l-0.24,-0.217l-0.243,-0.216l-0.244,-0.215l-0.246,-0.212l-0.249,-0.211l-0.25,-0.21l-0.252,-0.208l-0.254,-0.206l-0.256,-0.205l-0.258,-0.203l-0.26,-0.202l-0.262,-0.2l-0.264,-0.198l-0.266,-0.196l-0.268,-0.195l-0.271,-0.193l-0.272,-0.192l-0.274,-0.189l-0.277,-0.189l-0.278,-0.186l-0.281,-0.185l-0.282,-0.183l-0.285,-0.181l-0.287,-0.179l-0.289,-0.178l-0.291,-0.176l-0.294,-0.174l-0.295,-0.173l-0.298,-0.17l-0.3,-0.169l-0.302,-0.167l-0.304,-0.166l-0.307,-0.163l-0.309,-0.162l-0.311,-0.159l-0.313,-0.158l-0.315,-0.157l-0.318,-0.154l-0.32,-0.152l-0.323,-0.151l-0.324,-0.148l-0.327,-0.147l-0.33,-0.145l-0.331,-0.142l-0.334,-0.141l-0.337,-0.139l-0.338,-0.137l-0.341,-0.135l-0.344,-0.133l-0.346,-0.132l-0.348,-0.129l-0.351,-0.127l-0.353,-0.125l-0.355,-0.123l-0.358,-0.121l-0.36,-0.119l-0.363,-0.117l-0.366,-0.114l-0.367,-0.113l-0.371,-0.111l-0.373,-0.108l-0.375,-0.107l-0.378,-0.104l-0.38,-0.102l-0.383,-0.1l-0.386,-0.098l-0.388,-0.096l-0.39,-0.093l-0.394,-0.091l-0.395,-0.089l-0.399,-0.087l-0.401,-0.085l-0.403,-0.082l-0.406,-0.08l-0.409,-0.078l-0.412,-0.075l-0.414,-0.074l-0.417,-0.07l-0.419,-0.069l-0.422,-0.066l-0.425,-0.064l-0.428,-0.062l-0.43,-0.059l-0.433,-0.057l-0.435,-0.054l-0.438,-0.052l-0.441,-0.05l-0.444,-0.047l-0.447,-0.045l-0.449,-0.042l-0.452,-0.04l-0.455,-0.037l-0.457,-0.035l-0.461,-0.032l-0.463,-0.03l-0.466,-0.027l-0.469,-0.025l-0.471,-0.022l-0.475,-0.02l-0.477,-0.017l-0.48,-0.014l-0.483,-0.012l-0.485,-0.009l-0.489,-0.007l-0.491,-0.004l-0.495,-0.001l-0.494,0.001Z" style="fill:#fff;"/></g></g></g></svg>