<?xml version="1.0" encoding="UTF-8" standalone="no"?><!DOCTYPE svg PUBLIC "-//W3C//DTD SVG 1.1//EN" "http://www.w3.org/Graphics/SVG/1.1/DTD/svg11.dtd"><svg width="100%" height="100%" viewBox="0 0 335 368" version="1.1" xmlns="http://www.w3.org/2000/svg" xmlns:xlink="http://www.w3.org/1999/xlink" xml:space="preserve" xmlns:serif="http://www.serif.com/" style="fill-rule:evenodd;clip-rule:evenodd;stroke-linejoin:round;stroke-miterlimit:1.41421;"><rect x="-0.465" y="0" width="335.44" height="367.851" style="fill:#929292;"/><g><g><path d="M139.282,233.512c-61.846,27.211 -80.399,41.713 -87.735,48.229c-11.304,10.034 -17.551,47.446 -24.219,79.205l279.853,0c-6.661,-31.759 -12.92,-69.171 -24.218,-79.205c-7.329,-6.516 -25.202,-20.645 -87.054,-47.856l-56.627,-0.373Z" style="fill:#b8b8b8;"/><path d="M197.232,227.703l2.619,1.154l1.433,0.634l1.418,0.629l1.401,0.624l1.387,0.621l1.369,0.615l1.355,0.61l1.34,0.606l1.325,0.601l1.309,0.597l1.294,0.593l1.279,0.587l1.264,0.582l1.25,0.579l1.234,0.574l1.221,0.57l1.205,0.565l1.192,0.56l1.176,0.555l1.163,0.553l1.149,0.547l1.135,0.542l1.121,0.539l1.107,0.533l1.092,0.531l1.08,0.525l1.067,0.521l1.052,0.516l1.039,0.512l1.026,0.508l1.013,0.504l1,0.5l0.987,0.496l0.974,0.492l0.961,0.486l0.948,0.483l0.937,0.479l0.923,0.474l0.911,0.471l0.9,0.467l0.886,0.461l0.875,0.458l0.863,0.454l0.851,0.45l0.838,0.447l0.828,0.442l0.815,0.438l0.805,0.435l0.792,0.429l0.783,0.427l0.769,0.422l0.759,0.418l0.748,0.415l0.738,0.411l0.726,0.407l0.716,0.403l0.705,0.399l0.695,0.396l0.684,0.391l0.673,0.388l0.664,0.384l0.653,0.381l0.644,0.377l0.633,0.372l0.623,0.37l0.614,0.365l0.603,0.362l0.595,0.359l0.585,0.355l0.576,0.351l0.567,0.348l0.556,0.344l0.548,0.34l0.539,0.338l0.531,0.333l0.521,0.33l0.512,0.327l0.504,0.323l0.495,0.32l0.487,0.316l0.478,0.313l0.47,0.31l0.463,0.306l0.454,0.302l0.446,0.3l0.438,0.295l0.43,0.293l0.423,0.289l0.415,0.287l0.407,0.283l0.401,0.279l0.392,0.277l0.386,0.273l0.379,0.27l0.37,0.266l0.365,0.264l0.357,0.26l0.351,0.258l0.343,0.254l0.338,0.25l0.331,0.248l0.324,0.245l0.318,0.242l0.312,0.238l0.305,0.235l0.299,0.232l0.294,0.23l0.287,0.225l0.282,0.223l0.545,0.437l0.265,0.213l0.258,0.211l0.253,0.208l0.249,0.204l0.242,0.201l0.237,0.198l0.232,0.195l0.228,0.192l0.225,0.192l0.425,0.365l0.409,0.355l0.391,0.343l0.38,0.336l0.178,0.16l0.187,0.173l0.184,0.172l0.181,0.176l0.181,0.179l0.178,0.179l0.176,0.182l0.174,0.183l0.173,0.186l0.169,0.186l0.17,0.191l0.167,0.19l0.165,0.194l0.164,0.195l0.162,0.196l0.161,0.199l0.159,0.2l0.156,0.201l0.157,0.204l0.156,0.205l0.152,0.208l0.152,0.208l0.151,0.21l0.15,0.213l0.148,0.214l0.146,0.214l0.146,0.217l0.145,0.22l0.143,0.22l0.142,0.22l0.142,0.224l0.141,0.226l0.138,0.226l0.139,0.228l0.137,0.23l0.136,0.231l0.136,0.233l0.134,0.235l0.133,0.236l0.133,0.237l0.132,0.24l0.13,0.24l0.13,0.243l0.13,0.244l0.129,0.245l0.127,0.247l0.127,0.249l0.126,0.25l0.126,0.251l0.123,0.252l0.124,0.255l0.124,0.257l0.123,0.257l0.122,0.259l0.121,0.261l0.12,0.261l0.121,0.265l0.118,0.263l0.12,0.267l0.117,0.268l0.118,0.269l0.117,0.271l0.117,0.273l0.115,0.273l0.116,0.275l0.114,0.276l0.114,0.278l0.113,0.279l0.114,0.281l0.112,0.282l0.112,0.284l0.112,0.285l0.11,0.285l0.111,0.288l0.111,0.289l0.109,0.29l0.109,0.292l0.109,0.294l0.108,0.294l0.108,0.295l0.106,0.297l0.11,0.302l0.21,0.597l0.211,0.606l0.209,0.61l0.208,0.615l0.205,0.622l0.206,0.625l0.202,0.63l0.202,0.635l0.199,0.64l0.199,0.644l0.198,0.649l0.196,0.653l0.194,0.659l0.193,0.661l0.193,0.666l0.19,0.67l0.19,0.674l0.189,0.679l0.188,0.682l0.186,0.686l0.185,0.69l0.184,0.694l0.183,0.696l0.182,0.701l0.181,0.704l0.18,0.707l0.179,0.711l0.179,0.714l0.177,0.716l0.177,0.72l0.175,0.723l0.175,0.725l0.174,0.728l0.173,0.732l0.173,0.733l0.171,0.736l0.171,0.738l0.17,0.741l0.169,0.743l0.169,0.745l0.168,0.747l0.167,0.749l0.167,0.75l0.167,0.753l0.165,0.754l0.165,0.756l0.328,1.516l0.164,0.762l0.324,1.522l0.324,1.527l0.321,1.532l0.319,1.534l0.319,1.536l0.316,1.538l0.316,1.538l0.629,3.074l0.623,3.065l0.622,3.055l0.311,1.52l0.31,1.513l0.31,1.509l0.31,1.501l0.309,1.492l1.87,8.947l-295.091,0l1.872,-8.948l0.31,-1.492l0.31,-1.501l0.31,-1.508l0.31,-1.514l0.31,-1.519l0.623,-3.055l0.624,-3.065l0.314,-1.537l0.314,-1.537l0.315,-1.538l0.318,-1.537l0.318,-1.536l0.319,-1.535l0.322,-1.53l0.323,-1.529l0.325,-1.522l0.163,-0.761l0.164,-0.759l0.164,-0.758l0.165,-0.756l0.165,-0.753l0.166,-0.753l0.167,-0.75l0.168,-0.75l0.167,-0.747l0.169,-0.744l0.17,-0.743l0.169,-0.741l0.172,-0.738l0.171,-0.737l0.172,-0.733l0.173,-0.731l0.174,-0.728l0.174,-0.726l0.176,-0.722l0.177,-0.72l0.177,-0.717l0.178,-0.714l0.179,-0.71l0.18,-0.707l0.181,-0.704l0.182,-0.701l0.184,-0.697l0.184,-0.694l0.185,-0.689l0.186,-0.687l0.188,-0.681l0.188,-0.679l0.19,-0.674l0.19,-0.67l0.193,-0.667l0.192,-0.661l0.195,-0.658l0.196,-0.654l0.198,-0.648l0.198,-0.644l0.2,-0.64l0.201,-0.636l0.203,-0.63l0.205,-0.625l0.206,-0.62l0.207,-0.617l0.209,-0.61l0.209,-0.603l0.107,-0.303l0.107,-0.3l0.107,-0.298l0.107,-0.298l0.108,-0.295l0.108,-0.294l0.109,-0.294l0.109,-0.291l0.109,-0.291l0.11,-0.289l0.111,-0.287l0.112,-0.286l0.111,-0.285l0.112,-0.284l0.112,-0.281l0.113,-0.282l0.114,-0.278l0.114,-0.279l0.114,-0.276l0.116,-0.275l0.116,-0.273l0.115,-0.272l0.118,-0.271l0.117,-0.27l0.119,-0.268l0.118,-0.267l0.119,-0.263l0.121,-0.264l0.12,-0.262l0.121,-0.261l0.122,-0.259l0.123,-0.257l0.123,-0.257l0.124,-0.255l0.125,-0.253l0.125,-0.25l0.126,-0.251l0.127,-0.248l0.128,-0.247l0.128,-0.245l0.129,-0.245l0.131,-0.242l0.131,-0.24l0.131,-0.24l0.132,-0.238l0.135,-0.236l0.133,-0.234l0.136,-0.233l0.136,-0.231l0.138,-0.23l0.138,-0.229l0.139,-0.226l0.141,-0.226l0.141,-0.223l0.141,-0.221l0.144,-0.22l0.145,-0.22l0.145,-0.217l0.148,-0.214l0.149,-0.214l0.149,-0.212l0.15,-0.211l0.153,-0.208l0.153,-0.208l0.155,-0.205l0.156,-0.203l0.157,-0.201l0.16,-0.201l0.161,-0.199l0.162,-0.196l0.164,-0.195l0.165,-0.193l0.167,-0.191l0.17,-0.191l0.169,-0.186l0.173,-0.185l0.174,-0.184l0.177,-0.183l0.177,-0.179l0.181,-0.178l0.182,-0.176l0.184,-0.174l0.186,-0.171l0.179,-0.161l0.383,-0.339l0.395,-0.345l0.41,-0.354l0.218,-0.187l0.219,-0.187l0.224,-0.191l0.23,-0.192l0.235,-0.197l0.241,-0.2l0.246,-0.203l0.251,-0.207l0.257,-0.208l0.262,-0.213l0.268,-0.216l0.274,-0.218l0.28,-0.222l0.286,-0.226l0.292,-0.228l0.297,-0.231l0.304,-0.235l0.31,-0.237l0.317,-0.242l0.324,-0.244l0.329,-0.247l0.336,-0.251l0.342,-0.253l0.35,-0.257l0.356,-0.26l0.363,-0.264l0.371,-0.266l0.377,-0.27l0.384,-0.273l0.393,-0.277l0.398,-0.279l0.407,-0.284l0.414,-0.286l0.421,-0.29l0.429,-0.292l0.438,-0.297l0.445,-0.3l0.453,-0.303l0.461,-0.306l0.469,-0.31l0.478,-0.313l0.484,-0.316l0.495,-0.321l0.502,-0.324l0.512,-0.327l0.519,-0.33l0.53,-0.335l0.537,-0.337l0.547,-0.341l0.555,-0.345l0.564,-0.349l0.574,-0.351l0.584,-0.356l0.592,-0.358l0.602,-0.364l0.612,-0.366l0.622,-0.369l0.631,-0.374l0.641,-0.378l0.651,-0.38l0.661,-0.385l0.671,-0.388l0.682,-0.392l0.691,-0.396l0.703,-0.4l0.713,-0.403l0.724,-0.408l0.733,-0.411l0.745,-0.415l0.756,-0.419l0.766,-0.422l0.778,-0.427l0.789,-0.429l0.8,-0.435l0.812,-0.439l0.822,-0.441l0.836,-0.447l0.845,-0.45l0.859,-0.454l0.869,-0.457l0.882,-0.463l0.893,-0.465l0.906,-0.47l0.918,-0.474l0.93,-0.479l0.942,-0.481l0.955,-0.487l0.967,-0.49l0.981,-0.496l0.992,-0.498l1.006,-0.503l1.018,-0.507l1.032,-0.511l1.045,-0.516l1.057,-0.52l1.072,-0.523l1.085,-0.528l1.098,-0.532l1.112,-0.537l1.125,-0.541l1.139,-0.545l1.153,-0.549l1.166,-0.555l1.181,-0.558l1.195,-0.563l1.209,-0.566l1.224,-0.572l1.238,-0.575l1.252,-0.581l1.267,-0.584l1.281,-0.588l1.297,-0.594l1.311,-0.598l1.327,-0.602l1.341,-0.607l1.357,-0.612l1.372,-0.616l1.386,-0.62l1.403,-0.626l1.417,-0.628l1.434,-0.636l2.658,-1.17l59.234,0.389Zm-56.89,12.108l-1.419,0.628l-1.402,0.622l-1.387,0.619l-1.371,0.613l-1.356,0.608l-1.34,0.605l-1.325,0.6l-1.31,0.595l-1.295,0.589l-1.28,0.587l-1.264,0.581l-1.251,0.577l-1.235,0.571l-1.22,0.569l-1.207,0.563l-1.191,0.559l-1.178,0.553l-1.162,0.551l-1.15,0.545l-1.134,0.541l-1.12,0.535l-1.107,0.533l-1.094,0.528l-1.078,0.523l-1.066,0.518l-1.052,0.515l-1.039,0.51l-1.024,0.506l-1.012,0.502l-1,0.496l-0.985,0.493l-0.973,0.488l-0.959,0.485l-0.947,0.48l-0.935,0.476l-0.921,0.471l-0.909,0.468l-0.896,0.462l-0.884,0.46l-0.871,0.454l-0.861,0.451l-0.847,0.446l-0.836,0.442l-0.823,0.438l-0.812,0.434l-0.8,0.43l-0.788,0.425l-0.777,0.423l-0.765,0.417l-0.755,0.414l-0.742,0.408l-0.731,0.406l-0.721,0.401l-0.711,0.398l-0.697,0.392l-0.688,0.39l-0.678,0.385l-0.665,0.381l-0.657,0.378l-0.644,0.374l-0.635,0.368l-0.626,0.366l-0.614,0.362l-0.604,0.357l-0.595,0.355l-0.584,0.349l-0.575,0.346l-0.565,0.343l-0.555,0.338l-0.546,0.335l-0.537,0.331l-0.526,0.327l-0.518,0.322l-0.509,0.32l-0.499,0.316l-0.49,0.312l-0.482,0.308l-0.473,0.305l-0.464,0.3l-0.456,0.297l-0.447,0.294l-0.438,0.289l-0.431,0.286l-0.421,0.282l-0.414,0.28l-0.405,0.274l-0.398,0.272l-0.391,0.268l-0.382,0.264l-0.375,0.261l-0.366,0.257l-0.36,0.254l-0.352,0.25l-0.344,0.246l-0.338,0.244l-0.331,0.239l-0.323,0.236l-0.317,0.233l-0.31,0.23l-0.303,0.226l-0.297,0.223l-0.29,0.219l-0.284,0.216l-0.277,0.212l-0.271,0.21l-0.266,0.205l-0.258,0.203l-0.254,0.199l-0.248,0.197l-0.241,0.193l-0.236,0.191l-0.231,0.186l-0.225,0.184l-0.22,0.18l-0.216,0.178l-0.21,0.174l-0.205,0.173l-0.201,0.168l-0.195,0.166l-0.192,0.162l-0.183,0.158l-0.365,0.316l-0.344,0.301l-0.322,0.284l-0.084,0.077l-0.078,0.07l-0.078,0.075l-0.08,0.076l-0.08,0.08l-0.082,0.083l-0.083,0.085l-0.084,0.088l-0.085,0.092l-0.086,0.095l-0.086,0.097l-0.088,0.099l-0.087,0.103l-0.089,0.107l-0.091,0.109l-0.09,0.111l-0.09,0.114l-0.092,0.118l-0.094,0.12l-0.092,0.123l-0.093,0.126l-0.094,0.129l-0.094,0.131l-0.096,0.135l-0.095,0.136l-0.095,0.141l-0.096,0.143l-0.096,0.145l-0.097,0.148l-0.096,0.152l-0.098,0.153l-0.097,0.157l-0.099,0.159l-0.097,0.16l-0.098,0.166l-0.099,0.166l-0.097,0.169l-0.1,0.173l-0.098,0.174l-0.099,0.177l-0.099,0.18l-0.098,0.182l-0.1,0.184l-0.098,0.188l-0.1,0.189l-0.099,0.192l-0.1,0.194l-0.098,0.196l-0.1,0.2l-0.099,0.201l-0.099,0.204l-0.099,0.206l-0.1,0.209l-0.099,0.21l-0.099,0.213l-0.098,0.214l-0.1,0.218l-0.098,0.219l-0.1,0.222l-0.098,0.224l-0.098,0.226l-0.099,0.228l-0.098,0.229l-0.099,0.233l-0.098,0.234l-0.098,0.236l-0.098,0.239l-0.097,0.241l-0.098,0.242l-0.097,0.245l-0.098,0.245l-0.097,0.249l-0.097,0.251l-0.098,0.252l-0.096,0.254l-0.096,0.256l-0.097,0.257l-0.096,0.261l-0.096,0.261l-0.097,0.264l-0.095,0.264l-0.096,0.268l-0.096,0.268l-0.094,0.268l-0.191,0.549l-0.189,0.554l-0.189,0.559l-0.188,0.567l-0.187,0.572l-0.186,0.579l-0.186,0.587l-0.185,0.591l-0.184,0.597l-0.184,0.604l-0.182,0.61l-0.182,0.615l-0.181,0.62l-0.181,0.626l-0.18,0.631l-0.179,0.637l-0.178,0.642l-0.178,0.647l-0.176,0.651l-0.177,0.656l-0.175,0.661l-0.176,0.666l-0.173,0.67l-0.174,0.675l-0.172,0.678l-0.173,0.683l-0.171,0.687l-0.171,0.69l-0.17,0.694l-0.169,0.699l-0.17,0.702l-0.168,0.706l-0.168,0.708l-0.168,0.712l-0.166,0.716l-0.166,0.718l-0.166,0.721l-0.165,0.725l-0.164,0.727l-0.164,0.73l-0.165,0.732l-0.163,0.736l-0.163,0.737l-0.162,0.74l-0.161,0.742l-0.161,0.744l-0.162,0.746l-0.16,0.746l-0.321,1.503l-0.318,1.509l-0.318,1.513l-0.316,1.518l-0.316,1.522l-0.314,1.527l-0.315,1.528l-0.312,1.531l-0.312,1.531l-0.625,3.065l-0.623,3.058l-0.311,1.525l-0.02,0.1l264.648,0l-0.02,-0.1l-0.312,-1.527l-0.622,-3.058l-0.624,-3.063l-0.312,-1.531l-0.313,-1.531l-0.314,-1.528l-0.314,-1.526l-0.316,-1.523l-0.316,-1.518l-0.318,-1.513l-0.319,-1.509l-0.321,-1.502l-0.16,-0.747l-0.161,-0.746l-0.162,-0.744l-0.162,-0.741l-0.162,-0.74l-0.163,-0.738l-0.163,-0.735l-0.164,-0.732l-0.164,-0.731l-0.164,-0.727l-0.165,-0.724l-0.166,-0.722l-0.166,-0.717l-0.168,-0.717l-0.167,-0.711l-0.167,-0.709l-0.169,-0.705l-0.169,-0.702l-0.17,-0.699l-0.169,-0.694l-0.172,-0.691l-0.171,-0.687l-0.173,-0.683l-0.172,-0.678l-0.174,-0.675l-0.174,-0.67l-0.175,-0.666l-0.175,-0.66l-0.177,-0.656l-0.177,-0.652l-0.177,-0.647l-0.179,-0.642l-0.179,-0.636l-0.18,-0.632l-0.18,-0.625l-0.182,-0.62l-0.182,-0.616l-0.182,-0.609l-0.184,-0.603l-0.185,-0.599l-0.184,-0.591l-0.186,-0.586l-0.186,-0.58l-0.188,-0.572l-0.188,-0.567l-0.189,-0.559l-0.189,-0.553l-0.189,-0.546l-0.193,-0.544l-0.094,-0.263l-0.097,-0.265l-0.095,-0.264l-0.096,-0.261l-0.097,-0.26l-0.096,-0.258l-0.097,-0.256l-0.097,-0.254l-0.097,-0.252l-0.096,-0.251l-0.098,-0.249l-0.097,-0.245l-0.097,-0.245l-0.099,-0.242l-0.097,-0.241l-0.099,-0.239l-0.097,-0.235l-0.098,-0.235l-0.099,-0.233l-0.098,-0.229l-0.099,-0.228l-0.098,-0.226l-0.099,-0.224l-0.098,-0.222l-0.1,-0.219l-0.098,-0.217l-0.1,-0.216l-0.098,-0.213l-0.1,-0.209l-0.099,-0.21l-0.098,-0.205l-0.1,-0.204l-0.099,-0.202l-0.1,-0.199l-0.098,-0.196l-0.1,-0.194l-0.099,-0.192l-0.1,-0.189l-0.098,-0.188l-0.1,-0.184l-0.098,-0.182l-0.1,-0.18l-0.098,-0.178l-0.099,-0.173l-0.098,-0.173l-0.099,-0.169l-0.098,-0.167l-0.098,-0.165l-0.098,-0.16l-0.098,-0.16l-0.098,-0.157l-0.096,-0.152l-0.097,-0.152l-0.098,-0.149l-0.095,-0.145l-0.096,-0.143l-0.097,-0.14l-0.094,-0.137l-0.094,-0.134l-0.095,-0.132l-0.093,-0.129l-0.095,-0.126l-0.092,-0.123l-0.092,-0.119l-0.092,-0.119l-0.091,-0.114l-0.09,-0.111l-0.091,-0.11l-0.088,-0.105l-0.089,-0.103l-0.088,-0.1l-0.085,-0.097l-0.086,-0.095l-0.085,-0.091l-0.083,-0.089l-0.084,-0.085l-0.081,-0.083l-0.081,-0.08l-0.079,-0.076l-0.08,-0.075l-0.076,-0.07l-0.086,-0.077l-0.322,-0.286l-0.346,-0.303l-0.359,-0.312l-0.38,-0.326l-0.191,-0.162l-0.198,-0.167l-0.203,-0.172l-0.209,-0.173l-0.211,-0.176l-0.217,-0.179l-0.224,-0.182l-0.227,-0.185l-0.232,-0.189l-0.238,-0.19l-0.244,-0.195l-0.249,-0.197l-0.255,-0.2l-0.26,-0.203l-0.267,-0.207l-0.273,-0.21l-0.278,-0.214l-0.285,-0.216l-0.291,-0.219l-0.297,-0.223l-0.304,-0.226l-0.311,-0.229l-0.318,-0.233l-0.324,-0.236l-0.331,-0.241l-0.339,-0.242l-0.345,-0.247l-0.352,-0.25l-0.36,-0.253l-0.369,-0.258l-0.374,-0.26l-0.383,-0.264l-0.391,-0.267l-0.398,-0.271l-0.407,-0.275l-0.414,-0.278l-0.423,-0.281l-0.431,-0.286l-0.439,-0.289l-0.448,-0.293l-0.456,-0.297l-0.465,-0.299l-0.474,-0.304l-0.482,-0.308l-0.492,-0.311l-0.5,-0.315l-0.509,-0.318l-0.52,-0.323l-0.528,-0.326l-0.537,-0.33l-0.548,-0.335l-0.557,-0.338l-0.565,-0.342l-0.577,-0.345l-0.586,-0.349l-0.596,-0.353l-0.607,-0.357l-0.617,-0.361l-0.627,-0.365l-0.637,-0.37l-0.648,-0.372l-0.658,-0.377l-0.668,-0.381l-0.68,-0.384l-0.691,-0.39l-0.702,-0.393l-0.712,-0.397l-0.724,-0.401l-0.734,-0.405l-0.747,-0.409l-0.758,-0.414l-0.769,-0.417l-0.78,-0.421l-0.793,-0.426l-0.804,-0.43l-0.817,-0.434l-0.828,-0.438l-0.841,-0.443l-0.852,-0.447l-0.865,-0.45l-0.877,-0.456l-0.89,-0.459l-0.902,-0.464l-0.916,-0.467l-0.927,-0.473l-0.941,-0.476l-0.954,-0.48l-0.966,-0.486l-0.979,-0.489l-0.994,-0.495l-1.006,-0.498l-1.019,-0.503l-1.034,-0.507l-1.047,-0.511l-1.061,-0.517l-1.074,-0.521l-1.088,-0.524l-1.102,-0.53l-1.117,-0.533l-1.13,-0.539l-1.145,-0.543l-1.159,-0.547l-1.173,-0.553l-1.189,-0.557l-1.203,-0.561l-1.218,-0.566l-1.232,-0.57l-1.247,-0.575l-1.263,-0.58l-1.277,-0.586l-1.293,-0.588l-1.308,-0.594l-1.323,-0.599l-1.339,-0.603l-1.355,-0.608l-1.371,-0.613l-1.385,-0.618l-1.403,-0.622l-1.418,-0.627l-0.264,-0.116l-54.019,-0.356l-0.225,0.099Z" style="fill:#fff;"/><path d="M137.228,179.271l0,68.8c16.516,19.596 43.539,20.304 60.055,0l0,-22.737l0,-46.063c0,-37.145 -60.055,-37.145 -60.055,0" style="fill:#b8b8b8;"/><path d="M167.958,61.995c-92.391,0 -56.98,126.994 -50.943,136.724c6.654,10.73 36.017,34.378 50.943,34.378c14.926,0 44.288,-23.648 50.944,-34.378c6.035,-9.73 41.446,-136.724 -50.944,-136.724" style="fill:#e2e2e2;"/><g><path d="M167.119,60.318c-92.39,0 -56.979,126.994 -50.943,136.724c6.655,10.73 36.018,34.379 50.943,34.379c14.926,0 44.29,-23.649 50.945,-34.379c6.035,-9.73 41.446,-136.724 -50.945,-136.724" style="fill:#b8b8b8;"/><path d="M167.119,60.318l0.009,-3.095l0.548,0.001l0.554,0.006l0.551,0.007l0.549,0.011l0.545,0.012l0.543,0.017l0.539,0.019l0.537,0.023l0.535,0.025l0.531,0.028l0.529,0.03l0.526,0.034l0.523,0.037l0.521,0.04l0.518,0.043l0.515,0.044l0.514,0.049l0.509,0.051l0.507,0.054l0.505,0.057l0.501,0.059l0.499,0.063l0.496,0.064l0.495,0.069l0.491,0.07l0.488,0.074l0.486,0.076l0.483,0.079l0.481,0.082l0.477,0.085l0.475,0.086l0.474,0.09l0.47,0.094l0.466,0.095l0.465,0.097l0.463,0.101l0.459,0.104l0.457,0.105l0.454,0.109l0.452,0.112l0.45,0.114l0.447,0.116l0.443,0.12l0.442,0.122l0.439,0.123l0.436,0.127l0.434,0.131l0.432,0.132l0.429,0.134l0.426,0.138l0.424,0.14l0.421,0.142l0.418,0.145l0.416,0.147l0.414,0.15l0.411,0.152l0.408,0.155l0.407,0.158l0.403,0.16l0.401,0.161l0.398,0.166l0.396,0.166l0.394,0.169l0.391,0.173l0.389,0.174l0.385,0.176l0.384,0.18l0.381,0.181l0.378,0.183l0.376,0.186l0.374,0.189l0.371,0.19l0.369,0.194l0.366,0.195l0.364,0.198l0.361,0.199l0.359,0.202l0.356,0.204l0.354,0.208l0.351,0.208l0.35,0.211l0.347,0.213l0.344,0.216l0.342,0.217l0.339,0.22l0.336,0.221l0.335,0.224l0.332,0.226l0.329,0.228l0.327,0.23l0.325,0.232l0.323,0.235l0.32,0.236l0.317,0.238l0.316,0.24l0.313,0.243l0.31,0.244l0.308,0.247l0.306,0.248l0.303,0.249l0.301,0.253l0.299,0.254l0.295,0.256l0.295,0.258l0.292,0.259l0.289,0.262l0.287,0.263l0.283,0.266l0.283,0.267l0.279,0.268l0.279,0.271l0.275,0.272l0.272,0.275l0.271,0.276l0.269,0.277l0.265,0.28l0.264,0.28l0.261,0.284l0.26,0.283l0.257,0.286l0.254,0.288l0.253,0.29l0.25,0.291l0.249,0.292l0.245,0.295l0.244,0.295l0.241,0.297l0.239,0.299l0.236,0.301l0.235,0.301l0.233,0.304l0.23,0.305l0.228,0.306l0.226,0.308l0.224,0.309l0.221,0.31l0.22,0.312l0.218,0.314l0.214,0.315l0.213,0.315l0.212,0.318l0.208,0.32l0.207,0.319l0.205,0.322l0.202,0.323l0.2,0.324l0.199,0.326l0.197,0.327l0.194,0.327l0.193,0.329l0.19,0.33l0.189,0.333l0.186,0.332l0.184,0.335l0.182,0.335l0.18,0.336l0.178,0.337l0.177,0.339l0.174,0.34l0.173,0.342l0.169,0.342l0.17,0.343l0.166,0.344l0.165,0.345l0.162,0.346l0.161,0.348l0.158,0.348l0.158,0.35l0.155,0.35l0.153,0.351l0.152,0.353l0.149,0.353l0.148,0.354l0.146,0.356l0.144,0.355l0.142,0.358l0.141,0.358l0.138,0.359l0.137,0.36l0.135,0.36l0.133,0.361l0.132,0.363l0.129,0.364l0.128,0.364l0.126,0.364l0.125,0.366l0.123,0.366l0.122,0.368l0.118,0.368l0.118,0.368l0.116,0.37l0.114,0.37l0.113,0.372l0.111,0.371l0.11,0.373l0.107,0.372l0.106,0.374l0.104,0.375l0.103,0.376l0.102,0.375l0.099,0.376l0.097,0.378l0.097,0.377l0.095,0.379l0.093,0.379l0.092,0.379l0.09,0.38l0.176,0.762l0.169,0.764l0.083,0.382l0.08,0.383l0.08,0.384l0.078,0.385l0.076,0.384l0.075,0.386l0.075,0.386l0.072,0.386l0.07,0.386l0.069,0.387l0.068,0.387l0.067,0.389l0.064,0.388l0.064,0.388l0.062,0.389l0.061,0.389l0.059,0.39l0.058,0.389l0.057,0.391l0.055,0.392l0.054,0.39l0.053,0.391l0.051,0.392l0.05,0.392l0.048,0.392l0.048,0.393l0.046,0.392l0.044,0.393l0.043,0.393l0.043,0.393l0.041,0.394l0.039,0.393l0.038,0.395l0.037,0.393l0.036,0.394l0.035,0.395l0.034,0.395l0.032,0.395l0.031,0.394l0.029,0.395l0.029,0.395l0.027,0.395l0.027,0.395l0.025,0.396l0.023,0.394l0.024,0.396l0.021,0.395l0.02,0.396l0.02,0.395l0.018,0.396l0.017,0.396l0.016,0.394l0.015,0.396l0.014,0.395l0.012,0.396l0.012,0.395l0.01,0.396l0.017,0.789l0.008,0.395l0.006,0.395l0.005,0.395l0.005,0.395l0.003,0.394l0.002,0.394l0.001,0.395l0,0.788l-0.002,0.393l-0.003,0.394l-0.003,0.393l-0.006,0.392l-0.005,0.393l-0.006,0.393l-0.009,0.393l-0.008,0.391l-0.009,0.392l-0.01,0.391l-0.012,0.392l-0.012,0.391l-0.013,0.39l-0.014,0.39l-0.015,0.39l-0.016,0.39l-0.016,0.388l-0.018,0.39l-0.018,0.387l-0.019,0.389l-0.02,0.387l-0.02,0.388l-0.022,0.386l-0.022,0.386l-0.024,0.387l-0.024,0.385l-0.024,0.385l-0.026,0.384l-0.026,0.387l-0.055,0.764l-0.059,0.764l-0.061,0.763l-0.063,0.76l-0.067,0.758l-0.07,0.755l-0.073,0.754l-0.075,0.75l-0.077,0.747l-0.081,0.746l-0.082,0.742l-0.086,0.738l-0.087,0.737l-0.09,0.734l-0.093,0.729l-0.094,0.727l-0.097,0.723l-0.098,0.721l-0.102,0.717l-0.102,0.712l-0.105,0.709l-0.107,0.706l-0.108,0.702l-0.11,0.697l-0.112,0.694l-0.114,0.69l-0.115,0.685l-0.117,0.681l-0.118,0.678l-0.12,0.672l-0.121,0.668l-0.122,0.664l-0.124,0.658l-0.125,0.654l-0.126,0.649l-0.127,0.644l-0.128,0.639l-0.129,0.634l-0.13,0.629l-0.131,0.623l-0.133,0.618l-0.132,0.613l-0.133,0.608l-0.134,0.601l-0.134,0.596l-0.136,0.589l-0.135,0.585l-0.136,0.579l-0.136,0.571l-0.137,0.567l-0.136,0.56l-0.138,0.553l-0.136,0.548l-0.138,0.541l-0.138,0.534l-0.137,0.528l-0.137,0.521l-0.137,0.514l-0.137,0.508l-0.138,0.5l-0.136,0.494l-0.136,0.486l-0.135,0.48l-0.136,0.472l-0.135,0.464l-0.133,0.458l-0.135,0.449l-0.132,0.443l-0.132,0.435l-0.133,0.427l-0.13,0.419l-0.13,0.411l-0.129,0.404l-0.128,0.396l-0.127,0.387l-0.126,0.379l-0.125,0.372l-0.124,0.363l-0.123,0.354l-0.122,0.346l-0.12,0.338l-0.119,0.33l-0.118,0.321l-0.117,0.312l-0.114,0.305l-0.114,0.295l-0.113,0.287l-0.111,0.28l-0.11,0.27l-0.108,0.261l-0.107,0.253l-0.106,0.246l-0.104,0.237l-0.104,0.228l-0.103,0.222l-0.102,0.213l-0.102,0.207l-0.102,0.2l-0.102,0.195l-0.104,0.187l-0.102,0.178l-0.058,0.097l-0.053,0.087l-0.094,0.149l-0.093,0.147l-0.094,0.147l-0.098,0.148l-0.099,0.149l-0.1,0.148l-0.103,0.149l-0.103,0.151l-0.106,0.15l-0.108,0.151l-0.109,0.152l-0.111,0.152l-0.113,0.152l-0.115,0.154l-0.116,0.154l-0.119,0.155l-0.119,0.156l-0.121,0.155l-0.124,0.157l-0.124,0.158l-0.127,0.158l-0.128,0.158l-0.129,0.16l-0.132,0.16l-0.133,0.16l-0.136,0.164l-0.272,0.321l-0.281,0.327l-0.287,0.329l-0.293,0.331l-0.299,0.334l-0.305,0.336l-0.311,0.339l-0.317,0.339l-0.323,0.343l-0.329,0.344l-0.333,0.347l-0.34,0.348l-0.345,0.35l-0.35,0.352l-0.356,0.352l-0.361,0.356l-0.366,0.355l-0.372,0.358l-0.376,0.359l-0.38,0.359l-0.385,0.361l-0.389,0.362l-0.395,0.363l-0.399,0.364l-0.404,0.364l-0.406,0.365l-0.412,0.365l-0.415,0.367l-0.42,0.366l-0.422,0.366l-0.428,0.366l-0.43,0.368l-0.434,0.366l-0.438,0.366l-0.44,0.366l-0.444,0.367l-0.447,0.365l-0.45,0.365l-0.453,0.364l-0.457,0.363l-0.458,0.363l-0.461,0.361l-0.464,0.361l-0.466,0.36l-0.469,0.358l-0.471,0.356l-0.472,0.356l-0.475,0.355l-0.476,0.351l-0.48,0.352l-0.48,0.348l-0.482,0.347l-0.484,0.344l-0.485,0.343l-0.486,0.34l-0.487,0.338l-0.489,0.336l-0.49,0.332l-0.492,0.331l-0.491,0.328l-0.492,0.325l-0.493,0.321l-0.495,0.319l-0.494,0.316l-0.494,0.312l-0.496,0.309l-0.494,0.306l-0.495,0.301l-0.496,0.299l-0.493,0.293l-0.25,0.147l-0.247,0.145l-0.248,0.144l-0.247,0.143l-0.247,0.142l-0.248,0.141l-0.247,0.139l-0.246,0.139l-0.247,0.138l-0.248,0.136l-0.246,0.136l-0.246,0.134l-0.246,0.134l-0.246,0.132l-0.247,0.131l-0.245,0.129l-0.246,0.129l-0.244,0.127l-0.246,0.127l-0.244,0.125l-0.245,0.124l-0.244,0.123l-0.245,0.122l-0.243,0.119l-0.244,0.119l-0.243,0.117l-0.243,0.117l-0.242,0.115l-0.242,0.113l-0.243,0.113l-0.241,0.111l-0.242,0.11l-0.241,0.108l-0.24,0.107l-0.239,0.106l-0.241,0.103l-0.239,0.103l-0.239,0.101l-0.239,0.1l-0.238,0.097l-0.238,0.098l-0.237,0.095l-0.237,0.093l-0.237,0.092l-0.235,0.091l-0.236,0.089l-0.235,0.088l-0.235,0.086l-0.234,0.085l-0.234,0.082l-0.234,0.081l-0.233,0.079l-0.231,0.078l-0.232,0.076l-0.231,0.075l-0.232,0.073l-0.229,0.069l-0.23,0.07l-0.23,0.068l-0.228,0.065l-0.229,0.064l-0.228,0.062l-0.227,0.06l-0.227,0.058l-0.226,0.057l-0.226,0.054l-0.225,0.053l-0.225,0.051l-0.224,0.049l-0.223,0.046l-0.224,0.045l-0.223,0.043l-0.221,0.04l-0.221,0.038l-0.222,0.038l-0.221,0.033l-0.22,0.033l-0.219,0.03l-0.219,0.027l-0.219,0.027l-0.218,0.023l-0.217,0.02l-0.217,0.019l-0.217,0.017l-0.216,0.014l-0.215,0.012l-0.215,0.008l-0.215,0.006l-0.214,0.005l-0.214,0.001l-0.212,-0.001l-0.215,-0.005l-0.214,-0.006l-0.215,-0.008l-0.216,-0.012l-0.216,-0.014l-0.216,-0.017l-0.218,-0.019l-0.217,-0.02l-0.218,-0.023l-0.218,-0.027l-0.22,-0.027l-0.219,-0.03l-0.219,-0.033l-0.221,-0.033l-0.222,-0.038l-0.221,-0.038l-0.222,-0.04l-0.222,-0.043l-0.224,-0.045l-0.223,-0.046l-0.225,-0.049l-0.225,-0.051l-0.225,-0.053l-0.225,-0.054l-0.226,-0.057l-0.228,-0.058l-0.227,-0.06l-0.227,-0.062l-0.229,-0.064l-0.228,-0.065l-0.23,-0.068l-0.23,-0.07l-0.23,-0.069l-0.231,-0.073l-0.232,-0.075l-0.231,-0.076l-0.233,-0.078l-0.233,-0.079l-0.232,-0.081l-0.234,-0.082l-0.234,-0.085l-0.235,-0.086l-0.235,-0.088l-0.236,-0.089l-0.236,-0.091l-0.236,-0.092l-0.237,-0.093l-0.238,-0.095l-0.238,-0.098l-0.238,-0.097l-0.238,-0.1l-0.239,-0.101l-0.239,-0.103l-0.241,-0.103l-0.24,-0.106l-0.24,-0.107l-0.241,-0.108l-0.241,-0.11l-0.241,-0.111l-0.243,-0.113l-0.242,-0.113l-0.242,-0.115l-0.244,-0.117l-0.242,-0.117l-0.244,-0.119l-0.243,-0.119l-0.245,-0.122l-0.244,-0.123l-0.245,-0.124l-0.244,-0.125l-0.246,-0.127l-0.245,-0.127l-0.245,-0.129l-0.245,-0.129l-0.247,-0.131l-0.246,-0.132l-0.246,-0.134l-0.247,-0.134l-0.247,-0.136l-0.246,-0.136l-0.247,-0.138l-0.246,-0.139l-0.248,-0.139l-0.248,-0.141l-0.246,-0.142l-0.248,-0.143l-0.248,-0.144l-0.246,-0.145l-0.25,-0.147l-0.494,-0.293l-0.495,-0.299l-0.495,-0.301l-0.496,-0.306l-0.494,-0.309l-0.495,-0.312l-0.495,-0.316l-0.493,-0.319l-0.493,-0.321l-0.492,-0.325l-0.493,-0.328l-0.49,-0.331l-0.49,-0.332l-0.489,-0.336l-0.488,-0.338l-0.486,-0.34l-0.485,-0.343l-0.483,-0.344l-0.483,-0.347l-0.48,-0.348l-0.479,-0.352l-0.476,-0.351l-0.475,-0.355l-0.474,-0.356l-0.471,-0.356l-0.467,-0.358l-0.467,-0.36l-0.464,-0.361l-0.46,-0.361l-0.46,-0.363l-0.455,-0.363l-0.453,-0.364l-0.451,-0.365l-0.446,-0.365l-0.444,-0.367l-0.441,-0.366l-0.437,-0.366l-0.434,-0.366l-0.431,-0.368l-0.427,-0.366l-0.423,-0.366l-0.419,-0.366l-0.415,-0.367l-0.412,-0.365l-0.408,-0.365l-0.403,-0.364l-0.398,-0.364l-0.395,-0.363l-0.389,-0.362l-0.386,-0.361l-0.381,-0.359l-0.375,-0.359l-0.371,-0.358l-0.366,-0.355l-0.361,-0.356l-0.356,-0.352l-0.35,-0.352l-0.345,-0.35l-0.34,-0.348l-0.334,-0.347l-0.328,-0.344l-0.323,-0.343l-0.318,-0.339l-0.311,-0.339l-0.305,-0.336l-0.298,-0.334l-0.294,-0.331l-0.286,-0.329l-0.281,-0.327l-0.272,-0.321l-0.137,-0.164l-0.133,-0.16l-0.131,-0.16l-0.129,-0.16l-0.128,-0.158l-0.127,-0.158l-0.125,-0.157l-0.123,-0.158l-0.122,-0.155l-0.119,-0.156l-0.118,-0.155l-0.116,-0.154l-0.115,-0.154l-0.113,-0.152l-0.111,-0.152l-0.109,-0.152l-0.108,-0.151l-0.106,-0.15l-0.104,-0.151l-0.102,-0.149l-0.101,-0.149l-0.098,-0.148l-0.098,-0.148l-0.095,-0.147l-0.093,-0.147l-0.093,-0.149l-0.053,-0.087l-0.058,-0.098l-0.102,-0.176l-0.104,-0.188l-0.102,-0.195l-0.102,-0.2l-0.103,-0.207l-0.101,-0.213l-0.103,-0.222l-0.104,-0.228l-0.105,-0.237l-0.105,-0.246l-0.107,-0.253l-0.109,-0.261l-0.109,-0.27l-0.111,-0.28l-0.114,-0.287l-0.113,-0.295l-0.115,-0.305l-0.117,-0.312l-0.117,-0.321l-0.12,-0.33l-0.12,-0.338l-0.121,-0.346l-0.123,-0.354l-0.124,-0.363l-0.125,-0.372l-0.126,-0.379l-0.127,-0.387l-0.128,-0.396l-0.129,-0.404l-0.13,-0.411l-0.131,-0.419l-0.132,-0.427l-0.132,-0.435l-0.133,-0.443l-0.134,-0.449l-0.134,-0.458l-0.135,-0.464l-0.135,-0.472l-0.136,-0.48l-0.136,-0.486l-0.137,-0.493l-0.136,-0.501l-0.137,-0.508l-0.137,-0.514l-0.138,-0.521l-0.136,-0.528l-0.138,-0.534l-0.138,-0.541l-0.137,-0.548l-0.137,-0.553l-0.136,-0.56l-0.137,-0.567l-0.136,-0.571l-0.137,-0.579l-0.136,-0.585l-0.134,-0.589l-0.134,-0.596l-0.135,-0.601l-0.133,-0.608l-0.132,-0.613l-0.132,-0.618l-0.131,-0.623l-0.13,-0.629l-0.129,-0.634l-0.128,-0.639l-0.127,-0.644l-0.126,-0.649l-0.125,-0.654l-0.124,-0.658l-0.123,-0.664l-0.121,-0.668l-0.119,-0.673l-0.119,-0.677l-0.116,-0.68l-0.116,-0.686l-0.113,-0.69l-0.112,-0.694l-0.11,-0.697l-0.109,-0.702l-0.107,-0.706l-0.104,-0.709l-0.103,-0.712l-0.101,-0.717l-0.098,-0.721l-0.098,-0.723l-0.094,-0.727l-0.092,-0.729l-0.09,-0.734l-0.088,-0.737l-0.085,-0.738l-0.082,-0.742l-0.081,-0.746l-0.078,-0.747l-0.075,-0.75l-0.072,-0.754l-0.07,-0.755l-0.067,-0.758l-0.063,-0.76l-0.062,-0.763l-0.058,-0.764l-0.055,-0.764l-0.026,-0.387l-0.026,-0.384l-0.025,-0.385l-0.023,-0.385l-0.024,-0.387l-0.022,-0.386l-0.022,-0.386l-0.021,-0.388l-0.019,-0.387l-0.019,-0.388l-0.019,-0.388l-0.017,-0.39l-0.017,-0.388l-0.016,-0.39l-0.015,-0.39l-0.014,-0.39l-0.012,-0.39l-0.013,-0.392l-0.011,-0.391l-0.01,-0.391l-0.01,-0.392l-0.008,-0.391l-0.008,-0.393l-0.006,-0.393l-0.006,-0.393l-0.005,-0.392l-0.004,-0.393l-0.002,-0.394l-0.002,-0.393l-0.001,-0.394l0,-0.394l0.002,-0.395l0.002,-0.394l0.003,-0.394l0.004,-0.395l0.005,-0.395l0.006,-0.395l0.007,-0.395l0.009,-0.394l0.009,-0.395l0.011,-0.396l0.012,-0.395l0.012,-0.396l0.014,-0.395l0.015,-0.396l0.016,-0.394l0.017,-0.396l0.018,-0.395l0.019,-0.396l0.021,-0.396l0.021,-0.395l0.022,-0.396l0.025,-0.394l0.025,-0.396l0.025,-0.395l0.028,-0.395l0.029,-0.395l0.029,-0.395l0.032,-0.394l0.032,-0.395l0.034,-0.395l0.033,-0.395l0.036,-0.394l0.038,-0.393l0.038,-0.394l0.04,-0.394l0.04,-0.394l0.042,-0.393l0.044,-0.393l0.044,-0.393l0.047,-0.392l0.047,-0.393l0.049,-0.392l0.05,-0.392l0.051,-0.391l0.053,-0.392l0.054,-0.391l0.055,-0.391l0.057,-0.389l0.057,-0.391l0.059,-0.39l0.062,-0.389l0.062,-0.389l0.064,-0.389l0.064,-0.387l0.067,-0.389l0.068,-0.387l0.068,-0.387l0.071,-0.386l0.072,-0.386l0.074,-0.387l0.074,-0.384l0.078,-0.385l0.077,-0.385l0.079,-0.384l0.082,-0.383l0.082,-0.382l0.084,-0.382l0.086,-0.382l0.087,-0.381l0.089,-0.381l0.09,-0.38l0.092,-0.379l0.093,-0.379l0.094,-0.379l0.096,-0.377l0.099,-0.378l0.099,-0.376l0.101,-0.375l0.104,-0.376l0.103,-0.375l0.106,-0.374l0.108,-0.372l0.109,-0.373l0.111,-0.371l0.113,-0.372l0.115,-0.37l0.115,-0.37l0.118,-0.368l0.119,-0.368l0.122,-0.368l0.123,-0.366l0.124,-0.366l0.126,-0.364l0.128,-0.364l0.13,-0.364l0.131,-0.363l0.134,-0.361l0.135,-0.36l0.137,-0.36l0.138,-0.359l0.14,-0.358l0.143,-0.358l0.144,-0.355l0.146,-0.356l0.147,-0.354l0.15,-0.353l0.152,-0.353l0.152,-0.351l0.156,-0.35l0.156,-0.35l0.159,-0.348l0.161,-0.348l0.163,-0.346l0.165,-0.345l0.166,-0.344l0.169,-0.343l0.17,-0.342l0.173,-0.342l0.174,-0.34l0.176,-0.339l0.179,-0.337l0.18,-0.336l0.182,-0.335l0.184,-0.335l0.186,-0.332l0.189,-0.331l0.19,-0.332l0.192,-0.329l0.195,-0.328l0.196,-0.326l0.198,-0.326l0.202,-0.324l0.202,-0.323l0.204,-0.322l0.207,-0.319l0.209,-0.32l0.211,-0.318l0.213,-0.315l0.215,-0.315l0.217,-0.314l0.22,-0.312l0.222,-0.31l0.224,-0.309l0.226,-0.308l0.227,-0.306l0.231,-0.305l0.233,-0.304l0.234,-0.301l0.237,-0.301l0.239,-0.299l0.241,-0.297l0.244,-0.295l0.245,-0.295l0.248,-0.292l0.251,-0.291l0.252,-0.29l0.255,-0.287l0.257,-0.287l0.258,-0.283l0.262,-0.283l0.264,-0.281l0.266,-0.28l0.269,-0.277l0.27,-0.276l0.273,-0.275l0.275,-0.272l0.278,-0.271l0.28,-0.268l0.282,-0.267l0.284,-0.266l0.287,-0.263l0.289,-0.262l0.292,-0.259l0.294,-0.258l0.296,-0.256l0.298,-0.254l0.301,-0.253l0.304,-0.249l0.306,-0.248l0.308,-0.247l0.31,-0.244l0.313,-0.243l0.315,-0.24l0.317,-0.238l0.321,-0.236l0.322,-0.235l0.325,-0.232l0.327,-0.23l0.33,-0.228l0.331,-0.226l0.335,-0.224l0.337,-0.221l0.339,-0.22l0.342,-0.217l0.344,-0.216l0.347,-0.213l0.348,-0.211l0.352,-0.208l0.354,-0.208l0.356,-0.204l0.359,-0.201l0.362,-0.2l0.363,-0.198l0.366,-0.195l0.37,-0.194l0.37,-0.19l0.374,-0.189l0.377,-0.186l0.377,-0.183l0.381,-0.181l0.384,-0.18l0.386,-0.176l0.388,-0.174l0.392,-0.173l0.393,-0.169l0.396,-0.166l0.399,-0.166l0.401,-0.161l0.403,-0.16l0.406,-0.158l0.408,-0.155l0.412,-0.152l0.413,-0.15l0.416,-0.147l0.419,-0.145l0.421,-0.142l0.424,-0.14l0.426,-0.138l0.429,-0.134l0.431,-0.132l0.434,-0.131l0.437,-0.127l0.438,-0.123l0.441,-0.122l0.445,-0.12l0.447,-0.116l0.448,-0.114l0.452,-0.112l0.455,-0.109l0.457,-0.105l0.459,-0.104l0.463,-0.101l0.464,-0.097l0.468,-0.095l0.47,-0.094l0.473,-0.09l0.475,-0.086l0.478,-0.085l0.481,-0.082l0.482,-0.079l0.486,-0.076l0.489,-0.074l0.491,-0.07l0.494,-0.069l0.496,-0.064l0.5,-0.063l0.501,-0.059l0.504,-0.057l0.508,-0.054l0.509,-0.051l0.513,-0.049l0.515,-0.044l0.519,-0.043l0.52,-0.04l0.523,-0.037l0.527,-0.034l0.528,-0.03l0.532,-0.028l0.535,-0.025l0.536,-0.023l0.54,-0.019l0.543,-0.017l0.545,-0.012l0.549,-0.011l0.55,-0.007l0.554,-0.006l0.548,-0.001l0.008,3.095Zm-0.522,3.098l-0.52,0.004l-0.518,0.007l-0.514,0.01l-0.512,0.012l-0.508,0.015l-0.504,0.018l-0.502,0.021l-0.5,0.024l-0.495,0.026l-0.493,0.029l-0.492,0.031l-0.486,0.034l-0.484,0.037l-0.482,0.04l-0.478,0.042l-0.477,0.044l-0.472,0.048l-0.47,0.05l-0.466,0.053l-0.464,0.055l-0.462,0.057l-0.458,0.06l-0.455,0.063l-0.452,0.065l-0.45,0.068l-0.447,0.07l-0.444,0.073l-0.44,0.074l-0.44,0.078l-0.435,0.08l-0.433,0.082l-0.429,0.085l-0.428,0.087l-0.425,0.09l-0.421,0.092l-0.419,0.094l-0.416,0.096l-0.414,0.099l-0.411,0.101l-0.407,0.104l-0.405,0.106l-0.403,0.108l-0.4,0.11l-0.398,0.113l-0.395,0.115l-0.391,0.117l-0.39,0.12l-0.386,0.12l-0.384,0.124l-0.381,0.126l-0.379,0.128l-0.377,0.13l-0.374,0.133l-0.371,0.134l-0.369,0.137l-0.366,0.139l-0.363,0.141l-0.361,0.143l-0.359,0.145l-0.355,0.147l-0.354,0.15l-0.351,0.15l-0.349,0.153l-0.346,0.156l-0.344,0.157l-0.341,0.159l-0.338,0.161l-0.337,0.164l-0.333,0.166l-0.333,0.166l-0.329,0.169l-0.326,0.172l-0.325,0.172l-0.322,0.176l-0.319,0.177l-0.318,0.178l-0.315,0.18l-0.314,0.183l-0.31,0.185l-0.308,0.186l-0.306,0.188l-0.304,0.19l-0.301,0.191l-0.3,0.194l-0.296,0.196l-0.295,0.197l-0.293,0.2l-0.29,0.2l-0.289,0.203l-0.285,0.204l-0.284,0.207l-0.282,0.207l-0.279,0.211l-0.277,0.211l-0.276,0.213l-0.273,0.215l-0.271,0.217l-0.27,0.218l-0.266,0.221l-0.265,0.222l-0.262,0.223l-0.261,0.225l-0.259,0.227l-0.256,0.229l-0.254,0.229l-0.253,0.232l-0.251,0.234l-0.248,0.235l-0.247,0.237l-0.244,0.238l-0.242,0.241l-0.242,0.241l-0.238,0.244l-0.237,0.244l-0.234,0.247l-0.233,0.247l-0.231,0.25l-0.229,0.251l-0.227,0.253l-0.225,0.254l-0.223,0.256l-0.221,0.257l-0.22,0.26l-0.217,0.26l-0.216,0.262l-0.214,0.263l-0.211,0.265l-0.211,0.266l-0.209,0.268l-0.206,0.269l-0.204,0.271l-0.202,0.272l-0.201,0.274l-0.199,0.276l-0.198,0.276l-0.196,0.278l-0.194,0.28l-0.192,0.28l-0.19,0.283l-0.188,0.283l-0.187,0.285l-0.185,0.287l-0.183,0.288l-0.181,0.289l-0.18,0.29l-0.178,0.292l-0.177,0.293l-0.174,0.295l-0.173,0.296l-0.171,0.296l-0.17,0.299l-0.167,0.3l-0.166,0.301l-0.164,0.302l-0.163,0.303l-0.161,0.305l-0.159,0.306l-0.158,0.308l-0.156,0.308l-0.154,0.31l-0.153,0.311l-0.15,0.312l-0.15,0.313l-0.148,0.314l-0.146,0.317l-0.145,0.316l-0.143,0.318l-0.141,0.32l-0.139,0.319l-0.138,0.322l-0.137,0.323l-0.135,0.323l-0.133,0.325l-0.132,0.326l-0.13,0.326l-0.129,0.328l-0.127,0.329l-0.125,0.33l-0.124,0.332l-0.123,0.331l-0.12,0.333l-0.12,0.335l-0.117,0.334l-0.117,0.336l-0.114,0.338l-0.113,0.337l-0.113,0.339l-0.11,0.34l-0.109,0.341l-0.107,0.341l-0.105,0.342l-0.104,0.344l-0.104,0.344l-0.1,0.345l-0.101,0.347l-0.098,0.347l-0.097,0.347l-0.095,0.348l-0.094,0.351l-0.093,0.349l-0.091,0.351l-0.09,0.352l-0.088,0.352l-0.087,0.354l-0.086,0.354l-0.083,0.355l-0.084,0.356l-0.08,0.355l-0.081,0.357l-0.078,0.358l-0.077,0.358l-0.077,0.359l-0.074,0.36l-0.073,0.36l-0.072,0.361l-0.071,0.361l-0.069,0.363l-0.067,0.362l-0.067,0.364l-0.065,0.363l-0.063,0.365l-0.062,0.366l-0.062,0.365l-0.06,0.366l-0.058,0.366l-0.058,0.369l-0.056,0.367l-0.055,0.368l-0.053,0.369l-0.053,0.369l-0.05,0.369l-0.05,0.371l-0.049,0.369l-0.046,0.372l-0.047,0.371l-0.044,0.372l-0.044,0.373l-0.043,0.371l-0.04,0.374l-0.041,0.372l-0.039,0.374l-0.037,0.374l-0.037,0.374l-0.035,0.375l-0.034,0.375l-0.033,0.374l-0.031,0.376l-0.031,0.376l-0.03,0.376l-0.028,0.375l-0.028,0.377l-0.025,0.377l-0.026,0.377l-0.023,0.377l-0.023,0.377l-0.021,0.377l-0.021,0.377l-0.02,0.378l-0.019,0.378l-0.017,0.378l-0.016,0.378l-0.015,0.379l-0.014,0.378l-0.014,0.378l-0.011,0.378l-0.012,0.378l-0.01,0.379l-0.009,0.379l-0.008,0.378l-0.007,0.379l-0.005,0.379l-0.006,0.378l-0.004,0.379l-0.003,0.378l-0.002,0.379l-0.001,0.379l0,0.377l0.002,0.757l0.006,0.756l0.011,0.756l0.006,0.378l0.015,0.753l0.01,0.378l0.009,0.377l0.012,0.377l0.011,0.376l0.012,0.376l0.014,0.376l0.029,0.752l0.016,0.374l0.034,0.75l0.019,0.375l0.019,0.373l0.02,0.374l0.022,0.374l0.021,0.372l0.022,0.373l0.023,0.372l0.025,0.373l0.024,0.371l0.025,0.37l0.054,0.742l0.056,0.739l0.06,0.737l0.061,0.735l0.065,0.734l0.067,0.731l0.07,0.729l0.073,0.726l0.076,0.725l0.077,0.721l0.08,0.72l0.083,0.717l0.084,0.713l0.088,0.711l0.089,0.709l0.092,0.705l0.095,0.701l0.095,0.699l0.098,0.695l0.1,0.692l0.101,0.689l0.104,0.684l0.105,0.681l0.107,0.679l0.109,0.673l0.11,0.67l0.112,0.666l0.113,0.661l0.116,0.657l0.116,0.654l0.118,0.648l0.118,0.644l0.12,0.64l0.122,0.635l0.122,0.63l0.123,0.626l0.125,0.62l0.125,0.616l0.127,0.611l0.127,0.604l0.128,0.6l0.128,0.595l0.129,0.59l0.13,0.583l0.131,0.578l0.131,0.573l0.131,0.566l0.131,0.56l0.133,0.555l0.132,0.548l0.132,0.542l0.134,0.537l0.132,0.529l0.132,0.523l0.134,0.516l0.132,0.51l0.132,0.503l0.133,0.497l0.132,0.489l0.132,0.481l0.132,0.476l0.131,0.467l0.13,0.461l0.13,0.454l0.129,0.446l0.128,0.437l0.128,0.431l0.127,0.422l0.126,0.415l0.126,0.406l0.124,0.398l0.124,0.391l0.122,0.382l0.12,0.374l0.121,0.365l0.118,0.355l0.117,0.349l0.116,0.338l0.114,0.33l0.112,0.32l0.111,0.311l0.109,0.302l0.107,0.293l0.106,0.283l0.103,0.273l0.101,0.263l0.099,0.253l0.097,0.242l0.094,0.232l0.091,0.221l0.089,0.21l0.086,0.199l0.083,0.187l0.079,0.175l0.076,0.163l0.072,0.15l0.067,0.136l0.063,0.123l0.056,0.108l0.052,0.093l0.048,0.084l0.014,0.023l0.019,0.031l0.064,0.104l0.069,0.108l0.071,0.11l0.074,0.112l0.075,0.113l0.079,0.116l0.079,0.116l0.083,0.119l0.084,0.12l0.087,0.121l0.089,0.124l0.091,0.125l0.092,0.126l0.095,0.128l0.098,0.128l0.099,0.13l0.102,0.131l0.102,0.134l0.106,0.133l0.107,0.135l0.109,0.137l0.111,0.138l0.114,0.138l0.115,0.141l0.116,0.141l0.117,0.14l0.245,0.29l0.25,0.291l0.259,0.295l0.263,0.299l0.272,0.303l0.277,0.306l0.285,0.309l0.291,0.314l0.299,0.315l0.304,0.319l0.309,0.32l0.316,0.324l0.322,0.327l0.328,0.328l0.332,0.332l0.339,0.332l0.345,0.335l0.349,0.337l0.354,0.338l0.36,0.341l0.365,0.341l0.37,0.342l0.373,0.345l0.379,0.346l0.383,0.346l0.388,0.347l0.391,0.347l0.396,0.349l0.399,0.35l0.405,0.349l0.407,0.35l0.411,0.35l0.415,0.35l0.418,0.35l0.421,0.351l0.425,0.35l0.427,0.349l0.431,0.35l0.434,0.348l0.436,0.348l0.439,0.347l0.442,0.347l0.443,0.345l0.447,0.344l0.449,0.343l0.45,0.34l0.453,0.341l0.454,0.339l0.456,0.337l0.457,0.335l0.46,0.332l0.46,0.332l0.462,0.329l0.462,0.327l0.465,0.325l0.464,0.322l0.466,0.319l0.466,0.318l0.468,0.314l0.467,0.312l0.467,0.308l0.468,0.306l0.469,0.301l0.468,0.3l0.468,0.295l0.468,0.292l0.467,0.288l0.466,0.285l0.467,0.281l0.467,0.278l0.231,0.136l0.233,0.136l0.463,0.269l0.232,0.132l0.231,0.132l0.231,0.13l0.23,0.13l0.23,0.129l0.23,0.127l0.229,0.126l0.229,0.125l0.229,0.123l0.228,0.123l0.455,0.242l0.453,0.237l0.451,0.23l0.226,0.115l0.224,0.112l0.224,0.111l0.223,0.11l0.222,0.109l0.222,0.107l0.222,0.106l0.22,0.105l0.22,0.103l0.219,0.102l0.218,0.101l0.218,0.098l0.217,0.097l0.216,0.097l0.216,0.094l0.215,0.093l0.214,0.092l0.213,0.09l0.211,0.089l0.212,0.087l0.211,0.086l0.209,0.083l0.208,0.083l0.208,0.081l0.207,0.08l0.205,0.077l0.204,0.076l0.203,0.074l0.204,0.073l0.201,0.072l0.2,0.069l0.199,0.068l0.198,0.067l0.197,0.064l0.195,0.063l0.194,0.061l0.194,0.059l0.191,0.058l0.191,0.057l0.189,0.054l0.189,0.052l0.186,0.051l0.185,0.049l0.185,0.048l0.182,0.045l0.181,0.043l0.179,0.043l0.177,0.039l0.177,0.039l0.175,0.036l0.172,0.035l0.172,0.033l0.17,0.031l0.169,0.029l0.167,0.028l0.164,0.025l0.163,0.024l0.162,0.023l0.159,0.02l0.157,0.018l0.156,0.017l0.154,0.015l0.152,0.012l0.149,0.012l0.148,0.009l0.146,0.008l0.144,0.006l0.142,0.004l0.14,0.003l0.137,0.001l0.139,-0.001l0.139,-0.003l0.142,-0.004l0.144,-0.006l0.146,-0.008l0.148,-0.009l0.15,-0.012l0.151,-0.012l0.155,-0.015l0.156,-0.017l0.157,-0.018l0.159,-0.02l0.162,-0.023l0.163,-0.024l0.164,-0.025l0.166,-0.028l0.169,-0.029l0.17,-0.031l0.171,-0.033l0.173,-0.035l0.176,-0.036l0.176,-0.039l0.177,-0.039l0.18,-0.043l0.181,-0.043l0.182,-0.045l0.183,-0.048l0.187,-0.049l0.186,-0.051l0.187,-0.052l0.19,-0.054l0.19,-0.057l0.192,-0.058l0.194,-0.059l0.194,-0.061l0.195,-0.063l0.197,-0.064l0.198,-0.067l0.2,-0.068l0.199,-0.069l0.202,-0.072l0.203,-0.073l0.203,-0.074l0.205,-0.076l0.205,-0.077l0.207,-0.08l0.207,-0.081l0.209,-0.083l0.209,-0.083l0.211,-0.086l0.211,-0.087l0.212,-0.089l0.213,-0.09l0.214,-0.092l0.215,-0.093l0.215,-0.094l0.217,-0.097l0.217,-0.097l0.218,-0.099l0.218,-0.1l0.219,-0.102l0.22,-0.103l0.22,-0.105l0.221,-0.106l0.223,-0.107l0.222,-0.109l0.223,-0.11l0.224,-0.111l0.224,-0.112l0.224,-0.115l0.226,-0.115l0.225,-0.115l0.227,-0.119l0.227,-0.118l0.228,-0.121l0.228,-0.121l0.227,-0.123l0.229,-0.123l0.229,-0.125l0.229,-0.126l0.231,-0.127l0.23,-0.129l0.23,-0.13l0.231,-0.13l0.231,-0.132l0.232,-0.132l0.231,-0.135l0.232,-0.134l0.232,-0.137l0.231,-0.135l0.468,-0.278l0.465,-0.281l0.467,-0.285l0.468,-0.288l0.468,-0.292l0.468,-0.295l0.468,-0.3l0.467,-0.301l0.469,-0.306l0.467,-0.308l0.468,-0.312l0.467,-0.314l0.467,-0.318l0.465,-0.319l0.465,-0.322l0.464,-0.325l0.463,-0.327l0.462,-0.329l0.46,-0.332l0.46,-0.332l0.457,-0.335l0.456,-0.337l0.454,-0.339l0.453,-0.34l0.45,-0.341l0.449,-0.343l0.446,-0.344l0.444,-0.345l0.441,-0.347l0.439,-0.347l0.437,-0.348l0.433,-0.348l0.431,-0.35l0.427,-0.349l0.426,-0.35l0.421,-0.351l0.418,-0.35l0.414,-0.35l0.412,-0.35l0.407,-0.35l0.404,-0.349l0.4,-0.35l0.396,-0.349l0.391,-0.347l0.388,-0.347l0.383,-0.347l0.379,-0.345l0.373,-0.345l0.37,-0.342l0.364,-0.341l0.36,-0.341l0.354,-0.338l0.35,-0.337l0.344,-0.335l0.338,-0.333l0.334,-0.331l0.328,-0.328l0.322,-0.327l0.315,-0.324l0.31,-0.32l0.304,-0.319l0.298,-0.315l0.291,-0.314l0.284,-0.309l0.279,-0.306l0.271,-0.303l0.264,-0.299l0.259,-0.295l0.249,-0.291l0.245,-0.29l0.117,-0.14l0.117,-0.142l0.115,-0.14l0.113,-0.138l0.112,-0.138l0.109,-0.137l0.107,-0.134l0.105,-0.134l0.103,-0.134l0.102,-0.131l0.098,-0.13l0.098,-0.128l0.095,-0.128l0.093,-0.126l0.091,-0.125l0.089,-0.124l0.087,-0.121l0.084,-0.12l0.082,-0.119l0.08,-0.116l0.079,-0.116l0.075,-0.113l0.074,-0.112l0.071,-0.11l0.069,-0.108l0.064,-0.104l0.018,-0.031l0.015,-0.023l0.048,-0.084l0.05,-0.092l0.058,-0.109l0.062,-0.123l0.068,-0.136l0.072,-0.15l0.075,-0.163l0.079,-0.175l0.084,-0.187l0.086,-0.199l0.089,-0.21l0.091,-0.221l0.094,-0.232l0.096,-0.242l0.1,-0.253l0.1,-0.263l0.104,-0.273l0.105,-0.283l0.108,-0.293l0.109,-0.302l0.11,-0.311l0.113,-0.32l0.113,-0.33l0.117,-0.338l0.116,-0.349l0.119,-0.355l0.119,-0.365l0.122,-0.374l0.122,-0.382l0.124,-0.391l0.123,-0.398l0.125,-0.406l0.127,-0.415l0.127,-0.422l0.127,-0.431l0.13,-0.437l0.129,-0.446l0.13,-0.454l0.13,-0.461l0.131,-0.467l0.132,-0.476l0.131,-0.481l0.132,-0.489l0.132,-0.497l0.133,-0.504l0.133,-0.509l0.132,-0.516l0.134,-0.523l0.132,-0.529l0.132,-0.537l0.134,-0.542l0.132,-0.548l0.131,-0.555l0.133,-0.56l0.131,-0.566l0.131,-0.573l0.13,-0.578l0.13,-0.583l0.13,-0.59l0.128,-0.595l0.128,-0.6l0.127,-0.604l0.126,-0.611l0.126,-0.616l0.124,-0.62l0.124,-0.626l0.122,-0.63l0.121,-0.635l0.121,-0.64l0.118,-0.644l0.118,-0.648l0.116,-0.654l0.114,-0.657l0.115,-0.661l0.111,-0.666l0.111,-0.67l0.108,-0.674l0.107,-0.678l0.106,-0.681l0.103,-0.684l0.102,-0.689l0.1,-0.692l0.098,-0.695l0.095,-0.699l0.095,-0.701l0.091,-0.705l0.09,-0.709l0.086,-0.711l0.085,-0.713l0.084,-0.717l0.079,-0.72l0.078,-0.722l0.075,-0.724l0.074,-0.726l0.069,-0.729l0.067,-0.731l0.066,-0.734l0.061,-0.735l0.059,-0.737l0.056,-0.739l0.053,-0.742l0.026,-0.37l0.025,-0.371l0.023,-0.373l0.024,-0.372l0.022,-0.373l0.022,-0.372l0.021,-0.374l0.02,-0.374l0.02,-0.373l0.018,-0.375l0.018,-0.375l0.016,-0.375l0.016,-0.374l0.015,-0.376l0.015,-0.376l0.013,-0.376l0.012,-0.376l0.012,-0.377l0.011,-0.376l0.01,-0.377l0.009,-0.378l0.008,-0.376l0.008,-0.378l0.006,-0.377l0.005,-0.378l0.004,-0.378l0.005,-0.378l0.002,-0.378l0.002,-0.379l0.001,-0.378l0,-0.377l-0.001,-0.379l-0.002,-0.379l-0.003,-0.378l-0.005,-0.379l-0.005,-0.378l-0.006,-0.379l-0.007,-0.379l-0.008,-0.378l-0.009,-0.379l-0.01,-0.379l-0.011,-0.378l-0.012,-0.378l-0.013,-0.378l-0.014,-0.378l-0.016,-0.379l-0.016,-0.378l-0.018,-0.378l-0.018,-0.378l-0.019,-0.378l-0.021,-0.377l-0.021,-0.377l-0.023,-0.377l-0.024,-0.377l-0.025,-0.377l-0.026,-0.377l-0.027,-0.377l-0.029,-0.375l-0.029,-0.376l-0.031,-0.376l-0.032,-0.376l-0.032,-0.374l-0.034,-0.375l-0.036,-0.375l-0.036,-0.373l-0.038,-0.375l-0.038,-0.374l-0.041,-0.372l-0.041,-0.373l-0.042,-0.374l-0.044,-0.371l-0.044,-0.372l-0.047,-0.371l-0.047,-0.371l-0.048,-0.37l-0.05,-0.371l-0.052,-0.369l-0.051,-0.369l-0.053,-0.369l-0.055,-0.368l-0.057,-0.368l-0.057,-0.367l-0.059,-0.367l-0.059,-0.366l-0.062,-0.365l-0.062,-0.366l-0.064,-0.365l-0.065,-0.363l-0.067,-0.364l-0.068,-0.362l-0.068,-0.363l-0.07,-0.361l-0.072,-0.361l-0.073,-0.36l-0.076,-0.36l-0.075,-0.359l-0.077,-0.358l-0.078,-0.358l-0.081,-0.357l-0.081,-0.355l-0.083,-0.356l-0.083,-0.355l-0.086,-0.354l-0.087,-0.354l-0.089,-0.352l-0.09,-0.352l-0.091,-0.351l-0.092,-0.349l-0.094,-0.351l-0.095,-0.348l-0.098,-0.347l-0.098,-0.347l-0.1,-0.347l-0.101,-0.345l-0.103,-0.344l-0.104,-0.344l-0.106,-0.342l-0.108,-0.341l-0.108,-0.341l-0.11,-0.34l-0.112,-0.339l-0.113,-0.337l-0.114,-0.338l-0.117,-0.336l-0.117,-0.335l-0.12,-0.334l-0.121,-0.333l-0.122,-0.332l-0.124,-0.331l-0.126,-0.33l-0.127,-0.329l-0.128,-0.327l-0.13,-0.327l-0.133,-0.326l-0.132,-0.325l-0.136,-0.323l-0.136,-0.323l-0.138,-0.322l-0.139,-0.319l-0.142,-0.32l-0.143,-0.318l-0.144,-0.316l-0.146,-0.317l-0.148,-0.314l-0.15,-0.313l-0.151,-0.312l-0.152,-0.311l-0.155,-0.31l-0.156,-0.308l-0.157,-0.308l-0.16,-0.306l-0.161,-0.305l-0.162,-0.302l-0.164,-0.303l-0.166,-0.302l-0.169,-0.299l-0.169,-0.298l-0.17,-0.297l-0.174,-0.296l-0.175,-0.295l-0.175,-0.293l-0.178,-0.292l-0.18,-0.29l-0.181,-0.289l-0.183,-0.288l-0.185,-0.287l-0.187,-0.285l-0.189,-0.283l-0.19,-0.283l-0.192,-0.28l-0.194,-0.28l-0.195,-0.278l-0.198,-0.276l-0.199,-0.276l-0.201,-0.273l-0.203,-0.273l-0.204,-0.271l-0.207,-0.269l-0.208,-0.268l-0.21,-0.266l-0.212,-0.265l-0.213,-0.263l-0.216,-0.262l-0.217,-0.26l-0.22,-0.26l-0.222,-0.257l-0.223,-0.256l-0.224,-0.254l-0.228,-0.253l-0.229,-0.251l-0.23,-0.25l-0.233,-0.247l-0.235,-0.247l-0.236,-0.244l-0.239,-0.244l-0.241,-0.241l-0.242,-0.241l-0.245,-0.238l-0.246,-0.237l-0.249,-0.235l-0.25,-0.234l-0.253,-0.232l-0.254,-0.229l-0.257,-0.229l-0.258,-0.227l-0.261,-0.225l-0.263,-0.223l-0.265,-0.222l-0.267,-0.221l-0.269,-0.218l-0.27,-0.217l-0.274,-0.215l-0.275,-0.213l-0.277,-0.211l-0.28,-0.211l-0.281,-0.207l-0.284,-0.207l-0.287,-0.204l-0.288,-0.203l-0.29,-0.2l-0.293,-0.2l-0.294,-0.197l-0.297,-0.196l-0.299,-0.194l-0.302,-0.191l-0.303,-0.19l-0.306,-0.188l-0.308,-0.186l-0.312,-0.185l-0.312,-0.183l-0.315,-0.18l-0.318,-0.178l-0.319,-0.177l-0.322,-0.176l-0.325,-0.172l-0.327,-0.172l-0.329,-0.169l-0.332,-0.166l-0.333,-0.166l-0.337,-0.164l-0.339,-0.161l-0.341,-0.159l-0.343,-0.157l-0.346,-0.156l-0.35,-0.153l-0.35,-0.15l-0.354,-0.15l-0.356,-0.147l-0.358,-0.145l-0.361,-0.143l-0.364,-0.141l-0.366,-0.139l-0.369,-0.137l-0.371,-0.134l-0.374,-0.133l-0.376,-0.13l-0.379,-0.128l-0.381,-0.126l-0.384,-0.124l-0.387,-0.12l-0.389,-0.12l-0.393,-0.117l-0.394,-0.115l-0.397,-0.113l-0.4,-0.11l-0.403,-0.108l-0.405,-0.106l-0.409,-0.104l-0.41,-0.101l-0.413,-0.099l-0.417,-0.096l-0.418,-0.094l-0.423,-0.092l-0.424,-0.09l-0.427,-0.087l-0.429,-0.085l-0.433,-0.082l-0.436,-0.08l-0.439,-0.078l-0.441,-0.074l-0.444,-0.073l-0.446,-0.07l-0.45,-0.068l-0.453,-0.065l-0.455,-0.063l-0.459,-0.06l-0.46,-0.057l-0.464,-0.055l-0.466,-0.053l-0.47,-0.05l-0.474,-0.048l-0.475,-0.044l-0.478,-0.042l-0.482,-0.04l-0.484,-0.037l-0.488,-0.034l-0.49,-0.031l-0.493,-0.029l-0.496,-0.026l-0.499,-0.024l-0.503,-0.021l-0.505,-0.018l-0.508,-0.015l-0.511,-0.012l-0.513,-0.01l-0.518,-0.007l-0.52,-0.004l-0.524,-0.002l-0.522,0.002Z" style="fill:#fff;"/></g></g></g></svg>